<svg viewBox="0 0 144 141.984" xmlns="http://www.w3.org/2000/svg"><g fill="#cbaa5e"><path d="M30.952 76.782q-12.457 0-24.913.007a6.278 6.278 0 01-5.706-3.866 4.647 4.647 0 01-.3-1.581c.01-6.516 0-13.032.009-19.548A5.867 5.867 0 014.2 46.701a14.018 14.018 0 013.775-.34q23.812-.009 47.623-.007a6.253 6.253 0 016.508 6.44c-.063 6-.032 12.009-.01 18.014a6.193 6.193 0 01-6.041 5.978q-12.555-.02-25.103-.004zm32.081 32.783c-8.371 0-16.742-.054-25.112.031a6.12 6.12 0 01-5.751-5.663c-.02-6.047-.124-12.1-.108-18.146a6.442 6.442 0 011.068-3.971 6.128 6.128 0 015.358-2.529c4.632.036 9.264.04 13.9.042q18.033.008 36.067 0a5.838 5.838 0 015.542 4.6 22.644 22.644 0 01.273 3.317c0 5.272.057 10.544-.026 15.814-.053 3.419-1.644 5.527-4.765 6.412a4.765 4.765 0 01-1.331.093q-12.559.003-25.115 0zm-32.007 2.165c8.37 0 16.741.064 25.109-.035a6.214 6.214 0 015.972 6.007q-.082 9.1 0 18.209a6.154 6.154 0 01-6.115 6.072c-12.427-.053-24.854-.02-37.281-.02-4.121 0-8.242-.008-12.363 0a6.047 6.047 0 01-4.859-1.968 5.1 5.1 0 01-1.466-3.5c.023-6.421.076-12.843-.022-19.263a6.044 6.044 0 015.627-5.519c8.466.043 16.932.018 25.398.017zm64.161 0h25.3a5.885 5.885 0 015.529 4.058 2.846 2.846 0 01.1 1.04c0 6.676-.038 13.353.027 20.029.02 2.015-2.255 4.779-4.52 4.917a22.5 22.5 0 01-5.29.041 12.233 12.233 0 00-1.986.144q-21.994.015-43.988.013a6.106 6.106 0 01-6.292-6.017c-.012-6.037-.029-12.075 0-18.112a6.179 6.179 0 016.1-6.127c8.345.05 16.683.014 25.02.014zm-5.623-75.903a3.6 3.6 0 011.914.389c3.2 1.3 6.411 2.557 9.622 3.82.91.358 1.008.558.5 1.36-1.107 1.741-2.252 3.458-3.345 5.207a2.1 2.1 0 00-.016 2.482c.844 1.126 1.433 1.181 2.717.838 2.044-.547 4.121-.968 6.178-1.465 1.752-.423 3.5-.874 5.246-1.316 1.229-.311 2.45-.658 3.686-.935.95-.213 1.688.467 2.5.762 2.377.863 4.711 1.844 7.056 2.794 1.163.471 2.418.777 3.1 2.026a3.15 3.15 0 01-1.55 4.29 66.623 66.623 0 01-6.5 1.749c-1.938.462-3.848 1.042-5.775 1.551-2.936.776-5.878 1.529-8.814 2.3-3.546.935-7.085 1.9-10.636 2.817-2.632.681-5.283 1.287-7.915 1.969-2.543.659-5.069 1.384-7.607 2.059-2.871.764-5.749 1.506-8.623 2.256a3.218 3.218 0 01-3.402-1.338c-.806-1.176-.7-2.4.226-3.81 3.229-4.895 6.482-9.773 9.635-14.719 2.536-3.978 5.223-7.86 7.829-11.794.4-.609.82-1.213 1.206-1.829a2.66 2.66 0 012.768-1.463zM.034 94.414c0-3.13.1-6.264-.031-9.388a5.8 5.8 0 015.662-5.7c3.576.047 7.154.016 10.731.008 2.358 0 4.716.007 7.072-.05a6.116 6.116 0 016.424 6.453c-.035 4.247.128 8.5-.063 12.741-.105 2.332.317 4.689-.315 7.008-.523 1.919-3.049 4.069-5.037 4.075-6.388.02-12.775.03-19.163 0a5.579 5.579 0 01-5.28-5.366q-.007-4.895 0-9.781z"/><path d="M105.858 35.347c.135-1.678-.26-3.735.189-5.751a10 10 0 014.012-5.82q.6-.457 1.213-.9a.5.5 0 00.2-.715 5.128 5.128 0 011.8-6.328c4.155-2.956 8.342-5.867 12.506-8.81 2.793-1.974 5.543-4.011 8.361-5.948a5.538 5.538 0 017.779 1.189c1.071 1.455 2.176 2.825 2.083 4.852a5.258 5.258 0 01-2.169 4.245c-2.568 1.9-5.2 3.71-7.811 5.557-3.487 2.47-6.946 4.982-10.478 7.388a19.263 19.263 0 01-4.095 2.584 5.244 5.244 0 01-5.416-1c-.352-.287-.676-.486-.991-.217-1.14.977-2.524 1.686-3.2 3.177a7.842 7.842 0 00-.75 2.538c-.317 3.63-.191 7.272-.223 10.911-.011 1.207 1.015 1.205 1.694 1.5 1.446.62 2.951 1.1 4.38 1.772.164.077.423.043.389.312-.031.249-.237.349-.475.4-2.578.508-5.1 1.237-7.667 1.818a173.8 173.8 0 00-6.258 1.562 2.034 2.034 0 01-2.78-1.408c-.258-.756.224-1.324.561-1.83a66.507 66.507 0 013.753-5.554c.169-.2.3-.208.454-.036.59.65 1.473.431 2.177.741.619.272.783 0 .776-.6-.027-1.759-.014-3.516-.014-5.629z"/></g></svg>