<svg viewBox="0 0 147 132.854" xmlns="http://www.w3.org/2000/svg"><g fill="#d79a57"><path d="M0 132.854v-6.006c0-.623.659-.6.659-.6s-.055-.023-.054-.822q.007-19.2.011-38.405c0-.488-.006-.976 0-1.463.008-.414.146-.619.645-.595 1.124.055 2.253.03 3.38.029q10.32 0 20.641-.009c.612 0 .767.184.745.784-.05 1.395-.032 2.789 0 4.185.036 1.544.011 3.091-.02 4.636-.014.657.041 1.311.038 1.965-.007 1.631-.086 3.263-.036 4.892.059 1.933.018 3.865.033 5.8.017 2.218-.036 4.436-.042 6.655 0 1.209.04 2.418.041 3.627s-.032 2.418-.035 3.627c0 1.175 0 2.35.031 3.524.007.3-.025.6-.039.9-.022.486.161.676.65.684.471.008.942 0 1.413 0a.436.436 0 00.5-.486c.005-.4.005-.807.005-1.211q0-27.1-.009-54.2c0-.76.148-.958.8-.9 1.68.148 3.362.061 5.042.066 5.03.016 10.06.023 15.089 0 1.8-.01 3.6.1 5.392-.053.516-.044.682.17.683.806q0 7.671.006 15.342v23.715c0 3.531.067 7.061.045 10.591-.012 1.866-.045 3.733-.046 5.6 0 .662.068.728.717.732.555 0 1.11.006 1.665 0 .717 0 .783-.068.783-.777V93.743c0-.812.1-.888.909-.808.367.036.739.024 1.109.024h34.216c.318 0 .637-.029.954-.061.536-.053.788.148.809.7.019.5.011 1.009.01 1.514l-.029 16.351c0 4.727.009 9.453 0 14.18 0 .459.184.648.633.622.268-.016.538 0 .807 0 .77 0 .849-.071.851-.825q.007-3.734.008-7.469 0-13.273-.009-26.545c0-.82-.028-.831-.865-.826-1.581.009-3.163.007-4.744 0-.6 0-.655-.062-.656-.679V80.08c0-.862 0-.833-.856-.8-.84.034-1.682 0-2.523 0-1.5 0-2.994 0-4.491.017-.446.005-.665-.17-.663-.615q.027-6.558.051-13.116c0-.37.128-.524.509-.591a10.624 10.624 0 001.49-.431 49.84 49.84 0 013.717-1.063c1.163-.291 2.275-.758 3.47-.942a9.455 9.455 0 001.439-.427 62.737 62.737 0 013.663-1.052c1.178-.306 2.324-.73 3.528-.965a9.028 9.028 0 002.014-.607 15.417 15.417 0 011.5-.39c1.232-.419 2.516-.684 3.761-1.069 1.151-.356 2.316-.669 3.475-.988a30.012 30.012 0 013.527-.95 12.61 12.61 0 001.394-.413c1.243-.337 2.461-.764 3.709-1.079a24.159 24.159 0 001.925-.552c.316-.109.487.04.514.355.017.2.009.4.009.605v70.548c0 .638.06.695.69.7.37 0 .742-.022 1.11 0 .464.032.659-.19.647-.622-.148-5.28-.054-10.562-.061-15.843q-.022-16.1-.008-32.2V52.055c0-.151-.007-.3 0-.454.052-.844.037-.885-.758-.673-1.226.327-2.425.763-3.66 1.049s-2.412.792-3.675.984a8.663 8.663 0 00-.945.336c-.762.212-.947.009-.91-.758.04-.837-.035-1.679-.036-2.519q-.008-8.63-.009-17.259a11.994 11.994 0 00.012-1.308c-.047-.428.229-.588.634-.585.992.007 1.985.005 2.977.005h24.829a3.064 3.064 0 00.7-.032c.436-.1.592.122.646.485a3.845 3.845 0 01.015.554c0 6.14.022 12.28-.018 18.42-.008 1.218-.208 2.438-.234 3.663 0 .1-.045.229 0 .29a2.317 2.317 0 01.256 1.574q.006 34.7 0 69.392c0 .185.006.37 0 .555-.01.334.89.427.891 1.528v5.349zm49.781-29.5c.689 0 1.379-.015 2.068.006.4.012.531-.149.524-.537a86.046 86.046 0 010-2.874c.005-.4-.13-.575-.558-.569q-2.042.029-4.085 0c-.421-.006-.563.143-.555.557.017.924.016 1.849-.016 2.773-.018.514.043.635.557.642.684.009 1.376.002 2.066.002zm80.779-64.6c.689 0 1.378-.009 2.066 0 .333.006.5-.1.491-.462q-.018-1.512 0-3.024c0-.379-.174-.491-.528-.488q-2.041.017-4.082 0c-.405 0-.579.159-.573.57.013.941.016 1.882 0 2.822-.008.447.194.592.612.581.67-.008 1.343.004 2.015.004zm-.051 2.9c-.673 0-1.346.017-2.017-.006-.41-.015-.574.121-.562.547.024.84.007 1.681.007 2.522s.05.894.874.9c1.293.008 2.587 0 3.881 0 .339 0 .427-.179.425-.48-.007-.992-.017-1.984 0-2.976.009-.411-.165-.522-.543-.511-.685.019-1.374.005-2.064.005zm.008 13.727c-.688 0-1.377.015-2.064-.006-.4-.012-.529.15-.522.536.018.923.023 1.846 0 2.769-.012.445.179.6.593.6q2.062.02 4.123.063c.35.007.475-.149.471-.487-.01-.99-.017-1.98 0-2.97.008-.4-.156-.526-.539-.514-.685.025-1.374.009-2.062.01zm9.2 38.283c.672 0 1.344-.01 2.016 0 .4.008.585-.124.574-.554a61.742 61.742 0 010-2.822c.008-.431-.153-.6-.59-.6q-1.99.023-3.981 0c-.395 0-.527.137-.529.53a29.729 29.729 0 01-.038 3.019c-.035.335.192.425.484.424l2.065.004zm0-58.872v.006c-.637 0-1.276.025-1.912-.009-.433-.023-.6.106-.6.559a26.34 26.34 0 01-.038 2.967c-.037.328.167.442.467.442h4.18c.33 0 .494-.131.491-.48-.01-.99-.01-1.981 0-2.971 0-.36-.162-.52-.52-.516-.693.007-1.385.002-2.069.002zm-49.01 78.175v.035c.721 0 1.443-.025 2.162.008.546.025.674-.046.678-.58.006-.772 0-1.544 0-2.316 0-1.047 0-1.041-1.006-1.037-1.191 0-2.383.018-3.574-.014-.473-.013-.618.147-.605.606a55.53 55.53 0 010 2.768c-.008.391.139.547.53.535.608-.018 1.208-.005 1.815-.005zm.3-10.752c-.705 0-1.411.016-2.116-.006-.395-.012-.535.133-.527.527.02.923.03 1.848 0 2.77-.018.484.177.6.619.6 1.376.015 2.753-.052 4.128.05.34.025.444-.14.442-.449-.006-1.007-.01-2.015 0-3.023 0-.348-.136-.481-.48-.474-.688.017-1.373.005-2.065.005zm-41.215 11.3c-.722 0-1.445.01-2.167 0-.318-.006-.454.1-.449.435q.021 1.461 0 2.923c-.007.4.155.531.539.529 1.394-.009 2.789 0 4.183.008.346 0 .479-.144.476-.485-.01-.991-.009-1.982 0-2.973 0-.325-.139-.445-.46-.438-.714.013-1.414.003-2.121.003zm89.978-71.861c-.69 0-1.38.017-2.069-.007-.382-.013-.5.133-.49.5.019.824.008 1.648.006 2.472 0 .895-.006.936.881.97 1.175.045 2.353.021 3.53.018.484 0 .715-.2.684-.744a26.583 26.583 0 010-2.572c.017-.474-.12-.673-.622-.645-.64.036-1.281.009-1.92.008zm-9.283 45.147c.722 0 1.445-.007 2.167 0 .311 0 .467-.1.463-.437a165.8 165.8 0 01-.012-2.821c0-.483-.2-.67-.7-.657a62.676 62.676 0 01-3.878-.006c-.45-.017-.606.071-.6.525.008.99.056 1.981-.027 2.97-.029.349.191.424.479.424l2.108.002zm-36.939 31.018c0-.488-.009-.976 0-1.463.009-.354-.119-.523-.5-.519-1.411.014-2.822.082-4.233 0-.323-.018-.453.126-.45.448.009.975.006 1.951 0 2.926 0 .4.15.552.581.546 1.341-.019 2.684 0 4.025.033.4.011.564-.143.568-.513.011-.483.007-.971.009-1.458zm-2.636-22.378v.008c-.656 0-1.313.019-1.968-.007-.411-.016-.584.126-.577.546.015.942.017 1.884 0 2.826-.009.412.172.516.548.513 1.379-.011 2.759-.006 4.138.006.331 0 .5-.1.5-.459-.009-.976 0-1.951 0-2.927 0-.383-.176-.528-.567-.513-.694.025-1.386.006-2.074.006zm39.606-29.634h2.119c.26 0 .477-.034.476-.367 0-.992 0-1.984-.01-2.976 0-.352-.151-.538-.559-.532-1.362.022-2.724.018-4.086 0-.392 0-.541.13-.535.525.015.958.008 1.917-.007 2.875-.006.352.144.48.483.475.706-.008 1.413 0 2.119 0zm9.247 30.742c-.7 0-1.409.009-2.114 0-.327-.006-.446.126-.443.447.009 1.006 0 2.013 0 3.019 0 .253.087.427.364.443a30.811 30.811 0 004.22.017c.384-.031.519-.206.514-.58-.014-.956-.011-1.912 0-2.868 0-.348-.141-.483-.479-.478-.687.005-1.375-.001-2.062 0zm-66.223 16.9h2.116c.251 0 .444-.071.444-.355 0-1.075 0-2.149-.013-3.224a.349.349 0 00-.434-.372 8.947 8.947 0 01-1.809-.025 17.094 17.094 0 01-2.412.02c-.342-.058-.431.152-.429.455.007 1.008.01 2.015 0 3.023 0 .342.123.488.473.482.686-.015 1.375-.006 2.063-.006zm-23.77-16.957c.689 0 1.378-.016 2.066.006.39.012.544-.123.536-.522-.019-.873 0-1.747-.007-2.62 0-.656-.078-.729-.719-.729-1.326 0-2.652.01-3.978 0-.385 0-.5.18-.493.526.006.957 0 1.915-.009 2.872 0 .352.15.477.487.472.706-.012 1.412-.004 2.117-.005zm72.183-54.839h-2.114c-.207 0-.449-.006-.429.285.074 1.074 0 2.147.016 3.22a.346.346 0 00.357.393 32.934 32.934 0 004.172.02c.451-.027.571-.22.583-.67.023-.938-.128-1.873-.015-2.81.04-.329-.143-.445-.455-.441-.705.011-1.41.005-2.115.004zM33.881 89.627h2.065c.328 0 .6-.109.558-.481a26.671 26.671 0 01-.051-3.016c0-.3-.113-.471-.446-.47-1.393.007-2.787 0-4.18 0-.335 0-.46.121-.431.495a13.587 13.587 0 01-.024 2.911c-.057.407.115.56.495.559.671.002 1.343.002 2.014.002zm15.882 30.646v.007h-2.114c-.271 0-.469.063-.469.38v3.071c0 .283.166.411.458.41 1.371 0 2.743-.01 4.114.014.439.008.615-.163.612-.584q-.008-1.384 0-2.769c0-.376-.141-.547-.542-.533-.682.021-1.371.004-2.059.004zm.032-37.5c.705 0 1.411-.005 2.116 0 .278 0 .457-.075.455-.391 0-1.008 0-2.015-.008-3.023 0-.322-.183-.47-.522-.464-.871.014-1.743 0-2.614.008a9.412 9.412 0 01-1.406.036c-.515-.074-.631.031-.634.557-.006.924.009 1.848-.007 2.771-.006.372.139.512.505.5.705-.008 1.41.002 2.12.002zm72.111-44.016h2.018c.537 0 .656-.137.6-.671a14.144 14.144 0 01-.022-2.518c.044-.639-.065-.774-.717-.774-1.293 0-2.587.01-3.88 0-.363 0-.463.163-.469.49a30.439 30.439 0 01-.05 3.073c-.042.344.226.4.5.4zM62.128 97.298c0 .5.013 1.007 0 1.51-.013.368.134.527.5.5a38.489 38.489 0 014.018-.005c.35.015.591-.1.589-.5 0-.99-.007-1.979 0-2.969 0-.333-.124-.489-.475-.486q-2.089.015-4.177 0c-.366 0-.463.163-.452.492.009.487-.003.972-.003 1.458zm-20.19-11.636c-.655 0-1.311.019-1.966-.006-.441-.017-.581.143-.574.587a18.529 18.529 0 01-.049 2.917c-.054.381.2.463.5.464 1.361.005 2.722 0 4.083 0 .329 0 .49-.135.484-.486-.016-.991-.023-1.982-.011-2.974 0-.366-.125-.519-.5-.51-.656.02-1.312.008-1.967.008zm39.776 20.436v.012h2.066c.286 0 .5-.043.492-.4q-.016-1.537-.009-3.075c0-.3-.128-.423-.425-.421q-2.168.008-4.335 0c-.3 0-.425.147-.395.443a21.124 21.124 0 01.031 2.969c-.014.376.125.477.457.474.704-.007 1.412-.002 2.118-.002zm48.815-53.817c.689 0 1.378-.016 2.067.006.4.013.533-.146.525-.534a52.557 52.557 0 010-2.722c.018-.494-.161-.643-.641-.624a28.786 28.786 0 01-3.975.011c-.41-.041-.58.143-.574.555.014.907.01 1.815 0 2.722 0 .4.174.589.576.585.677-.003 1.349.001 2.021.001zM81.76 95.427v.026c-.655 0-1.311.029-1.963-.009-.5-.029-.637.167-.639.636a23.032 23.032 0 01-.037 2.815c-.04.317.191.43.488.43h4.23c.256 0 .426-.084.425-.371 0-1.041 0-2.081-.006-3.122 0-.305-.152-.431-.484-.417-.674.03-1.343.012-2.014.012zm48.709-15.386c.689 0 1.377-.011 2.066 0 .38.009.573-.151.575-.525 0-.924.007-1.847 0-2.771 0-.435-.209-.6-.674-.575a35.076 35.076 0 01-3.967.006c-.4-.022-.551.1-.545.5q.019 1.41-.005 2.821c-.006.387.149.55.536.542.67-.012 1.345 0 2.014 0zm9.255 2.864v-.01c-.654 0-1.314.047-1.962-.016-.461-.045-.56.118-.555.519q.017 1.461-.006 2.921c-.006.347.125.487.469.485q2.065-.011 4.131 0c.364 0 .51-.142.5-.511q-.023-1.41 0-2.821c.006-.409-.155-.581-.565-.572-.668.014-1.336.003-2.012.003zm.028 27.386c-.706 0-1.411.008-2.117 0-.3 0-.427.1-.424.408.01 1.008.008 2.016 0 3.024 0 .325.14.449.457.447q2.041-.011 4.082 0c.377 0 .556-.145.551-.537q-.016-1.436 0-2.873c0-.353-.145-.475-.484-.468-.687.007-1.376-.002-2.064-.003zM64.6 106.179h2.118c.319 0 .52-.113.517-.464-.007-.958-.017-1.916-.017-2.874 0-.367-.135-.556-.536-.552q-2.042.023-4.085.009c-.346 0-.482.128-.478.475.011.975.014 1.95 0 2.925-.008.39.167.494.519.486.655-.014 1.311-.004 1.962-.005zm75.117-50.8h-2.068c-.28 0-.449.082-.447.4.005 1.042 0 2.084 0 3.126a.335.335 0 00.366.38 32.308 32.308 0 004.18 0c.375-.03.477-.218.472-.56a78.192 78.192 0 010-2.824c.008-.4-.151-.536-.536-.526-.651.02-1.307.007-1.963.007zM33.881 106.234h-2.063c-.343 0-.457.124-.425.494a14.194 14.194 0 01-.012 2.861c-.043.377.1.539.454.549a34.023 34.023 0 004.071.018c.468-.043.588-.238.573-.675a33.36 33.36 0 01-.009-2.665c.02-.466-.155-.6-.575-.588-.672.016-1.343.006-2.014.006zm96.643-33.542v.015c.655 0 1.31-.016 1.965.006.449.015.643-.148.631-.613-.024-.888-.009-1.777-.019-2.665 0-.39-.2-.55-.607-.543q-1.989.034-3.98 0c-.435-.007-.606.126-.6.571.022.906.02 1.814 0 2.72-.01.409.161.524.542.513.691-.019 1.38-.004 2.069-.004zM33.932 113.52h-2.169c-.336 0-.442.142-.39.473a12.455 12.455 0 01.03 2.817c-.036.486.122.593.543.59 1.295-.009 2.59-.019 3.885.006.5.01.637-.183.628-.657a18.238 18.238 0 01.04-2.77c.044-.332-.14-.457-.446-.456zm105.753-33.48c.673 0 1.346-.005 2.018 0 .417 0 .614-.163.6-.6-.02-.857 0-1.716-.009-2.573 0-.619-.131-.707-.761-.686a33.411 33.411 0 01-3.823 0c-.341-.027-.506.079-.5.438.006.992 0 1.985 0 2.977 0 .318.135.455.457.449.672-.018 1.345-.005 2.018-.005zM41.872 96.491c.689 0 1.379-.008 2.068 0 .347.006.478-.14.472-.485a85.508 85.508 0 01-.009-2.774c.007-.464-.2-.62-.641-.614-1.244.016-2.489.022-3.732 0-.5-.01-.643.184-.629.658.025.856.029 1.716-.014 2.571-.028.568-.012.638.569.642.638.006 1.277.002 1.916.002zm-7.977 0h2.114c.321 0 .544-.123.5-.471a21.527 21.527 0 01-.057-2.663c-.008-.666-.092-.744-.77-.73-1.157.023-2.313-.011-3.471.037-.8.033-.779-.025-.78.776a14.439 14.439 0 01-.062 2.56c-.063.352.136.49.464.49zM47.178 74.14c0 .453.009.907 0 1.36-.01.429.156.572.607.564 1.306-.025 2.613 0 3.919.026.534.012.658-.063.663-.616.008-.89-.012-1.78.008-2.67.011-.486-.212-.6-.653-.565a28.649 28.649 0 01-4.073.016c-.323-.022-.474.1-.471.424.002.487-.001.974 0 1.461zm-13.219 46.139H31.84c-.312 0-.5.136-.466.449a16.772 16.772 0 01.021 2.918c-.017.294.088.491.423.492 1.358 0 2.716.007 4.074.007.419 0 .651-.229.605-.622a15.281 15.281 0 01-.025-2.667c.024-.413-.129-.588-.547-.578-.654.013-1.31.002-1.966.001zm105.748-13.172c.671 0 1.343-.013 2.013 0 .4.01.592-.116.584-.544a91.21 91.21 0 010-2.718c0-.352-.138-.527-.506-.526q-2.064.008-4.128 0c-.323 0-.456.127-.454.447q.01 1.435 0 2.869c0 .341.135.485.481.478.667-.016 1.339-.006 2.01-.006zm.018-34.412c.689 0 1.378-.007 2.067 0 .353.005.522-.121.515-.5a76.718 76.718 0 010-2.671c.005-.442-.165-.635-.629-.627q-1.963.03-3.926 0c-.394-.006-.544.13-.538.522q.022 1.386 0 2.772c-.008.408.174.523.552.511.648-.022 1.303-.007 1.959-.007zM41.9 120.278c-.655 0-1.31.018-1.964-.006-.428-.016-.552.161-.543.568.02.906.01 1.812-.007 2.718-.008.437.184.616.61.582 1.271-.1 2.543.02 3.815.006.4 0 .6-.138.592-.554a98.304 98.304 0 010-2.769c.005-.42-.189-.563-.586-.554-.636.02-1.274.009-1.917.009zm-.05-37.512h2.063c.292 0 .49-.065.487-.413-.008-.973-.006-1.946-.008-2.918 0-.409-.2-.554-.607-.533-1.251.066-2.5.05-3.756 0-.51-.019-.622.064-.625.582-.006.922.02 1.846-.036 2.765-.025.412.125.511.469.511zm-7.955 0h2.117c.322 0 .523-.123.477-.483a19.732 19.732 0 01-.041-2.616c0-.688-.121-.761-.8-.738a64.6 64.6 0 01-3.576.021c-.6-.012-.658 0-.654.612.006.857.029 1.715-.009 2.569-.025.577-.02.631.569.634.645.004 1.283.001 1.922.001zm105.815-30.48c.639 0 1.279-.012 1.917 0 .436.011.605-.184.6-.607-.013-.824-.011-1.648-.007-2.472 0-.737-.109-.815-.856-.778a24.505 24.505 0 01-3.624 0c-.365-.036-.536.067-.532.454q.017 1.463 0 2.926c0 .343.135.484.482.477.675-.01 1.347 0 2.02 0zM36.465 73.927c0-.369-.01-.739 0-1.107.015-.465-.122-.6-.591-.573a28.049 28.049 0 01-4.022.008c-.313-.023-.5.087-.473.417a16.094 16.094 0 010 2.913c-.029.316.113.5.476.482 1.34-.078 2.68-.009 4.02.014.438.007.677-.213.61-.647a8.382 8.382 0 01-.02-1.507zm2.936.225v1.309c0 .519.117.6.616.6q1.882-.011 3.765.028c.425.009.626-.132.621-.572-.011-.923-.008-1.846 0-2.77 0-.4-.193-.533-.57-.5a29.409 29.409 0 01-3.921.015c-.38-.02-.524.109-.513.479.014.47.001.941.001 1.411z"/><path d="M113.6 29.908V53.47c0 .758-.209.952-.946 1.108-.7.149-1.383.392-2.078.578-1.291.344-2.56.765-3.865 1.064-.613.14-1.214.372-1.829.534-1.291.34-2.564.744-3.856 1.084-.706.186-1.418.39-2.117.622-.664.221-1.354.364-2.028.557-1.249.359-2.479.8-3.746 1.075-1.212.261-2.361.728-3.579.971a18.763 18.763 0 00-1.928.554c-1.1.347-2.211.686-3.326.955a6.489 6.489 0 01-1.979.5c-.267-.018-.42.181-.416.466v.605q-.048 7.238-.092 14.477c0 .469-.192.682-.657.682h-8.93c-.436 0-.482-.248-.481-.59 0-2.235-.013-4.471-.011-6.706q.027-30.171.013-60.342V6.37c0-.718 0-.72.742-.72 1.329 0 2.658-.012 3.986.005.454.006.638-.162.626-.622-.038-1.412-.052-2.824-.076-4.235-.012-.7.081-.8.763-.8h30.93c.59 0 .653.071.652.677 0 1.463.009 2.927-.011 4.39-.006.432.129.6.577.591.958-.025 1.917-.01 2.876-.007.685 0 .781.1.781.794v23.461zM92.57 14.937h15.64c.654 0 .679-.025.681-.684v-2.472c0-.809 0-.81-.811-.81H78.92c-.673 0-1.346.02-2.018-.007-.473-.019-.671.133-.652.634.033.856.008 1.715.009 2.573 0 .735.031.766.772.766zm0 33.983H76.63a.321.321 0 00-.369.369v3.128a.417.417 0 00.431.455 5.177 5.177 0 00.554.012h23.661c2.455 0 4.911-.007 7.366.006.455 0 .636-.157.625-.619a64.18 64.18 0 010-2.775c.008-.424-.128-.591-.583-.589q-7.872.02-15.742.013zm.01-22.622v.007q-7.868 0-15.735-.007c-.425 0-.61.113-.6.569.027.89.026 1.782 0 2.673-.013.482.171.654.649.651 1.983-.012 3.966-.016 5.949.009 3.68.047 7.361-.025 11.042.057 2.685.06 5.373-.026 8.06-.034 2.13-.007 4.26.088 6.39-.026.385-.021.554-.146.55-.532-.008-.958-.005-1.916 0-2.875 0-.359-.151-.5-.523-.5q-7.887.015-15.78.008zm-.007 11.254h15.647c.623 0 .667-.04.67-.649v-2.372c0-.9-.011-.911-.879-.886h-.353c-6.391-.025-12.783.048-19.175-.039-1.929-.026-3.864.009-5.8.033s-3.835.007-5.753.013c-.616 0-.671.059-.674.658v2.473c0 .733.034.769.772.77zm-.005-14.92v.023h15.845c.366 0 .473-.19.474-.5v-2.776c0-.439-.171-.7-.672-.646a39.209 39.209 0 01-4.284.091c-4.372-.045-8.744 0-13.116-.039-2.567-.021-5.14-.1-7.713-.012a48.628 48.628 0 01-6.147-.028c-.6-.054-.69.075-.693.7v2.422c0 .74.029.764.767.764zm-.023 22.695h15.685c.368 0 .651-.068.655-.5.009-.958.012-1.917 0-2.875-.005-.358-.187-.576-.583-.5a7.644 7.644 0 01-1.458.069c-7.985 0-15.97.017-23.955-.011-2.032-.007-4.066.118-6.1-.063-.4-.036-.535.175-.531.548.009.84 0 1.681 0 2.522 0 .755.041.8.8.8zm-72.073 9.44V27.619c0-.572.168-.677.7-.474a16.946 16.946 0 002.71.719c.527.105 1.03.3 1.545.44 1.322.367 2.657.694 3.985 1.024 1.3.323 2.576.733 3.9.975a18.342 18.342 0 011.938.524c.851.255 1.726.4 2.573.662 1.343.413 2.712.738 4.073 1.071 1.315.321 2.6.747 3.94 1 .665.124 1.317.388 1.987.536 1.4.311 2.767.772 4.179 1.061.633.13 1.27.307 1.893.5 1.25.381 2.519.7 3.78 1.024 2.07.538 4.135 1.1 6.212 1.606 1.738.423 3.449.959 5.209 1.291.5.1.606.447.6.9-.01 1.867-.008 3.734-.008 5.6q0 16.274.012 32.548c0 .482-.2.683-.651.679-2.034-.016-4.07.066-6.1-.047-.481-.027-.522.256-.515.605.018.889.061 1.778.057 2.667-.008 2.1-.04 4.2-.055 6.3 0 .335.025.671.053 1.005.045.545-.128.766-.66.771-1.11.011-2.22 0-3.33.013-.458 0-.569-.258-.568-.648v-21.85q0-.277-.008-.555c-.01-.342-.19-.466-.526-.444-.536.034-1.074.051-1.612.058-.643.008-.789-.173-.785-.808.011-1.631 0-3.263 0-4.894 0-.46-.287-.451-.608-.451h-8.827c-.388 0-.592-.168-.57-.586s.012-.841.012-1.261q0-6.812-.006-13.625c0-.662-.012-.671-.683-.671-1.7 0-3.4.01-5.1-.009-.458-.005-.633.1-.556.605a10.2 10.2 0 01.02 1.511v13.171c0 .8-.061.862-.863.864-2.859.005-5.719.015-8.578 0-.48 0-.649.13-.641.624.026 1.614.012 3.229.008 4.844 0 .6-.121.7-.714.682-.37-.014-.741 0-1.109-.031-.435-.035-.608.136-.6.577.015 1.413.005 2.826.005 4.239v9.89c0 .726-.065.777-.772.773-1.362-.007-2.725 0-4.087 0-.817 0-.863-.043-.863-.849v-27z"/><path d="M90.389 85.955v3.531c0 .6-.138.712-.719.647a6.361 6.361 0 00-.7-.029h-22.8c-.252 0-.5 0-.755.027-.417.037-.587-.164-.587-.559v-7.008a4.019 4.019 0 01.042-.5.4.4 0 01.488-.388c1.894.175 3.789-.019 5.684.012 1.678.027 3.359.114 5.035.054 3.076-.11 6.151-.056 9.227-.048a36.671 36.671 0 004.482-.027c.5-.059.6.26.6.658.004 1.209.003 2.42.003 3.63zm-48.574-22.57H51.95c.685 0 .7.031.694.713s-.017 1.346.024 2.015c.025.41-.152.552-.514.569-.117.005-.235 0-.353 0H31.833c-.859 0-.862 0-.863-.883 0-.605.022-1.211-.007-1.815-.023-.467.159-.611.616-.61 3.412.018 6.821.011 10.236.011zm90.276-34.146h-7.915c-.721 0-.748-.028-.75-.732v-2.269c0-.345.173-.524.5-.462a9.722 9.722 0 001.859 0q7.184-.008 14.368-.012c.573 0 .7.133.695.722v2.016c0 .6-.128.737-.741.737q-4.007.003-8.016 0zM41.064 53.936c0-2.034.011-4.068-.009-6.1 0-.463.147-.656.608-.6a3.121 3.121 0 00.453 0c.351-.01.54.144.53.509v12.001a.915.915 0 01-1.388.815c-.227-.122-.2-.322-.2-.524v-6.1z"/></g></svg>