<svg viewBox="0 0 143.271 57.419" xmlns="http://www.w3.org/2000/svg"><g fill="#3ebdc9"><path d="M142.869 18.902v.006l.047-.03zM88.507 41.739a8.306 8.306 0 01-1.246 1.991 1.844 1.844 0 00.248-.227 5.932 5.932 0 001.384-1.747 12.739 12.739 0 00.918-2.046 22.448 22.448 0 001.078-4.369c.237-1.485.377-2.986.472-4.49l.076-2.266.058-1.176c.054-.394.094-.789.162-1.184a6.72 6.72 0 01.889-2.319 3.873 3.873 0 012.083-1.576 5.8 5.8 0 012.492-.151 15.067 15.067 0 012.319.479c2.973.906 5.76 2.021 8.7 2.774a35.772 35.772 0 008.915 1.289 43.616 43.616 0 008.979-1.072 56.687 56.687 0 0016.281-6.473 69.449 69.449 0 01-17.738 5.888 35.306 35.306 0 01-9.944.419 65.637 65.637 0 01-9.672-2.323 96.133 96.133 0 00-9.525-2.45 8.747 8.747 0 00-4.552.136c-1.342.494-1.751 2.083-1.744 3.626.124 3.218.445 6.564.442 9.87a28.4 28.4 0 01-.365 4.984 12.487 12.487 0 01-.71 2.413z"/><path d="M92.636 36.6a17.429 17.429 0 00.651-3.65 17.644 17.644 0 01.613-3.891 5.3 5.3 0 012.54-3.276 7.934 7.934 0 014.036-.562 46.429 46.429 0 017.548 1.637A30.9 30.9 0 00115.471 28a29.351 29.351 0 007.48-.951 55.74 55.74 0 002.832-.785 44.169 44.169 0 01-8.732 1.173 36.569 36.569 0 01-9.137-1.15c-2.985-.692-5.9-1.773-8.765-2.575a13.976 13.976 0 00-2.153-.416 4.9 4.9 0 00-2.03.129 2.715 2.715 0 00-1.485 1.1 5.647 5.647 0 00-.743 1.915c-.073.351-.121.714-.184 1.072l-.091 1.1-.154 2.3a36.835 36.835 0 01-.667 4.566 22.7 22.7 0 01-1.368 4.414 13.135 13.135 0 01-1.124 2.026 7.464 7.464 0 01-1.085 1.283 5.851 5.851 0 00.522-.416 11.022 11.022 0 002.489-2.808 12.853 12.853 0 001.56-3.377z"/><path d="M132.536 24.168a74.718 74.718 0 01-9.444 3.417 29.981 29.981 0 01-7.621 1.134 31.682 31.682 0 01-7.652-1 45.786 45.786 0 00-7.415-1.4 7.029 7.029 0 00-3.443.5 4.177 4.177 0 00-2.007 2.6 16.687 16.687 0 00-.712 3.619 15.742 15.742 0 01-.872 3.822 12.442 12.442 0 01-3.6 5.22c2.7-1.8 5.689-3.9 6.981-9.388 1.477-6.277 11.078-3.693 13.478-2.954s4.985 1.477 16.617-3.139c2.4-.954 4.5-1.849 6.339-2.674-.221.072-.435.16-.649.243z"/><path d="M87.087 43.78a8.024 8.024 0 001.133-2.151 12.087 12.087 0 00.5-2.378 28.293 28.293 0 00.092-4.888c-.16-3.291-.532-6.514-.778-9.881a7.092 7.092 0 01.427-2.645 3.618 3.618 0 011.959-2.041 6.3 6.3 0 012.659-.44 17.012 17.012 0 012.546.276 96.62 96.62 0 019.587 2.674 65.115 65.115 0 009.5 2.457 34.682 34.682 0 009.77-.251 69.669 69.669 0 0018.679-5.875c-2.241-.229-38.659-4.009-50.109-8.482A98.654 98.654 0 0173.482 0S40.065 16.986 0 18.648a66.054 66.054 0 0016.063 6.092c8.493 1.846 17.355 4.8 23.448 8.493s14.031 14.586 16.986 16.986l8.862 7.2zm-.9-31.9a19.33 19.33 0 003.219 1.417 43.306 43.306 0 006.869 1.613 132.1 132.1 0 0014.132 1.249l-3.559.075c-1.188.021-2.373-.061-3.562-.086a69.382 69.382 0 01-7.1-.691 39.273 39.273 0 01-6.927-1.761 19.2 19.2 0 01-3.214-1.586 6.825 6.825 0 01-2.5-2.505 6.7 6.7 0 002.64 2.271zm-5.316.7a40.035 40.035 0 004.052 1.476 77.519 77.519 0 008.369 2.1c1.408.3 2.83.534 4.247.794l4.276.641c2.857.394 5.724.724 8.595 1.057l-4.329-.234c-1.441-.109-2.878-.268-4.319-.4s-2.868-.379-4.3-.566c-1.426-.245-2.858-.463-4.277-.75a68.468 68.468 0 01-8.393-2.241 24.979 24.979 0 01-7.7-3.932 17.278 17.278 0 003.776 2.053zm-4.35 0a64.61 64.61 0 004.3 1.679q4.355 1.543 8.85 2.65c2.975.808 6 1.408 9.023 2.021 3.031.576 6.074 1.086 9.128 1.57l-4.613-.477-4.59-.674c-3.047-.539-6.083-1.139-9.083-1.911a83.235 83.235 0 01-8.859-2.788 41.4 41.4 0 01-8.3-4.126 31.214 31.214 0 004.141 2.05zM62.688 45.81a26.94 26.94 0 01-5.3-6.149c-1.459-2.316-2.534-4.763-3.853-7.078-1.3-2.28-2.715-4.652-5.03-5.644s-5.05-1.024-7.692-1.135a78.015 78.015 0 01-8.06-.559c-5.325-.68-10.715-1.786-15.492-4.292a38.345 38.345 0 007.666 2.3 65.427 65.427 0 007.916 1.141c2.659.218 5.318.375 7.993.4 1.347.031 2.7.047 4.059.19a13.219 13.219 0 014.068.945 8.8 8.8 0 013.273 2.697 26.258 26.258 0 012.184 3.473c1.29 2.369 2.4 4.834 3.7 7.123a26.52 26.52 0 004.93 6.184 18.844 18.844 0 006.746 4.167 18.076 18.076 0 01-7.108-3.763zm6.958-4.162a22.819 22.819 0 01-4.74-6.578c-1.193-2.474-1.872-5.054-3.207-7.3a10.1 10.1 0 00-2.449-2.9 8.718 8.718 0 00-3.405-1.593 29.729 29.729 0 00-7.831-.651c-2.663.036-5.332.2-8.007.284-5.359.289-10.932-.369-15.748-2.784a28.219 28.219 0 007.747 1.869 38.6 38.6 0 007.952.065c2.67-.223 5.348-.352 8.038-.442a30.489 30.489 0 018.131.589 9.805 9.805 0 013.78 1.835 11.125 11.125 0 012.664 3.224 69.051 69.051 0 013.104 7.444 22.319 22.319 0 004.349 6.552 17.033 17.033 0 006.6 4.339 16.45 16.45 0 01-6.977-3.95zm4.936-2.589a27.4 27.4 0 01-4.646-6.426 63.706 63.706 0 01-3.07-7.266 7.643 7.643 0 00-2.058-3.021 7.913 7.913 0 00-3.282-1.583 26.09 26.09 0 00-7.647-.45c-2.582.159-5.218.491-7.846.549a51.283 51.283 0 01-15.657-1.48 49.964 49.964 0 007.792.806 70.511 70.511 0 007.818-.177l7.825-.7a26.9 26.9 0 017.988.384 8.985 8.985 0 013.7 1.858 8.672 8.672 0 012.293 3.43c.926 2.52 1.778 4.91 2.9 7.268a27.01 27.01 0 004.283 6.439 13.09 13.09 0 006.451 4.148c-2.647-.345-4.928-1.982-6.843-3.776zm-.882-8.866a21.981 21.981 0 01-2.929-7.295l-.409-1.866a9.412 9.412 0 00-.643-1.7 5.275 5.275 0 00-2.476-2.417c-2.155-1.047-4.807-.941-7.313-.722-2.541.236-5.074.728-7.632 1.092-2.554.389-5.121.755-7.706.966a43.134 43.134 0 01-7.759-.07 73.605 73.605 0 0015.321-1.736c2.531-.5 5.077-.961 7.673-1.255a25.833 25.833 0 013.945-.166 10.155 10.155 0 013.96.9 6.372 6.372 0 012.926 2.927 10.43 10.43 0 01.7 1.925l.4 1.921a23.141 23.141 0 002.671 7.06 29.51 29.51 0 004.656 6.053 35.376 35.376 0 005.937 4.9 30.8 30.8 0 01-11.321-10.514z"/></g></svg>