<svg viewBox="0 0 149.39 110.38" xmlns="http://www.w3.org/2000/svg"><path d="M69.303 72.622a80.368 80.368 0 003.392-10.58c.417-1.708.819-3.424 1.1-5.157.279-1.7.555-3.411.8-5.121.283-1.951.412-3.917.594-5.871.151-1.627.21-3.285.211-4.932 0-1.808.255-3.61.1-5.424a16.713 16.713 0 010-2.159c.01-.241-.091-.63.231-.7.367-.08.373.333.431.556a31.254 31.254 0 001.181 3.482 35.271 35.271 0 011.1 5.338 53.323 53.323 0 011.073 11.211 91.1 91.1 0 01-.179 6.291c-.137 2.231-.3 4.453-.6 6.668-.225 1.685-.35 3.389-.681 5.053-.408 2.055-.541 4.18-1.429 6.127-.127.277-.3.668.077.863.352.184.494-.209.67-.424a36.013 36.013 0 016.087-5.653c2.194-1.687 4.522-3.176 6.861-4.651.634-.4 1.37-.878 1.3-1.794s.076-1.812.053-2.712c-.055-2.072.06-4.141-.015-6.216a39.428 39.428 0 00-.53-5.808 2.163 2.163 0 01-.036-.4 33.71 33.71 0 00-1.229-8.557c-.742-2.854-1.233-5.768-2.262-8.574-.868-2.368-1.691-4.771-2.709-7.064a69.145 69.145 0 00-4.343-8.245 75.506 75.506 0 00-7.36-10.043A58.346 58.346 0 0064.906.264c-.549-.424-.838-.359-1.056.308a28.471 28.471 0 01-1.48 3.275 40.49 40.49 0 01-2.217 3.8c-1.032 1.684-2.15 3.316-3.256 4.954-.972 1.439-2.029 2.823-2.958 4.288-1.5 2.364-2.868 4.807-4.244 7.246a66.113 66.113 0 00-4.94 10.922 52.715 52.715 0 00-2.5 9.744 45.77 45.77 0 00-.7 7.123 36.435 36.435 0 00.69 7.586 64.684 64.684 0 001.6 7.065c.83 3.215 2.117 6.247 3.25 9.339.913 2.491 2.068 4.895 3.151 7.321.9 2.016 1.863 4 2.773 6.016a36.121 36.121 0 012.33 5.324c.157.581.7.619 1.093.122.632-.795 1.273-1.585 1.86-2.413a112.146 112.146 0 007.072-11.35 76.234 76.234 0 003.929-8.312zm79.818 10.458c-.462-.405-.933-.8-1.428-1.166a63.844 63.844 0 00-7.561-4.831 59.156 59.156 0 00-11.7-4.719 49.97 49.97 0 00-7.587-1.513c-2.2-.275-4.4-.421-6.6-.549a61 61 0 00-10.83.845c-1.309.157-2.537.673-3.841.812-3.061.326-5.776 1.7-8.494 2.954a41.876 41.876 0 00-6.8 3.992 55.7 55.7 0 00-6.946 5.875 48.479 48.479 0 00-7.459 9.277 50.555 50.555 0 00-2.7 4.995 212.463 212.463 0 00-2.062 4.693c-.1.239-.43.544-.116.782.293.221.54-.073.735-.295 1.061-1.206 2.3-2.227 3.468-3.318a96.3 96.3 0 017.958-6.7 83.6 83.6 0 017.373-5.045c1.829-1.086 3.668-2.163 5.586-3.076a61.479 61.479 0 016.447-2.559c2.191-.754 4.465-1.069 6.688-1.635.224-.057.584-.146.64.117.075.348-.33.309-.558.408-.977.423-1.978.8-2.914 1.305-1.359.728-2.662 1.559-4 2.323a59.221 59.221 0 00-9.656 6.965 52.843 52.843 0 00-7.689 8.12 55.975 55.975 0 00-3.879 5.8c-.55.972-.425 1.439.7 1.552 1.723.173 3.409.567 5.118.823a100.317 100.317 0 0011.116 1.02 47.418 47.418 0 006.064-.106c2.412-.218 4.843-.243 7.621-.713 1.936-.246 4.1-1.146 6.351-1.673a36.335 36.335 0 006.75-2.616 37.772 37.772 0 006.14-3.712c2.392-1.7 4.667-3.562 6.881-5.488a91.732 91.732 0 0112.361-9.609 25.949 25.949 0 014.648-2.45c.517-.185.59-.521.175-.885zM52.203 99.59a41.228 41.228 0 00-6.895-8.07 51.536 51.536 0 00-7.164-5.389 16.691 16.691 0 00-3.511-1.91 2.1 2.1 0 01-1.016-.74 20.784 20.784 0 014.125 1.022 33.825 33.825 0 019.392 4.569c.244.17.49.339.7.1s.079-.556-.1-.812c-1.037-1.525-1.641-3.276-2.527-4.88-.821-1.486-1.591-3-2.4-4.5a2.58 2.58 0 00-1.294-1.139 31.815 31.815 0 00-8.771-2.567c-1.449-.188-2.889-.423-4.349-.555a35.838 35.838 0 00-6.376-.071 43.309 43.309 0 00-13.839 3.719A62.7 62.7 0 00.407 82.89c-.562.355-.537.783.044 1.1a45.491 45.491 0 016.455 4.309 91.768 91.768 0 014.867 4.148 53.443 53.443 0 008.547 6.835 34.36 34.36 0 008.678 3.629 54.362 54.362 0 005.944 1.159 60.305 60.305 0 007.07.355c1.113.037 2.237-.2 3.347-.138 2.766.152 5.412-.574 8.1-.973.516-.077.729-.421.421-.86-.637-.908-1.06-1.941-1.677-2.864z" fill="#7fc681"/></svg>