<svg viewBox="0 0 105.529 146" xmlns="http://www.w3.org/2000/svg"><g fill="#49bb8b"><path d="M53.132 130.21c-1.209-.374-2.416-.751-3.626-1.121-1.9-.582-3.8-1.166-5.709-1.737-2.122-.636-4.258-1.229-6.368-1.9q-1.111-.355-2.234-.646c-.727-.189-.857-.425-.828-1.178.042-1.092.033-2.188.011-3.281-.018-.876.013-.935.922-.932 5.1.012 10.191.172 15.289.136 5.382-.038 10.764-.009 16.146-.01h3.963c.843 0 .845 0 .845-.872 0-2.374.033-4.748-.009-7.121a63.449 63.449 0 01.474-6.457 33.64 33.64 0 01.8-4.792 53.084 53.084 0 012.086-6.7 54.123 54.123 0 014.718-9.334 77.678 77.678 0 014.841-6.912c1.957-2.511 3.948-4.995 5.884-7.521 1.274-1.662 2.546-3.333 3.7-5.081a40.907 40.907 0 004.276-8.518 35.888 35.888 0 001.783-7.155 28.172 28.172 0 00.415-6.7 49.919 49.919 0 00-1.014-7.249 43.862 43.862 0 00-2.164-6.531 34.6 34.6 0 00-3.945-7.018 30.521 30.521 0 00-5.966-6.126 44.043 44.043 0 00-5.391-3.553 42.644 42.644 0 00-5.21-2.508 54.6 54.6 0 00-9.294-2.831 52.1 52.1 0 00-5.138-.946c-1.572-.155-3.134-.438-4.727-.441-1.44 0-2.879-.19-4.318-.2a57.89 57.89 0 00-4.446.171c-1.006.072-2.012.009-3.02.154-2.091.3-4.184.551-6.265.947a58.816 58.816 0 00-6.51 1.579 50.4 50.4 0 00-7.561 2.961A39.662 39.662 0 0017.412 16a32.075 32.075 0 00-4.832 5.008 38.5 38.5 0 00-5.408 10.181 34.688 34.688 0 00-1.73 6.908 28.624 28.624 0 00-.424 6.827 53.182 53.182 0 00.988 7.13 38.494 38.494 0 003.8 9.92 41.392 41.392 0 004.033 5.952c1.034 1.278 2.011 2.609 3.018 3.913 1.23 1.593 2.479 3.171 3.692 4.776 1.053 1.393 2.1 2.795 3.093 4.231 1.2 1.736 2.367 3.5 3.419 5.331a59.829 59.829 0 012.827 5.623 43.616 43.616 0 011.867 5.012 26.79 26.79 0 011.015 4.042c.12.866.4 1.71.536 2.587q.37 2.471.541 4.959c.055.817.049.826.9.88 1.977.126 3.952-.059 5.929-.011 2.1.051 4.21.164 6.309.087 1.742-.064 3.484.145 5.224-.063a12.529 12.529 0 011.29.085c2.222-.027 4.444-.082 6.667-.1.446 0 .639-.136.613-.605-.031-.556-.007-1.114-.007-1.672q0-10.589-.01-21.178a1.732 1.732 0 01.777-1.556c1.286-.951 2.489-2.015 3.778-2.961.648-.476 1.224-1.034 1.882-1.489a.821.821 0 00.385-.782c-.006-.165 0-.33 0-.5q0-25.265.02-50.53a1.591 1.591 0 00-.909-1.554A6.538 6.538 0 0163.519 19a6.772 6.772 0 0111.746-2.709 6.327 6.327 0 011.645 4.446 6.552 6.552 0 01-3.586 5.863 1.261 1.261 0 00-.714 1.287c.013 17.483-.01 34.967.049 52.45a3.166 3.166 0 01-1.548 2.873c-1.667 1.2-3.265 2.5-4.895 3.748-.333.256-.289.614-.289.962v25.507c0 .742-.207.977-.949.98-3.261.009-6.523.04-9.784-.017-1.287-.022-2.569-.062-3.856 0-.44.021-.893-.11-1.348-.1-6.539.213-13.081.088-19.621.12-.227 0-.455.011-.681-.005-.67-.05-.858-.353-.86-1a57.781 57.781 0 00-.208-6.957 79.262 79.262 0 00-.614-4.011 33.483 33.483 0 00-1.121-4.278 52.8 52.8 0 00-3.273-7.823 50.462 50.462 0 00-3.447-5.607q-1.878-2.747-3.9-5.384c-1.21-1.579-2.51-3.084-3.809-4.592a26.724 26.724 0 01-2.743-3.806 33.125 33.125 0 00-1.894-2.722A39.112 39.112 0 015.188 64a36.93 36.93 0 01-2.062-4.407 41.835 41.835 0 01-2.2-7.287 53.945 53.945 0 01-.869-6.895 40.487 40.487 0 01.476-8.167 40.675 40.675 0 011.222-5.71 38.024 38.024 0 011.718-4.671 43.476 43.476 0 013.051-5.894 29.569 29.569 0 014.393-5.7 35.921 35.921 0 013.131-2.987c1.162-.876 2.288-1.8 3.492-2.624a45.522 45.522 0 015.525-3.213 53.223 53.223 0 018.508-3.4c1.77-.523 3.542-1.045 5.347-1.43 2.6-.557 5.242-.913 7.885-1.252a91.353 91.353 0 0112.415-.3 45.771 45.771 0 016.243.654c2.257.331 4.494.725 6.7 1.278a70.37 70.37 0 017.618 2.4 55.058 55.058 0 018.288 4.007 42.249 42.249 0 014.709 3.343 38.875 38.875 0 014.058 3.787 32.842 32.842 0 014.868 6.63 41.228 41.228 0 012.722 5.577 49.177 49.177 0 011.821 5.668c.458 1.84.666 3.713 1.026 5.563a17.968 17.968 0 01.146 1.967 37.042 37.042 0 01-.43 8.971c-.243 1.5-.473 3-.852 4.467a42.123 42.123 0 01-1.945 5.7 41.253 41.253 0 01-3.241 6.229 78.743 78.743 0 01-3.039 4.411c-1.351 1.834-2.791 3.6-4.2 5.386-1.649 2.092-3.278 4.206-4.8 6.4-1.1 1.587-2.245 3.139-3.247 4.79a56.8 56.8 0 00-3.4 6.493 43.454 43.454 0 00-1.991 5.5c-.409 1.412-.707 2.861-.976 4.316a48.757 48.757 0 00-.652 8.1c-.03 1.876-.156 3.759-.041 5.627.132 2.147-.192 4.287.032 6.429.055.531-.277.694-.782.692-3.468-.012-6.936-.037-10.4 0-3.855.044-7.71.127-11.566.127a5.645 5.645 0 00-1.7-.077c-.021.27.191.289.324.319 2.5.559 4.9 1.45 7.35 2.2 2.215.674 4.448 1.291 6.67 1.942.847.248 1.686.522 2.529.783a.794.794 0 01.576.849c0 1.321.013 2.642 0 3.963-.007.584-.247.72-.818.713-1.111-.014-2.222.044-3.333.048-3.922.015-7.844.011-11.765.038a4.755 4.755 0 00-1.628-.053 5.253 5.253 0 001.84.644c2.241.591 4.444 1.313 6.656 1.988 2.805.856 5.638 1.628 8.413 2.583a.825.825 0 01.648.9c-.017 1.135 0 2.27 0 3.406 0 1.1-.075 1.169-1.147 1.167h-3.406l-29.29-.012c-.206 0-.413 0-.619-.009-.837-.052-.883-.18-.83-1.024.067-1.069.025-2.145.033-3.219.006-.731.1-.809.826-.786 5.28.165 10.562.144 15.843.136a10.274 10.274 0 012.14.123c.049-.334-.185-.31-.311-.345-2.467-.689-4.888-1.535-7.353-2.223-2.231-.622-4.416-1.393-6.659-1.979-1.365-.356-2.692-.865-4.061-1.225a.563.563 0 01-.422-.61c0-1.362.007-2.725 0-4.087 0-.5.3-.564.692-.557 3.527.065 7.054-.082 10.582.095 2.141.107 4.292.026 6.439.03h1.027zM67.296 20.7a2.887 2.887 0 002.886 2.824 2.864 2.864 0 00-.025-5.727 2.87 2.87 0 00-2.861 2.903z"/><path d="M55.274 93.049v11.887c0 .719-.171.916-.911.93-1.052.021-2.1.011-3.157.006-.829 0-.963-.142-.963-.979 0-7.058-.016-14.116.021-21.174a1.867 1.867 0 00-.934-1.654c-1.3-.941-2.581-1.893-3.814-2.916-.394-.327-.829-.606-1.237-.917a1.95 1.95 0 01-.861-1.668q.027-20.865.027-41.73a1.278 1.278 0 00-.78-1.334 6.77 6.77 0 01-3.389-6.662 6.613 6.613 0 012.577-4.591 6.311 6.311 0 016.733-.894 6.582 6.582 0 014.191 6.628 6.212 6.212 0 01-1.946 4.333 6.734 6.734 0 01-1.977 1.424.575.575 0 00-.388.617c.026 1.42-.132 2.84-.1 4.254.245 11.944.036 23.89.09 35.834a1.432 1.432 0 00.678 1.23c1.841 1.344 3.615 2.773 5.423 4.159a1.651 1.651 0 01.733 1.453c-.017 3.921-.009 7.842-.009 11.764zM43.145 27.575c-.231 1.5 1.562 2.942 2.86 2.928a3.19 3.19 0 002.881-2.842 2.98 2.98 0 00-2.937-2.919 2.892 2.892 0 00-2.804 2.833z"/><path d="M39.971 97.715c0-2.373-.015-4.746.011-7.119a1.329 1.329 0 00-.6-1.2c-1.639-1.208-3.062-2.672-4.642-3.953-1.117-.906-2.175-1.884-3.273-2.814-.549-.465-1.089-.9-.807-1.753a1.836 1.836 0 00.012-.554q0-11.886.01-23.771a1.476 1.476 0 00-.576-1.259 11.676 11.676 0 01-2.905-3.14 6.609 6.609 0 01-.722-4.694 6.917 6.917 0 011.442-3.017 6.617 6.617 0 014.086-2.312A6.764 6.764 0 0138.84 52.4a7.226 7.226 0 01-2.667 2.477.786.786 0 00-.479.81q.012 10.245 0 20.49a18.59 18.59 0 01-.073 2.964c-.061.375.2.612.452.829 1.24 1.074 2.488 2.139 3.728 3.214q2 1.738 4 3.488c.031.027.049.073.083.091 1.232.63 1.275 1.712 1.263 2.929-.049 5.055-.02 10.111-.021 15.166 0 .856-.14 1-1.008 1.007q-1.578.012-3.157 0c-.8 0-.992-.193-.992-.977v-7.181zm-4.09-48.907a2.712 2.712 0 00-2.636-2.8 2.758 2.758 0 00-2.98 2.808 2.806 2.806 0 105.612-.008zm24.974 12.936v13.122c0 .948-.087 1.035-1.018 1.036h-3.033c-.9 0-.988-.088-.989-1 0-8.686-.012-17.372.018-26.058a1.635 1.635 0 00-.932-1.669 6.556 6.556 0 01-3.041-3.74 6.119 6.119 0 01.6-5.461 6.571 6.571 0 016.628-3.363 6.392 6.392 0 014.951 3.089 6.7 6.7 0 011.1 3.662 6.39 6.39 0 01-1.515 4.2 7.078 7.078 0 01-2.379 1.91c-.42.2-.386.587-.386.962l-.004 13.31zm-5.332-20.438a2.746 2.746 0 002.788 2.908 2.86 2.86 0 10-2.788-2.908z"/></g></svg>