<svg viewBox="0 0 148 131.017" xmlns="http://www.w3.org/2000/svg"><path d="M132.518 62.832c0 13.8.049 27.6-.025 41.395-.029 5.307-2.394 9.648-6.266 13.175a15.8 15.8 0 01-5.015 2.934 10.506 10.506 0 01-2.5.592c-.867.106-1.3.361-1.269 1.358.074 2.185.029 4.374.02 6.561a1.863 1.863 0 01-2.12 2.134q-7.333.009-14.667 0c-1.487 0-2.08-.74-2.052-2.229.044-2.308-.013-4.618-.017-6.927 0-.491-.22-.707-.7-.682-.224.012-.45 0-.675 0H50.911c-1.379 0-1.38 0-1.38 1.355 0 1.994-.019 3.989.005 5.982a2.231 2.231 0 01-2.485 2.538c-4.759-.091-9.52-.031-14.28-.034-1.587 0-2.278-.684-2.286-2.283-.012-2.251-.006-4.5 0-6.754 0-.507 0-.924-.709-1.008a13.869 13.869 0 01-5.775-2.1 17.246 17.246 0 01-6.471-7.389 18.743 18.743 0 01-1.908-8.111q0-40.285.009-80.57a18.467 18.467 0 015.853-13.978 14.426 14.426 0 019.571-4.2 28 28 0 004.205-.819c.533-.106 1.067-.218 1.606-.274 2.978-.313 5.917-.891 8.893-1.244 3.39-.4 6.776-.806 10.174-1.156C60.62.615 65.303.314 70.009.141c2.053-.076 4.109-.187 6.155-.119 4.223.142 8.447.324 12.657.727 2.387.229 4.81.231 7.16.654 2.046.368 4.117.453 6.166.786 2.131.347 4.293.634 6.441.928 1.795.246 3.588.571 5.376.892 1.685.3 3.416.472 5.093.773 4.941.887 8.5 3.846 11 8.113a17.71 17.71 0 012.479 9.217c-.045 13.573-.018 27.147-.018 40.72zm-8.049-27.844v-11.58c0-.49.037-1-.529-1.227a8.611 8.611 0 00-1.713-.6c-2.547-.424-5.092-.914-7.659-1.146-2.388-.215-4.786-.424-7.175-.563-4.256-.246-8.52-.4-12.78-.584-5.356-.235-10.727-.076-16.093-.225-6.071-.168-12.145.057-18.218.164-2.412.043-4.846-.186-7.232.066-5.108.54-10.256.247-15.354.888-1.459.184-2.954.079-4.412.264-2.37.3-4.72.758-7.085 1.1-2.049.3-2.551.83-2.551 2.878v38.121c0 .413-.061.858.377 1.123 1.036.627 2.057 1.28 3.114 1.868 2.5 1.391 5.019 2.753 7.637 3.915 1.37.608 2.741 1.223 4.144 1.748 2.061.771 4.19 1.345 6.282 2.02a76.265 76.265 0 007.664 1.979c2.613.553 5.265.967 7.931 1.29a78.58 78.58 0 009.366.7c4.111.006 8.22.068 12.332-.157 2.21-.121 4.4-.421 6.575-.712a58.952 58.952 0 007.676-1.444c1.229-.335 2.506-.5 3.723-.869 2.8-.846 5.593-1.677 8.333-2.71 2.6-.98 5.128-2.094 7.634-3.28 2.329-1.1 4.539-2.417 6.755-3.717.52-.3 1.227-.525 1.247-1.319.1-4.077-.047-8.154.121-12.236.066-1.589 0-3.236-.068-4.856-.143-3.626-.042-7.264-.042-10.899zm2.681 54.034a12.9 12.9 0 00-.58-4.833 3.792 3.792 0 00-4.134-2.957 21.655 21.655 0 00-6.013 2.384c-3.687 2.147-7.318 4.393-10.942 6.645a13.29 13.29 0 00-4.633 4.752c-1.572 2.78-.377 4.844 2.5 5.358 1.071.192 2.143.286 3.214.427a34.927 34.927 0 008.339-.162 27.263 27.263 0 007.056-1.612c1.834-.719 3.536-1.536 4.246-3.621a16.254 16.254 0 00.946-6.381zm-103.65.08a15.793 15.793 0 00.731 5.937 5.339 5.339 0 002.1 2.855 16.676 16.676 0 005.975 2.2 35.61 35.61 0 006.836.823 30.831 30.831 0 008.87-.739 2.88 2.88 0 002.286-3.5 9.55 9.55 0 00-3.458-5.11 36.3 36.3 0 00-5.921-3.836c-3.407-1.987-6.611-4.341-10.342-5.731a7.271 7.271 0 00-3.418-.757 4.212 4.212 0 00-3.466 3.914 20.443 20.443 0 00-.193 3.944zm50.591 24.385h17.658c1.259 0 1.8-.477 1.83-1.754q.056-2.652 0-5.307c-.031-1.474-.686-2.073-2.141-2.074H64.323c-2.638 0-5.275.014-7.912-.008-.788-.007-1.342.3-1.46 1.067a29.34 29.34 0 00-.077 6.9c.083.99.575 1.192 1.461 1.188 5.918-.025 11.836-.012 17.754-.012zm.022-106.03v.005H48.366c-1.113 0-1.514.385-1.531 1.485q-.028 1.735 0 3.471a1.309 1.309 0 001.479 1.47h51.494c1.035 0 1.47-.411 1.495-1.436.026-1.092.013-2.186.007-3.278-.007-1.5-.206-1.715-1.739-1.716q-12.731-.007-25.459-.001zM12.594 54.859c-.222 1.848.169 4.151.071 6.458a12.476 12.476 0 01-1.418 5.709c-1.5 2.641-3.426 2.99-5.538.532A26.342 26.342 0 01.275 57.234c-.835-3.026.325-5.118 2.232-7.126a18.781 18.781 0 015.363-4.113c2.151-1.038 3.582-.28 4.172 2.021a25.812 25.812 0 01.552 6.843zm122.67 5.277c.37-3.2-.059-6.423.249-9.615a7 7 0 011.309-4.217c.9-1.035 2.019-.9 3.155-.343a20.517 20.517 0 016.462 5.284 5.881 5.881 0 011.481 4.963 17.926 17.926 0 01-1.182 4.023 26.634 26.634 0 01-4.477 7.322c-.857.994-1.862 2.008-3.464 1.486a3.027 3.027 0 01-1.224-.874c-1.369-1.406-1.744-3.241-2.076-5.062a10.039 10.039 0 01-.233-2.967z" fill="#c64f79"/></svg>