<svg viewBox="0 0 134 88.46" xmlns="http://www.w3.org/2000/svg"><path d="M133.989 88.459h-.455c-5.068-.052-10.135-.057-15.2-.081-17.368-.082-34.736-.031-52.1-.034a.93.93 0 01-.564-.088c-1.209-.777-2.427-1.52-3.632-2.311q-2.01-1.32-4-2.707a361.266 361.266 0 01-5.245-3.711c-2.256-1.632-4.505-3.291-6.717-5.085a2.916 2.916 0 00-1.927-.751c-3.485.049-6.97.022-10.454.026-.129 0-.266-.061-.421.085.093.115.169.214.249.3 2.009 2.281 4.065 4.436 6.14 6.549 1.672 1.7 3.357 3.37 5.043 5.036.761.752 1.524 1.5 2.286 2.247.063.062.168.094.144.26s-.122.136-.2.145a1.244 1.244 0 01-.135 0q-17.317 0-34.635.007a.685.685 0 01-.582-.354c-1.136-1.664-2.289-3.3-3.373-5.06a70.053 70.053 0 01-3.9-7.271A47.416 47.416 0 01.748 65.195a31.443 31.443 0 01-.7-8.407 24.256 24.256 0 01.931-5.571 21.628 21.628 0 012.76-5.873 21.059 21.059 0 012.746-3.3 77.399 77.399 0 013.233-2.966c1.221-1.06 2.469-2.025 3.717-2.983 1.563-1.2 3.154-2.3 4.762-3.323 1.1-.7 2.183-1.45 3.29-2.1 1.548-.915 3.106-1.781 4.667-2.63s3.153-1.639 4.739-2.406a181.946 181.946 0 014.28-2.013c1.366-.617 2.74-1.193 4.111-1.775.627-.266 1.258-.5 1.887-.76.649-.265 1.294-.567 1.948-.8q1.324-.474 2.643-.982c.933-.361 1.872-.675 2.8-1.051.736-.3 1.483-.521 2.224-.78.971-.34 1.942-.688 2.914-1.026 1.213-.422 2.426-.836 3.639-1.255.632-.218 1.262-.447 1.895-.657s1.275-.377 1.906-.613c1.011-.377 2.014-.81 3.025-1.193a5.285 5.285 0 002.408-1.62 1.508 1.508 0 00-.039-2.156 8.191 8.191 0 00-3.166-2.082 40.481 40.481 0 00-5.141-1.789c-.918-.288-1.852-.474-2.781-.685-.321-.073-.634-.209-.958-.262a70.635 70.635 0 01-2.628-.5 15.761 15.761 0 00-1.659-.375c-1.016-.1-2.017-.421-3.035-.511a13.177 13.177 0 01-1.365-.243 14.853 14.853 0 00-2.166-.366 16.977 16.977 0 01-2.173-.3c-1.468-.26-2.94-.411-4.409-.591a13.093 13.093 0 00-3.154-.267c-.1.012-.234.073-.271-.251a11.416 11.416 0 011.533-.257 23.987 23.987 0 003.291-.22 21.5 21.5 0 012.42-.1c1.266-.076 2.533-.17 3.8-.156 3.282.035 6.565 0 9.847.022.626 0 1.254.087 1.881.122 1.422.081 2.843.21 4.264.316a4.439 4.439 0 01.64.024c1.076.239 2.161.294 3.241.432.657.084 1.314.181 1.968.316s1.313.165 1.965.345c.539.149 1.088.191 1.631.31a13.544 13.544 0 001.423.36 15.132 15.132 0 012.217.553c.824.216 1.643.514 2.462.783q1.462.48 2.9 1.1c.8.342 1.592.718 2.379 1.145a12.281 12.281 0 013.806 2.7 4.743 4.743 0 01.757 4.318 6.99 6.99 0 01-.777 1.816 19.791 19.791 0 01-2.484 3.231 43 43 0 01-4.884 4.458q-2.713 2.211-5.5 4.183c-2.757 1.96-5.5 3.974-8.263 5.913a138.768 138.768 0 00-6.344 4.706 33.726 33.726 0 00-6.071 5.839 7.487 7.487 0 00-1.19 2.178 3.256 3.256 0 00-.04 2.168 11.345 11.345 0 002.145 3.8 26.586 26.586 0 003.61 3.544 49.066 49.066 0 005.369 3.806 73.889 73.889 0 006.631 3.719c1 .492 1.982 1.036 2.98 1.515 1.489.714 2.988 1.375 4.478 2.088 1.47.7 2.952 1.335 4.433 1.97 1.372.589 2.745 1.168 4.118 1.748.93.393 1.865.754 2.794 1.153 1.285.552 2.588.982 3.876 1.517.617.256 1.24.459 1.855.733.87.388 1.767.6 2.637.991.679.3 1.37.507 2.049.811.882.394 1.787.642 2.679.977.7.261 1.384.578 2.081.834.914.335 1.835.61 2.747.955 1.631.617 3.262 1.234 4.9 1.8 1.245.428 2.482.917 3.726 1.363 1.439.516 2.876 1.048 4.314 1.57s2.872 1.062 4.312 1.566c1.287.45 2.567.952 3.849 1.437.674.254 1.346.526 2.02.777.937.349 1.874.689 2.812 1.028.718.259 1.428.576 2.151.805a1.73 1.73 0 01.913.415zM58.864 25.166a9.817 9.817 0 001.249.38c.339.046.657-.215.975-.374a131.623 131.623 0 004.256-2.215c1.358-.745 2.7-1.553 4.053-2.334 1.12-.648 2.221-1.382 3.318-2.133a18.944 18.944 0 004.65-4.3 19.188 19.188 0 001.462-2.405 3.073 3.073 0 00-.079-2.479 6.957 6.957 0 00-3.457-3.141 34.538 34.538 0 00-3.77-1.517 45.607 45.607 0 00-4.048-1.216c-.792-.2-1.586-.44-2.379-.584a25.216 25.216 0 00-2.728-.527c-.69-.047-1.374-.3-2.064-.374-.659-.068-1.315-.191-1.972-.287-1.237-.182-2.481-.17-3.714-.431a.787.787 0 00-.168-.012c-1.683.01-3.365-.149-5.043-.272-3.773-.278-7.544-.082-11.357-.2a1.454 1.454 0 00.8.171c.8-.007 1.6.008 2.394 0 2.054-.032 4.1.258 6.158.255a20.812 20.812 0 013.155.23c1.117.17 2.237.156 3.352.309 1.392.191 2.79.31 4.176.587 1.207.242 2.416.476 3.618.816.966.273 1.943.466 2.911.737.615.172 1.224.4 1.836.6.755.249 1.511.491 2.265.75.656.225 1.311.455 1.963.71 1.086.425 2.173.844 3.252 1.316a9.213 9.213 0 012.6 1.761 2.827 2.827 0 01.456.661 1.129 1.129 0 010 1.306 11.008 11.008 0 01-2.279 2.746 27.733 27.733 0 01-3.831 2.951c-1.622 1.06-3.275 1.975-4.94 2.841a163.944 163.944 0 01-5.138 2.535c-1.254.6-2.519 1.133-3.771 1.741-.309.15-.618.312-.988.479.99.323 1.905.661 2.827.919zM34.7 64.608c-1.042-1.019-2.074-2.064-3.073-3.2-.749-.851-1.5-1.7-2.218-2.615a30.468 30.468 0 01-2.739-4.133c-.127-.23-.254-.316-.436-.315-1.438.01-2.877 0-4.315.006-.385 0-.41.061-.241.674a26.037 26.037 0 001.208 3.424 40.624 40.624 0 002.843 5.444 65.619 65.619 0 002.725 3.989c.158.215.316.394.546.256.11-.066.245-.019.368-.019h9.006c-1.232-1.177-2.46-2.324-3.674-3.511zm-2.351-24.883c-.713-.211-1.429-.391-2.142-.6-.3-.085-.588-.209-.883-.305-.438-.143-.808.229-1.191.471a16.025 16.025 0 00-2.9 2.317 13.742 13.742 0 00-3.042 4.414 11.732 11.732 0 00-.987 4.269c-.009.289.028.388.191.359a22.974 22.974 0 013.5-.085c.292-.007.424-.057.494-.651a7.141 7.141 0 011.362-3.373 22.612 22.612 0 015.89-5.607c.315-.22.624-.467 1.013-.759-.488-.167-.894-.329-1.305-.45zm1-2.582c.973.327 1.956.565 2.929.891.527.177.968-.206 1.421-.488 1.6-1 3.208-1.969 4.83-2.871 1.392-.774 2.783-1.551 4.237-2.361-.794-.247-1.535-.474-2.275-.709a10.016 10.016 0 01-1.634-.559 1.134 1.134 0 00-1.111.166Q39 32.646 36.264 34.145a64.403 64.403 0 00-4.212 2.537 4.144 4.144 0 001.297.461zm14.967-6.72a2.26 2.26 0 01.749.262c.4.261.745.088 1.107-.091q3.019-1.495 6.037-3l1.738-.861c-.508-.183-.983-.369-1.461-.523-.841-.272-1.686-.514-2.527-.793a.566.566 0 00-.455.01c-1.2.572-2.407 1.111-3.6 1.7-1.422.7-2.837 1.432-4.256 2.148-.1.053-.211.087-.317.13a23.992 23.992 0 002.985 1.018z" fill="#f8b542"/></svg>