<svg viewBox="0 0 139.747 148" xmlns="http://www.w3.org/2000/svg"><g fill="#b38cff"><path d="M74.567 73.421c7.591 0 15.183.048 22.774-.019a5.882 5.882 0 015.543 7.715 5.729 5.729 0 01-5.711 4.045c-8.574-.013-17.148 0-25.722-.02a2 2 0 00-1.852.928c-2.15 3.03-.406 5.242 2.2 6.256 3.127 1.217 6.423 1.331 9.728 1.454 3 .112 6.005.045 9-.047 3.466-.106 6.928-.315 10.386-.7 1.969-.22 3.946-.44 5.923-.619 1.379-.125 2.23-1.05 3.146-1.848 2.883-2.511 5.494-5.311 8.259-7.946 3.673-3.5 7.22-7.126 10.808-10.712a8.145 8.145 0 013.018-2.249 5.492 5.492 0 016.47 2.211 6.774 6.774 0 01-.725 8.608c-4.32 4.43-8.613 8.886-12.939 13.311-3.455 3.535-6.82 7.171-10.347 10.628a11.047 11.047 0 01-7.974 3.561c-14.335-.1-28.67-.033-43.005-.061a2.837 2.837 0 00-2.339 1.073c-2.6 2.91-5.275 5.752-7.923 8.619-1.664 1.8-3.335 3.6-4.991 5.4-.464.507-.762.627-1.362.034-3.32-3.287-6.667-6.549-10.076-9.742-4.219-3.952-8.324-8.02-12.448-12.069-1.382-1.356-1.435-1.38-.214-2.731 2.747-3.041 5.535-6.044 8.31-9.059 3.17-3.442 6.37-6.842 9.491-10.323a23.632 23.632 0 015.736-4.412 10.257 10.257 0 015.588-1.31c7.082.061 14.165.024 21.248.024z"/><path d="M85.258 87.047c4 0 8-.008 12 0a7.249 7.249 0 003.8-.8 42.373 42.373 0 014.49-1.75 40.866 40.866 0 0018.12-15.127 38.927 38.927 0 004.609-9.7 34 34 0 001.409-5.345 34.63 34.63 0 00.493-7.665 55.543 55.543 0 00-.727-7.234 40.676 40.676 0 00-5.257-13.217 40.431 40.431 0 00-12.146-12.452 39.939 39.939 0 00-7.773-4.028 41.432 41.432 0 00-8.984-2.266 35.725 35.725 0 00-9.979-.063 45.408 45.408 0 00-8.907 2.075 39.882 39.882 0 00-10.681 5.773 38.041 38.041 0 00-7.206 7.011A40.122 40.122 0 0052.63 32.3a48.889 48.889 0 00-2.2 7.231 34.782 34.782 0 00-.738 5.193 39.483 39.483 0 00.633 10.088 36.06 36.06 0 003.9 10.957 34.934 34.934 0 003.082 5.08c.282.349.121.559-.256.649a2.244 2.244 0 01-.506.03 44.276 44.276 0 00-6.857.175c-.379.061-.585-.164-.777-.5a45.132 45.132 0 01-4.337-10.075 42.678 42.678 0 01-1.805-9.572 20.724 20.724 0 00-.315-3.419 14.843 14.843 0 01.192-3.835 44.121 44.121 0 01.971-7.192 47.246 47.246 0 0116.839-26.916 45.5 45.5 0 018.843-5.548 53.286 53.286 0 019.275-3.294A46.259 46.259 0 0191.909.034a40.008 40.008 0 019.371 1.3 59.641 59.641 0 017.639 2.55 46.059 46.059 0 019.118 5.284 47.58 47.58 0 0117.089 23.715 49.917 49.917 0 011.671 7.05 14.546 14.546 0 01.334 3.388 5.229 5.229 0 00.2 2.109c.45 1.305-.021 2.614.018 3.916a31.106 31.106 0 01-.659 6.324 43.51 43.51 0 01-3.423 11.03c-.169.36-.363.673-.768.728a7.791 7.791 0 00-4.465 2.536c-4.356 4.353-8.686 8.732-13.067 13.06-2.224 2.2-4.575 4.265-6.788 6.471a4.471 4.471 0 01-3.015 1.138c-3.789.354-7.578.717-11.373 1a120.242 120.242 0 01-13.4.181 27.251 27.251 0 01-7.443-1.225c-1.52-.489-2.191-1.108-2.074-2.209.091-.883.392-1.351 1.372-1.345 4.335.029 8.674.013 13.012.012zM17.987 98.948a1.37 1.37 0 01.651.451c4.633 4.6 9.435 9.017 14.093 13.589 4.847 4.757 9.86 9.346 14.7 14.118 1.105 1.091 1.139 1.109.114 2.258-1.674 1.878-3.394 3.714-5.083 5.579q-4.13 4.561-8.245 9.135c-1.052 1.165-2.131 2.306-3.157 3.493-.646.748-1.138.388-1.656-.116-2-1.947-3.995-3.907-6.013-5.839-3.885-3.717-7.794-7.409-11.676-11.13-2.445-2.343-4.854-4.723-7.288-7.078q-1.928-1.866-3.886-3.7c-.614-.579-.783-.993-.061-1.764 3.188-3.4 6.28-6.9 9.4-10.365q3.683-4.087 7.352-8.186a1.32 1.32 0 01.755-.445z"/><path d="M87.559 56.281c0-1.9-.053-3.8.022-5.692.039-.984-.417-1.24-1.26-1.444-3.2-.775-6.414-1.6-9.091-3.658a9.466 9.466 0 01-3.688-7.137 12.24 12.24 0 011.666-7.563 10.885 10.885 0 014.238-3.758 25.492 25.492 0 017.309-2.171c.674-.14.826-.392.81-.988-.026-.948 0-1.9 0-2.846 0-.581.26-.836.853-.889 2.744-.248 2.743-.26 2.743 2.5v.2c0 2.027.152 2.052 2.138 2.408 3.9.7 7.174 2.472 9.275 6 .413.693.79 1.409 1.15 2.131.3.608.168 1.008-.58 1.139-1.454.254-2.905.526-4.347.842-.561.123-.724-.218-.905-.58a7.9 7.9 0 00-4.518-4.364 11.631 11.631 0 00-1.782-.29c-.534-.094-.419.5-.42.839-.012 2.338-.006 4.676-.007 7.014v3.05c0 1.459.082 1.549 1.5 1.876a42.546 42.546 0 017.813 2.606 8.845 8.845 0 014.026 4.381 12.44 12.44 0 01-5.1 16.436 19.235 19.235 0 01-7.38 2.141c-.666.077-.849.342-.871.957-.075 2.127-.091 2.126-2.2 2.109-1.35-.011-1.379-.042-1.388-1.474-.009-1.464-.017-1.4-1.447-1.595a17.585 17.585 0 01-10.311-4.594 16.931 16.931 0 01-3.6-5.671c-.216-.511-.157-.939.6-1.075 1.584-.285 3.154-.662 4.718-1.047.476-.117.658.021.83.446a10.737 10.737 0 003.561 5.015 9.874 9.874 0 004.456 1.713c.822.113 1.247-.1 1.213-1.071-.073-1.964-.026-3.931-.026-5.896zm3.6.14c0 1.964.021 3.929-.011 5.893-.012.7.222.954.936.951a8.116 8.116 0 004.52-1.465 6.28 6.28 0 001.139-9.361c-1.614-1.645-3.8-2.077-5.9-2.641-.623-.167-.688.346-.686.831.008 1.931.004 3.861.004 5.792zm-3.6-20.289c0-1.762-.008-3.524.005-5.286 0-.534-.145-.86-.753-.787a10.507 10.507 0 00-4.549 1.413c-2.525 1.611-3.121 5.912-1.08 8.106 1.464 1.573 3.391 2.078 5.42 2.429.79.137.97-.087.962-.791-.018-1.695-.005-3.39-.006-5.084z"/><path d="M55.795 47.133A30.006 30.006 0 0058.327 60.5a32.409 32.409 0 006.221 9.839c.26.276.7.574.517.979-.172.377-.674.161-1.029.218a3.044 3.044 0 01-3.135-1.511 34.731 34.731 0 01-4.467-7.413 44.988 44.988 0 01-2.72-8.818 43.57 43.57 0 01-.483-9.184 27.9 27.9 0 011.043-6.359 37.151 37.151 0 013.752-9.309 36.774 36.774 0 016.663-8.433 34.228 34.228 0 016.898-5.209A40.339 40.339 0 0180 11.743a37.969 37.969 0 0110.988-1.363 36.918 36.918 0 0131.378 18.841 38.692 38.692 0 013.649 9.251 32.275 32.275 0 011.065 10.913 47.552 47.552 0 01-.695 5.118c-.336 1.671-.783 3.307-1.266 4.919A31.534 31.534 0 01122.612 65a35.866 35.866 0 01-6.048 8.188 36.916 36.916 0 01-10.523 7.536.769.769 0 01-.772.053c-.285-.184-.043-.5-.092-.731-.384-1.821 1.015-2.269 2.171-2.952a34.649 34.649 0 009.565-8.176 39.653 39.653 0 004.256-6.593 34.551 34.551 0 001.816-4.671 35.413 35.413 0 001.416-7.205 28.072 28.072 0 00-.087-7.369 36.548 36.548 0 00-1.6-6.958 30.716 30.716 0 00-2.539-5.68 36.316 36.316 0 00-5.951-7.726 33.365 33.365 0 00-9.5-6.552c-1.581-.71-3.222-1.158-4.841-1.716a22.114 22.114 0 00-4.064-1.127 43 43 0 00-8.887-.26 33.764 33.764 0 00-4.785.737 23.391 23.391 0 00-4.318 1.3 43.717 43.717 0 00-5.227 2.602 34.887 34.887 0 00-13.963 15.689 39.148 39.148 0 00-2.811 10.166 20.735 20.735 0 00-.033 3.578z"/></g></svg>