<svg viewBox="0 0 148 141.403" xmlns="http://www.w3.org/2000/svg"><path d="M36.469 72.067V57.009h-5.026v-3.578h85.128v3.515h-5.005v15.147h.769q15.666 0 31.331-.015c.67 0 .857.192.83.846-.05 1.214-.029 2.431-.007 3.647.008.445-.131.658-.595.605a4.083 4.083 0 00-.456 0H4.41c-.887 0-.887 0-.887-.889 0-1.172.02-2.345-.009-3.517-.012-.5.118-.73.655-.681a21.72 21.72 0 002.248.126c1.1-.014 2.2-.1 3.293-.147.307-.013.616.026.924.026h25.469c.104-.003.208-.016.366-.027zm7.049.025c1.7 0 3.326-.007 4.949.005.359 0 .719.117 1.076.1.9-.033 1.789-.114 2.683-.162.094-.005.19.092.291.126.707.236 1.161-.087 1.161-.829 0-2.408.038-4.817-.017-7.224a5.124 5.124 0 00-6.223-4.938 4.989 4.989 0 00-3.9 4.242c-.08 2.865-.02 5.727-.02 8.68zm60.969-.014v-8.124a4.636 4.636 0 00-1.322-3.26 4.776 4.776 0 00-5.212-1.421 4.67 4.67 0 00-2.924 2.41 6.569 6.569 0 00-.713 3.132c.028 2.192.008 4.385.008 6.578v.685zm-34.059.015c.066-1.172.158-2.255.176-3.339.013-.75-.1-1.5-.114-2.252a68.049 68.049 0 010-2.928 3.957 3.957 0 00-1.33-3.042 4.731 4.731 0 00-5.005-1.3 6.085 6.085 0 00-2.489 1.59c-1.425 1.521-1.153 3.371-1.318 5.146a17.023 17.023 0 00.119 1.752 89.83 89.83 0 01-.022 3.707c-.015.507.135.685.661.678 2.06-.026 4.121-.011 6.182-.011zm6.961 0h9.713c.461 0 .45-.292.45-.613 0-2.452.022-4.9-.017-7.357a5.516 5.516 0 00-.347-1.932 4.908 4.908 0 00-1.888-2.316 4.99 4.99 0 00-3.143-.9 5.158 5.158 0 00-2.9 1.176 4.451 4.451 0 00-1.719 3.031c-.124 1.548-.121 3.106-.145 4.661-.02 1.388-.004 2.777-.004 4.249zm-23.71 11.855c1.134 0 2.177.051 3.213-.015a8.767 8.767 0 002.755-.427 3.771 3.771 0 001.753-1.582 2.722 2.722 0 00.209-2.836h24.7a3.765 3.765 0 001.891 4.424 4.532 4.532 0 001.972.417c1.36.061 2.724.018 4.157.018v37.555c0 .883 0 .884-.914.885-1.172 0-2.345.022-3.517 0a3.7 3.7 0 00-3.769 3.837 6.093 6.093 0 00.19.946 3.344 3.344 0 01-1.042-.035c-.133-.045-.184-.48-.189-.739-.027-1.539-.021-3.079-.044-4.618-.015-1.02-.091-2.04-.085-3.06s.108-2.031.116-3.047c.018-2.518.026-5.036 0-7.554a11.29 11.29 0 00-1.349-5.571A9.971 9.971 0 0080.19 98.8a22.07 22.07 0 00-2.83-1.479 11.76 11.76 0 00-2.242-.43c-.022 5.048-.053 10.1-.064 15.143s0 10.072 0 15.143h-2.126V96.881a11.282 11.282 0 00-5.5 2.146 11.532 11.532 0 00-3.08 3.412 8.732 8.732 0 00-1.283 4.272c-.061 6.525-.095 13.051-.137 19.577-.006.991-.207 1.126-1.252.778a3.07 3.07 0 00-.329-2.866 3.49 3.49 0 00-3.338-1.823c-1.194.01-2.388-.008-3.582.007-.517.006-.763-.127-.763-.729q.025-18.56.012-37.12zm47.286-32.446H47.043c0-1-.066-1.99.019-2.971a20.855 20.855 0 01.5-2.755 30.252 30.252 0 011.759-5.291 22.188 22.188 0 012.924-5.025 37.66 37.66 0 013.964-4.258 22.411 22.411 0 013.8-2.844 38.174 38.174 0 014.705-2.24 20.738 20.738 0 013.408-1.087 30.8 30.8 0 013.478-.483 16.22 16.22 0 012.318-.126 44.984 44.984 0 015.044.456 24.363 24.363 0 017.292 2.456 19.2 19.2 0 015.439 3.747c1.058 1.1 2.21 2.122 3.227 3.262a23.2 23.2 0 013.559 5.612 22.476 22.476 0 011.3 3.583 50.763 50.763 0 011.153 5.056 17.816 17.816 0 01.033 2.908zm6.021 32.443h2.385a7.524 7.524 0 003.741-.522c1.76-.959 2.188-2.376 1.833-4.426h.65c7.4 0 14.8.009 22.206-.015.667 0 .832.19.831.843q-.027 23.28 0 46.561c0 .672-.2.829-.847.828-7.38-.022-14.76-.014-22.141-.014h-.718a3.787 3.787 0 00-1.742-4.361 3.65 3.65 0 00-1.691-.44c-1.3-.063-2.6-.037-3.906-.011-.483.01-.638-.151-.64-.635 0-.99-.105-1.98-.113-2.971q-.027-3.654 0-7.307c.005-.773.116-1.546.115-2.319 0-.86-.115-1.72-.111-2.58 0-1.08.116-2.161.111-3.241-.008-1.6-.09-3.2-.117-4.8-.021-1.264 0-2.529 0-3.794 0-2.5-.015-5 .007-7.5.009-1.081.093-2.155.147-3.296zm23.662 5.672H122.2v9.671c0 1.727 0 1.737 1.738 1.722.791-.007 1.582-.083 2.373-.092 1.436-.016 2.872 0 4.333 0zm-11.739 11.308V89.663c-1.317 0-2.6.015-3.876 0s-2.558-.049-3.835-.119c-.584-.032-.735.177-.731.741.025 2.907 0 5.813.017 8.72 0 .614.08 1.227.128 1.925zm-8.354 4.345v11.312h8.351V105.27zm20.092 0h-8.386v11.312h8.386zM41.171 83.902v7.689c0 .808.017 1.616 0 2.423-.025.969-.123 1.937-.117 2.9.011 1.685.1 3.369.113 5.054.007.816-.108 1.632-.111 2.449 0 .686.116 1.372.11 2.058-.009 1.077-.119 2.154-.112 3.23.012 1.967.085 3.933.118 5.9.017 1.025.02 2.05 0 3.074-.023 1.077-.1 2.154-.119 3.231-.009.452-.273.465-.6.463-1.215-.006-2.431 0-3.647 0-2.188-.008-3.143 1.07-3.776 2.817a6.452 6.452 0 00-.032 2h-.6q-11.1 0-22.2.012c-.615 0-.813-.152-.812-.794q.026-23.312 0-46.624c0-.618.156-.812.8-.811q11.135.032 22.27.014h.613a4.249 4.249 0 00.622 3.415 3.881 3.881 0 003.014 1.469c1.395.105 2.816.031 4.466.031zm-12.1 17.11h7.549c.9 0 .9 0 .9-.872v-9.628c0-.961 0-.963-.992-.964h-7.454zm-11.715 0c2.61 0 5.165-.016 7.72.012.577.006.737-.172.733-.74-.024-3.34-.011-6.679-.013-10.019 0-.206-.017-.412-.028-.654h-8.41zm11.731 15.57h8.378v-11.3h-8.378zm-3.341-11.286h-8.363v11.286h8.363zM148 136.365c0 1.565.01 3.083-.018 4.6a.548.548 0 01-.4.359c-1.417 0-145.747.027-147.019.078-.366.015-.568-.084-.564-.5.014-1.5.006-2.992.006-4.534zM3.549 134.268v-4.947h140.893v4.947zM92.762 3.544v5.407c0 1.259-.021 2.519.011 3.778a.75.75 0 01-.569.82 11.9 11.9 0 01-4.6.49 20.372 20.372 0 01-4.484-1.145 9.184 9.184 0 00-2.242-.447c-1.543-.068-3.092-.038-4.638-.009a.641.641 0 00-.682.734c.021 1.693-.006 3.387.014 5.08.009.817.133 1.635.1 2.449a2.248 2.248 0 01-.4 1.286 1.6 1.6 0 01-2.652-.085 1.8 1.8 0 01-.294-.946c-.043-.692-.012-1.389-.012-2.083 0-2.22-.017-4.439 0-6.659.018-1.989.087-3.978.113-5.967.02-1.52.007-3.04.009-4.559A1.635 1.635 0 0173.55.052a1.669 1.669 0 011.867.795 2.748 2.748 0 01.144 1.063c.025.432-.024.667.652.535 1.836-.36 3.7-.788 5.583-.191 1.21.384 2.4.846 3.632 1.137 1.427.337 2.832.9 4.364.586.95-.194 1.92-.284 2.97-.433z" fill="#95bd58"/></svg>