<svg viewBox="0 0 144.502 47.694" xmlns="http://www.w3.org/2000/svg"><g fill="#c3c561"><path d="M141.811 40.905l-39.913-22.939c5.719-.588 20.387-2.11 24.716-2.69a1 1 0 00.122-1.96l-19.833-5.283a1.656 1.656 0 00-1.5.337l-.037.031-10.833 5.332-7.129-4.1-2.751 1.168L72.009.872a4.277 4.277 0 00-4.5-.472c-.416.169-2.426 1-5.5 2.257-15.49 6.362-56.636 23.265-58.846 24-.813.271-3.443 1.271-3.147 2.754.187.936 1.338 1.364 3.843 1.364.717 0 1.544-.035 2.492-.1 6.374-.46 33.143-4.082 44.906-5.694l-15.613 6.634a1.477 1.477 0 00-.889 1.631c.1.593.695 2 4.048 2.225 33.508 2.284 75.018 8.683 88.659 10.786 2.021.312 3.434.528 4.121.626l.607.085a55.684 55.684 0 007.223.727c2.5 0 4.358-.517 4.9-2.151.836-2.503-1.326-4.156-2.502-4.639zm-17.946-26.8c-7.132.836-22.11 2.369-24.193 2.582l-1.059-.608 7.581-6.412.355-.174zM100.64 12.4l-3.41 2.884-1.13-.65zm-36.053 6.924l-41.145 4.614L69.437 4.825l10.772 7.866zM6.25 29.18a14.624 14.624 0 01-4.563-.108 6.36 6.36 0 011.959-.989c2.257-.751 43.441-17.667 58.941-24.036l5.493-2.255a2.834 2.834 0 012.961.227l12.036 9.453-2.331.99-11.242-8.208-49.5 20.572 42.98-4.82-6.439 2.734c-2.284.317-42.345 5.867-50.295 6.44zm136.642 15.892c-.6 1.813-6.086 1.037-10.493.414l-.608-.086c-.685-.1-2.09-.312-4.1-.622-13.657-2.106-55.215-8.516-88.787-10.806-1.875-.128-2.452-.66-2.584-.82a1.043 1.043 0 01-.1-.154h.007L85.672 12l.328-.139 1.3-.554 8.71 5 3.33 1.915 41.8 24.019c.102.046 2.353 1.025 1.752 2.831z"/><path d="M86.955 14.304L49.229 30.16l83.408 10.465-45.575-26.259zm-35.81 15.592l35.774-15.035 43.318 24.959zm50.003-14.168l16.224-1.86-10.367-3.306zm13.853-2.091l-12.329 1.413 4.451-3.926z"/></g></svg>