<svg viewBox="0 0 136.363 147.968" xmlns="http://www.w3.org/2000/svg"><path d="M30.769 87.644c0-.961 0-.959-.955-.957-2.995.006-5.99.021-8.985.007-.813 0-1.625-.1-2.442-.11s-1.3-1.32-.907-2.211a5.609 5.609 0 011.6-1.818c1.136-1.032 46.8-46.815 56.062-56.114 1.295-1.3 2.323-1.093 3.449.131.784.853 55.583 55.57 56.413 56.4.247.247.5.5.742.739a1.6 1.6 0 01.489 1.858 1.815 1.815 0 01-1.854 1.131c-.856-.01-1.711-.017-2.567-.016-2.734 0-5.469.025-8.2 0-.553 0-.678.174-.678.7.014 11.831.013 54.179.011 58.476a2.011 2.011 0 01-2.09 2.094c-5.5.01-84.638.017-88.354.015a1.785 1.785 0 01-1.733-1.782c.011-2.959-.001-48.832-.001-58.543zM76.81 122.68c3.628 0 7.256-.036 10.883.017a5.908 5.908 0 004.162-1.4 4.024 4.024 0 001.533-3.021c.008-5.619-.021-11.237.021-16.856a4.5 4.5 0 00-1.528-3.314 5.084 5.084 0 00-3.658-1.353q-11.107-.016-22.214-.006a8.536 8.536 0 00-1.876.178 4.743 4.743 0 00-3.822 3.632 11.679 11.679 0 00-.2 3.16q-.013 6.974 0 13.948a4.828 4.828 0 00.662 2.387 5.058 5.058 0 004.6 2.617c3.808.038 7.623.011 11.437.011zM27.486 70.405a1.1 1.1 0 01-.829-.4c-1.214-1.205-2.432-2.407-3.629-3.63-.725-.741-.7-1.255.04-2 4.35-4.355 36.711-36.716 41.211-41.2.8-.8 1.346-.8 2.14-.019 1.122 1.109 2.26 2.2 3.34 3.354.872.927.85 1.282-.046 2.229-1.712 1.805-40.407 40.472-41.375 41.308a1.329 1.329 0 01-.852.358zm-5.335-55.468a7.082 7.082 0 01-3.391 6.137 6.721 6.721 0 01-5.985.877 7.405 7.405 0 01-3.91-2.81 10.217 10.217 0 01-1.084-2.176 6.49 6.49 0 01-.161-2.15 5.937 5.937 0 01.661-3.215 8.564 8.564 0 011.726-2.188 7.893 7.893 0 014.274-1.878 6.016 6.016 0 012.734.356 6.8 6.8 0 012.917 1.742A7.305 7.305 0 0121.85 12.8a6.32 6.32 0 01.301 2.137zm34.481 5.376c0 .605-.008 1.052 0 1.5.008.314-.091.479-.441.484-1.543.022-3.078-.1-4.616-.2a.307.307 0 01-.321-.239c-.059-.19.078-.264.21-.34a1.393 1.393 0 00.352-.262c.358-.39.288-.649-.1-1.02-1.322-1.269-2.6-2.585-3.876-3.9-.22-.226-.7-.323-.6-.711.071-.269.39-.477.611-.7.611-.621 1.233-1.233 1.842-1.856.216-.221.42-.3.663-.053q1.469 1.494 2.94 2.987c.5.51 1.007 1.02 1.525 1.515.291.278.674.156 1-.3.115-.162.171-.4.449-.312.258.077.259.294.248.5-.057 1.029.217 2.04.114 2.907zM28.773 48.087a27.428 27.428 0 01-2.995-.2c-.292-.009-.353-.184-.211-.415a1.633 1.633 0 01.517-.5c.3-.2.377-.363.036-.675-.825-.754-1.593-1.572-2.382-2.366-.725-.73-1.435-1.475-2.178-2.186-.2-.194-.221-.275-.019-.473.767-.755 1.513-1.53 2.269-2.3a.471.471 0 01.781-.009c.8.818 1.631 1.609 2.441 2.419.7.7 1.4 1.42 2.095 2.133.164.168.3.094.425-.04.152-.161.29-.337.451-.489.111-.105.2-.309.408-.2a.406.406 0 01.182.386c-.005 1.45.328 2.878.262 4.333-.019.413-.116.619-.579.585-.495-.032-1.002-.003-1.503-.003zm19.153-19.958c.046.669-.058 1.467.064 2.266.057.372-.1.638-.572.6-1.479-.123-2.961-.224-4.441-.333-.132-.01-.272-.019-.318-.171-.039-.13.073-.19.15-.271.834-.866.825-.859-.016-1.686-1.269-1.25-2.52-2.519-3.791-3.767-.346-.34-.4-.614-.018-.974.69-.648 1.35-1.328 2.016-2 .329-.333.588-.328.926.037.57.618 1.209 1.172 1.8 1.77a85.35 85.35 0 012.254 2.329c.456.494.687.52 1.09-.02.17-.228.351-.4.646-.313s.2.367.2.57c.02.609.01 1.223.01 1.963zM22.105 54c.067.684-.009 1.37.123 2.055.093.484-.133.736-.6.708-1.481-.09-2.952-.309-4.439-.322-.272 0-.38-.138-.2-.4a1.543 1.543 0 01.132-.179c.642-.691.644-.693-.015-1.351q-1.912-1.903-3.825-3.811c-.548-.549-.549-.577 0-1.146.655-.683 1.326-1.35 1.981-2.032.2-.2.328-.269.59-.041.706.615 1.333 1.3 1.985 1.971.534.547 1.108 1.055 1.656 1.588a10.889 10.889 0 01.95.988c.226.284.375.237.563 0 .233-.3.428-.763.871-.64.419.116.166.594.209.893A12.158 12.158 0 0122.105 54zm15.866-14.514a31.551 31.551 0 00-3.416-.118c-.165 0-.351.021-.444-.16s.057-.307.16-.434c.023-.029.051-.054.074-.083.6-.733.626-.761-.023-1.438-.748-.78-1.564-1.494-2.332-2.255-.625-.619-1.223-1.267-1.834-1.9-.178-.185-.16-.335.028-.518.758-.739 1.5-1.491 2.253-2.238.321-.32.556-.187.837.1q2.052 2.1 4.14 4.167c.479.477.646.458 1.047-.074a.928.928 0 01.321-.3c.24-.122.394-.086.43.205a1.493 1.493 0 01.008.223 35.9 35.9 0 00.219 4.11c.056.655-.028.731-.7.71-.229-.003-.452.003-.768.003zM19.124 3.76v2.7c0 .278-.08.539-.421.332a9.636 9.636 0 00-3.071-.892c-.536-.119-.533-.163-.238-.621.579-.9 1.114-1.823 1.675-2.732.34-.551.685-1.1 1.046-1.635a1.055 1.055 0 00.273-.529c.022-.332.329-.366.534-.342.239.028.143.27.136.457-.039 1.149.152 2.296.066 3.262zm0 22.129c.157 1.039-.2 2.313-.035 3.592.018.14-.045.3-.181.3a.493.493 0 01-.5-.282 32.442 32.442 0 00-1.827-3.059c-.39-.709-.847-1.381-1.285-2.063-.167-.261-.122-.427.184-.474a8.427 8.427 0 003.283-.933c.324-.2.361.106.362.338.002.781-.001 1.561-.001 2.581zm6.687-.247c-.049.249-.133.339-.351.213-.83-.479-1.638-1.008-2.5-1.409a29.8 29.8 0 00-2.963-1.5.337.337 0 01-.258-.321.313.313 0 01.149-.336 7.217 7.217 0 002.343-2.21c.282-.33.421-.366.626.025q.8 1.53 1.62 3.051c.364.678.741 1.349 1.11 2.026.083.157.157.324.224.461zm-21.716.293c-.209-.028-.317-.081-.231-.327a5.369 5.369 0 01.472-.808c.883-1.6 1.638-3.264 2.626-4.8.171-.266.277-.25.437-.015a8.151 8.151 0 002.282 2.281c.3.192.2.527-.118.69q-.983.495-1.943 1.035c-1.125.633-2.3 1.178-3.378 1.894a.555.555 0 01-.147.05zM25.79 4.167a1.6 1.6 0 01-.091.259c-.577 1.047-1.164 2.088-1.737 3.137q-.565 1.035-1.1 2.086c-.184.363-.326.454-.617.071a15.956 15.956 0 00-1.891-2.006c-.2-.19-.7-.1-.6-.589.083-.436.51-.3.764-.44 1.611-.906 3.244-1.775 4.863-2.668.223-.126.368-.187.409.15zM10.712 27.943l-.219-4.439c-.01-.2-.066-.417.161-.547s.33.066.488.149a9.109 9.109 0 002.808.775c.52.088.612.205.333.674-.461.773-.952 1.528-1.423 2.3-.491.8-.973 1.6-1.461 2.405a3.116 3.116 0 01-.254.364c-.079.1-.161.228-.316.162s-.147-.2-.147-.334v-1.5zM10.681 1.89V.383c0-.146-.016-.324.167-.374s.255.118.33.241c.748 1.212 1.492 2.426 2.241 3.637.28.452.575.895.855 1.347.215.347.256.558-.281.679a9.333 9.333 0 00-3.065.9c-.33.205-.457-.137-.439-.468.08-1.484.152-2.968.227-4.452zm-.824 5.337a.32.32 0 01-.176.316 8.448 8.448 0 00-2.265 2.229c-.19.267-.276.258-.475 0a20.326 20.326 0 01-1.2-2.116c-.614-1.044-1.164-2.127-1.73-3.2-.079-.15-.258-.336-.108-.492.121-.126.3-.01.454.081 1.134.69 2.33 1.27 3.486 1.922a6.024 6.024 0 001.763.873c.186.034.233.212.251.387zM5.745 19.24q-2.7-.149-5.39-.3c-.122-.007-.291.031-.324-.138s.127-.208.234-.273c1.68-1.031 3.368-2.049 5.037-3.1.412-.259.472-.037.533.276a10.929 10.929 0 00.85 2.953c.2.385.056.593-.384.61-.185.007-.372 0-.557 0zm18.355.011c-1.272.034-1.317-.046-.906-1.024a4.851 4.851 0 00.555-2.35c-.053-.581.159-.7.7-.407.617.33 1.213.7 1.8 1.081 1.059.681 2.093 1.4 3.213 1.984.123.064.247.12.222.275s-.174.158-.308.158c-1.832-.009-3.658.184-5.276.283zM4.437 10.675c.63-.045 1.259-.1 1.889-.135.358-.022.522.238.349.6a11.461 11.461 0 00-.841 2.966c-.06.333-.107.567-.561.276-1.551-.993-3.138-1.929-4.7-2.9-.219-.136-.636-.22-.565-.514.067-.275.456-.125.7-.128 1.244-.014 2.488-.007 3.732-.007zm19.033-.118c1.962.087 3.915.32 5.881.245.137-.005.281 0 .321.149s-.091.21-.208.282q-2.51 1.546-5.014 3.1c-.529.327-.748.239-.7-.345a5.388 5.388 0 00-.542-2.41c-.066-.171-.107-.352-.169-.525-.158-.429.062-.535.431-.496z" fill="#b67cdc"/></svg>