<svg viewBox="0 0 148.228 137.223" xmlns="http://www.w3.org/2000/svg"><g fill="#41834f"><path d="M66.118 137.14H2.263c-.808 0-1.861.321-2.126-.539a7.94 7.94 0 01-.007-2.01v-2.6c0-.874-.454-3.314.327-3.806.624-.393 1.4.387 1.83-.44a5.772 5.772 0 00.031-1.964v-63.72c0-1.329-.457-3.472.431-4.574a20.772 20.772 0 013.439-2.706q2.007-1.563 4.009-3.133c.632-.494 1.254-1.007 1.9-1.484.484-.358.606-.642.845-.064a6.458 6.458 0 01-.022 1.9v74.796c0 .957-.179 1.378.887 1.388.788.007 1.223.045 1.428-.741a18.375 18.375 0 00.02-4.193v-9.904c0-1.221-.416-2.441.885-2.866a68.61 68.61 0 018.867-2.122c1.273-.236 2.132-.885 2.169.767.038 1.72 0 3.446 0 5.167v10.141c0 .721-.4 2.957.09 3.565.307.379 2.515.377 2.934.17.725-.357.3-2.981.3-3.719v-5.071c0-3.356.036-6.714 0-10.07-.016-1.446-.308-2.024 1.468-2.155 1.506-.111 3-.3 4.5-.423 3.18-.27 6.4-.52 9.59-.6.777-.019 1.555-.01 2.332 0 .533.006 1.623-.225 2.075.019.878.474.393 3.256.393 4.246v14.841c0 .726-.063 1.476 0 2.2.061.692-.011.574.591.748a8.176 8.176 0 002 0c.571-.013.614.033.859-.4a8.5 8.5 0 000-2.467v-3.015q-.006-4.934-.006-9.867v-4.934c0-1.467.2-1.365 1.657-1.351 3.175.03 6.318.22 9.488.334a38.017 38.017 0 014.47.342c.783.122 1.55.194 2.339.252.51.037 1.68-.046 2.082.291.7.587.323 2.22.323 3.081v15.305c0 .972-.41 2.182.612 2.431.864.211 2.633.343 2.83-.668a27.066 27.066 0 00-.012-4.844v-12.352c0-.428-.237-1.834.1-2.17.533-.536 2.8.311 3.513.444 1.579.293 3.124.7 4.675 1.117.9.24 3.085.439 3.569 1.335a5 5 0 01.064 2v3q-.006 5.054-.018 10.107c0 .449-.237 1.541.024 1.878s1.2.15 1.553.15c.411 0 1.34.225 1.619-.189.325-.483.039-1.782.039-2.35V95.088c0-13.519-.246-27.063 0-40.579.024-1.321.547-.814 1.636-.459 1.623.53 3.236 1.08 4.85 1.634 2.93 1 5.849 2.035 8.779 3.042 2.982 1.025 5.994 1.963 8.975 2.988 2.849.979 5.828 1.786 8.616 2.92 5.386 2.191 11.038 3.646 16.508 5.658.834.307 2.925.527 3.313 1.384a8.007 8.007 0 01.028 2.454v43.463c0 1.628-.16 3.265-.081 4.887.08 1.65-.139 3.421.068 5.05.177 1.4 1.685 0 2.18.969a7.384 7.384 0 01.02 2.282v2.686c0 1.017.5 3.36-.557 3.679a8.292 8.292 0 01-2.153-.005h-2.691c-6.65.024-13.31-.16-19.955-.084-13.14.151-26.281.1-39.422.07-5.751-.016-11.49-.024-17.225.013zm47.686-35.2c-.965 0-2.037-.179-2.823.5a2.234 2.234 0 00-.681 2.436c.73 2.266 3.693 2.2 5.645 2.228 2.813.039 5.6.13 8.416.265 1.3.063 2.671-.05 3.962.1 1.072.123 2.172.5 3.155-.182.881-.614.952-1.865 1.221-2.828.354-1.267.586-2.567.889-3.847.6-2.556 1.13-5.122 1.744-7.667.159-.658.266-2.509.861-2.86.873-.515 2.441.43 3.4.331 2.756-.285 1.272-3.67-.628-4.157-1.07-.275-2.263-.373-3.356-.587-.993-.194-2.244-.476-2.926.494-.565.8-.207 2.387-.9 3.1-.655.673-2.616-.061-3.481-.23-2.691-.526-5.477-.659-8.181-1.143-2.643-.473-5.31-.868-7.973-1.23-1.357-.185-2.7-.447-4.056-.642-1.254-.18-2.882-.717-4.137-.519-2.951.465-1.592 3.553-.808 5.216 1.048 2.224 1.933 4.617 3.157 6.75 1.286 2.242 4.069 1.786 6.292 2 2.669.261 5.344.494 8.026.683 1.387.1 2.79.419 4.175.431a23.312 23.312 0 012.608.066c.354.042 1.239-.006 1.474.31.26.349-.129 1.323-.313 1.6-.353.53-.554.447-1.246.41-1.478-.08-2.91-.346-4.4-.359-3.024-.028-6.118-.861-9.121-.665zm5.4 10.293c.15-3.8-6.2-4.284-6.359-.351-.166 4.049 6.591 4.281 6.356.356zm9.429.206c-.08-3.381-5.154-4.221-5.58-.632-.453 3.811 5.494 4.554 5.578.637zM81.78 21.849v6.079c0 .3.2 1.518 0 1.8-.352.495-1.778-.6-2.245-.83a61.05 61.05 0 00-3.769-1.686 54.066 54.066 0 00-14.7-3.533c-10.776-1.1-21.883-.238-32.045 3.675a33.211 33.211 0 00-3.542 1.663c-.815.429-1.924 1.5-2.106.217a32.481 32.481 0 010-4.385v-4.385c0-2.71-.422-5.834.707-8.373a14.64 14.64 0 014.921-5.7c4.164-3.01 9.107-4.492 14.071-5.51a48.022 48.022 0 018.393-.869c1.3-.031 2.6 0 3.9.049 1.5.053 2.956.391 4.441.489a33.213 33.213 0 0116.198 5.631 14.3 14.3 0 015.376 6.442 11.666 11.666 0 01.391 4.177c-.011 1.681.009 3.366.009 5.049zm-43.418-6.982c0 .715-.39 3.181.218 3.651.8.621 1.839-.508 1.994-1.182a28.129 28.129 0 00.124-4.347c.052-.916.614-3.7-.066-4.408-.589-.616-2.872.212-3.392.673-.74.656-.981 2.407-1.29 3.319-.216.636-.432 1.272-.639 1.91a8.474 8.474 0 01-.622 2.032c-.354.443-.311.473-.695-.082a10.254 10.254 0 01-.766-2.23c-.326-.941-.476-2.872-1.74-2.64a4.2 4.2 0 00-2.9 2.226c-.429 1.335-.072 3.216-.129 4.617-.03.736-.686 3.98-.1 4.4.834.6 1.831-.971 1.982-1.613.348-1.48.012-3.288.139-4.813a7.608 7.608 0 01.187-2.029c.481-.415.425.427.508.641.531 1.37.884 2.792 1.383 4.173.213.588.321 1.394 1.058 1.413a2.7 2.7 0 001.5-.8c.928-.952 1.173-2.844 1.574-4.073.252-.772.524-1.538.765-2.314.122-.393.269-1.744.567-2 .645-.549.375.553.349.935-.053.85.055 1.697-.009 2.541zm10.831-8.3c-1.766-.281-2.5 1.952-3.081 3.2-.771 1.645-1.623 3.249-2.416 4.883-.222.458-1.13 1.758-1.026 2.3.159.831 1.2.795 1.752.405.678-.479.859-1.425 1.275-2.1.563-.912 1.159-.822 2.2-.891.954-.063 1.9-.132 2.856-.223 1.132-.109 1.256.416 1.787 1.336.372.645.785 1.273 1.612 1.246.706-.023 1.116-.44 1-1.115a9.956 9.956 0 00-1.3-2.584c-.505-.929-1.022-1.851-1.524-2.782-.599-1.115-1.486-3.953-3.136-3.673zm10.8 4.865c0-1.185.511-3.577-.5-4.451-1.219-1.059-2.03.069-2.057 1.255-.047 2.036.009 4.077 0 6.113s.654 2.544 2.7 2.652a25.957 25.957 0 015.467 1.1c.485.136 1.45.464 1.439-.435-.008-.63-1.1-.95-1.523-1.08-.842-.262-1.725-.368-2.58-.58-.725-.18-1.552-.116-2.246-.343-1.312-.428-.699-3.135-.699-4.229zm8.958 4.278c0 1.42-.311 2.968 1.149 3.731 1.557.814 3.343 1.254 4.932 2.035.508.25 3.618 2.21 2.741.4-.607-1.251-3-1.981-4.153-2.5-.56-.251-1.811-.473-2.145-1.034a6.476 6.476 0 01-.154-2.434c-.035-.963-.074-1.927-.1-2.891a8.077 8.077 0 00-.145-2.587c-.455-1.166-2.09-1.844-2.4-.283-.341 1.726.373 3.794.276 5.565z"/><path d="M54.296 90.081v-9.96c0-.692-.318-2.149.319-2.562.292-.189 1.3-.032 1.633-.034.839 0 1.679-.015 2.518.016 2.923.106 5.9.479 8.8.85 1.494.191 3.061.406 4.537.7a12.641 12.641 0 011.9.426c.731.288.64.4.655 1.287.108 6.5 0 13.007 0 19.506 0 .694.4 3.074-.133 3.548-.26.233-1 .01-1.288-.024-.823-.1-1.651-.142-2.473-.245-2.867-.36-5.747-.46-8.638-.683a86.227 86.227 0 00-5.207-.27 7.007 7.007 0 01-2.262-.055c-.465-.221-.352-.529-.36-1.049-.059-3.816-.001-7.637-.001-11.451zm-3.435.022v9.638c0 .85.42 2.506-.426 2.859a7 7 0 01-1.877.008c-.871.021-1.742.069-2.612.122-3.207.194-6.419.316-9.621.582-1.455.121-2.876.368-4.319.556-.382.05-1.289.276-1.576-.172-.15-.234.072-1.226.075-1.5.068-5.955.024-11.766 0-17.72 0-.78-.024-1.558-.012-2.337a9.163 9.163 0 01-.045-2c.2-.69.362-.574 1.133-.7.755-.119 1.474-.384 2.232-.487 2.985-.4 5.941-.656 8.932-.974 1.747-.186 3.459-.4 5.219-.433a7.934 7.934 0 012.519 0c.569.263.378.9.378 1.485q-.004 5.539 0 11.073zm0-28.197v9.965c0 .859.3 1.827-.5 2.173a5.347 5.347 0 01-1.573.029c-.965.037-1.929.1-2.893.159-3.084.179-6.1.421-9.175.747-1.438.152-2.964.419-4.384.677-1.511.275-1.9.669-1.861-1.122.119-6.3.047-12.616.026-18.916 0-.681-.338-2.4.126-3.007.578-.754 2.781-.805 3.643-.988 3.049-.647 6.1-.9 9.174-1.326a39.274 39.274 0 015.218-.4c1.011-.007 2.021-.367 2.2.771a38.035 38.035 0 010 5.509l-.001 5.729zm23.792 2.369v9.317c0 .914.433 2.411-.765 2.338a41.306 41.306 0 01-4.421-.811 60.794 60.794 0 00-8.945-.8c-1.459-.035-2.928-.14-4.384-.245-1.634-.119-1.891-.037-1.844-1.8.163-6.162.018-12.351.015-18.519q0-1.089-.009-2.177c0-.322-.148-1.28.085-1.562.468-.564 3.368-.116 4.061-.072a76.512 76.512 0 018.363.948c1.7.3 3.382.588 5.073.944a10.266 10.266 0 012.131.514c.673.31.621.479.638 1.211.081 3.567.002 7.145.002 10.714zM50.861 36.57c0 2.837.005 5.673 0 8.51 0 1.232-.052 1.244-1.284 1.3-1.388.064-2.773.171-4.16.255-2.672.162-5.3.47-7.945.889-1.265.2-2.521.452-3.777.7-.674.132-2.78.979-3.223.351-.221-.313.011-1.478.021-1.863q.024-.924.024-1.849c0-1.374-.086-2.729-.02-4.1.136-2.821.017-5.686 0-8.51-.005-1.138-.262-1.721.9-2.106 1.349-.448 2.7-.88 4.067-1.269a56.445 56.445 0 017.736-1.559 33 33 0 014.487-.44c.691 0 2.759-.448 3.129.131.269.419.045 1.544.045 2.024v7.536zm3.447-.054c0-2.764.007-5.528 0-8.292-.005-1.26-.021-1.488 1.231-1.415 1.389.081 2.783-.019 4.168.135a79.111 79.111 0 017.916 1.4c1.191.256 2.335.611 3.5.947.912.263 2.97.5 3.479 1.363.443.751.052 2.732.052 3.624v12.825c0 .829.253 1.407-.526 1.6-1.086.266-2.815-.53-3.889-.743a71.941 71.941 0 00-7.888-1.147c-1.594-.133-3.2-.153-4.789-.29-.823-.07-2.893.218-3.249-.526a5.881 5.881 0 01-.02-1.942V36.52zm35.695 59.656v7.431c0 .591.347 2.709-.035 3.21-.4.521-1.327-.053-1.888-.2a133.836 133.836 0 00-6.993-1.672c-.633-.135-2.492-.085-2.9-.609-.505-.641-.1-2.747-.1-3.566V85.342c0-1.276-.075-2.582 0-3.856.068-1.148.433-.916 1.409-.633a59.033 59.033 0 016.417 2.275 17.658 17.658 0 013.363 1.68c.974.7.734 1.734.73 2.828-.01 2.845-.004 5.689-.003 8.536zm-74.744-.191V88.51c0-.808-.331-2.5.1-3.2.471-.766 2.1-1.272 2.873-1.649a48.959 48.959 0 016.638-2.617c.5-.158 1.832-.66 2.214-.29.454.441.116 3.15.117 3.773.015 4.878-.007 9.736-.015 14.61 0 1.261-.017 2.523-.014 3.784 0 .85.181 1.289-.585 1.614a17.07 17.07 0 01-3.339.6c-1.2.206-2.381.525-3.577.756-1.113.215-2.2.588-3.315.849-.631.148-.835.437-1.079-.2a5.92 5.92 0 01-.015-1.744q-.004-4.409-.003-8.815zm11.919-30.756v7.795c0 .922.343 2.661-.06 3.489-.291.6-1.667.8-2.3.981a67.144 67.144 0 00-6.5 2.26c-.595.241-2.007 1.311-2.616 1.281-.681-.034-.437-.955-.437-1.553-.006-5.144 0-10.289 0-15.433a28.3 28.3 0 01-.007-3.858c.148-1.048 1.074-1.483 1.909-2.04a40.626 40.626 0 016.086-3.144c.72-.322 2.708-1.535 3.494-1.275.815.27.435 1.855.436 2.588v8.908zm50.907.061v-7.595c0-.864-.354-2.773.016-3.569.363-.779 1.149-.2 1.834.063a45.749 45.749 0 016.476 2.962 22.524 22.524 0 012.917 1.875c.9.716.683 1.729.681 2.789q-.014 7.651-.009 15.3v1.913c0 .361.182 1.414-.011 1.706-.413.623-1.525-.249-2.134-.54a51.635 51.635 0 00-5.909-2.255 22.418 22.418 0 01-3.213-1c-.527-.275-.611-.229-.662-.962-.045-.655.017-1.351.016-2.009q-.006-4.34-.002-8.678zM27.178 41.055v4.353a16.2 16.2 0 01-.011 3.924c-.235.832-.789.83-1.6 1.085-1.108.35-2.191.768-3.261 1.218a39.119 39.119 0 00-3.566 1.664c-.566.308-1.119.641-1.674.969-.26.154-1.2.94-1.486.884-.772-.152-.345-6.267-.337-7.231a13.857 13.857 0 011.645-7.265 18.9 18.9 0 014.94-5.414 25.435 25.435 0 012.966-2.026 10.743 10.743 0 011.544-.886c.645-.208.6-.21.832.395a7.417 7.417 0 010 2.1v2.1q.008 2.063.008 4.13zm50.907-.057v-4.385c0-1.034-.325-2.864 0-3.837.2-.6.08-.705.8-.428a12.634 12.634 0 011.76 1.033 26.386 26.386 0 012.873 1.95c3.975 3.148 6.411 7.1 6.487 12.26.02 1.386 0 2.773 0 4.159 0 .417.306 2.905-.006 3.218-.489.49-2.268-.994-2.805-1.291a43.514 43.514 0 00-3.193-1.571c-1.138-.511-2.275-1-3.451-1.413-.916-.323-2.22-.406-2.471-1.419a18.067 18.067 0 01.009-3.862l-.003-4.414zm51.58 55.447c-2.131-.233-4.259-.462-6.387-.7-1.964-.22-3.937-.371-5.9-.647s-4.042-.259-5.987-.632c-.965-.185-1.072-.672-1.434-1.5-.346-.789-1.077-1.463-.1-1.679a9.268 9.268 0 013.066.306c1.1.176 2.18.326 3.287.427 2.071.189 4.106.517 6.178.676 2.1.161 4.273.527 6.363.823.839.119 1.771-.1 1.837.873.03.467-.303 2.12-.923 2.053zm-82.23-83.313c-1.335-.019.223-2.036.5-2.639.191-.416.377-1.293.728-1.594.507-.435.47-.093.721.352.288.511 1.786 2.734 1.569 3.267-.273.663-2.867.441-3.518.614z"/></g></svg>