<svg viewBox="0 0 147.957 148" xmlns="http://www.w3.org/2000/svg"><path d="M75.197 0c2.748.47 5.545.092 8.323.693 1.792.388 3.669.626 5.513.9a37.737 37.737 0 015.521 1.339 74.32 74.32 0 018.5 3.01 76.538 76.538 0 0110.853 5.733A76.9 76.9 0 01127.85 23.3a73.457 73.457 0 019.5 12.472 86.382 86.382 0 014.548 8.95c1.1 2.412 1.961 4.9 2.815 7.375a35.846 35.846 0 011.45 5.806c.291 1.76.726 3.515 1.042 5.282a36.129 36.129 0 00.463 3.838c.191.661-.425.953-1.166.564-2.009-1.055-4.029-2.085-6.1-3.021-3.328-1.506-6.732-2.823-10.117-4.191-2.508-1.014-5.159-1.548-7.656-2.6a29.647 29.647 0 00-3.309-.814c-1.393-.395-2.819-.674-4.229-1.01-2.8-.668-5.627-1.228-8.471-1.7a21.084 21.084 0 00-3.322-.447 2.093 2.093 0 01-2.082-1.466 9.578 9.578 0 00-3.938-4.409 1.884 1.884 0 00-.762-.259 2.489 2.489 0 01-2.221-2.613 32.413 32.413 0 00-1.086-5.888 54.215 54.215 0 00-1.5-6.1c-.862-2.554-1.686-5.125-2.713-7.627a92.1 92.1 0 00-6.5-13.195 81.314 81.314 0 00-7.618-10.799 3.344 3.344 0 01-.231-.336c-.162-.243-.518-.426-.35-.783.174-.376.561-.32.9-.329zM39.338 88.985a82.913 82.913 0 01.456-11.8c.421-4.057.736-8.135 1.432-12.178a2.611 2.611 0 012.429-2.48c2.8-.653 5.581-1.43 8.4-1.972 2.039-.392 4.114-.653 6.169-.971 1.625-.251 3.252-.573 4.883-.79a64.869 64.869 0 017.7-.758c3.946-.052 7.869-.61 11.827-.462a1.666 1.666 0 011.792 1.259 8.741 8.741 0 004.655 5.243 1.364 1.364 0 01.877 1.631c-.151 2.208-.352 4.409-.7 6.586-.423 2.634-.9 5.26-1.493 7.868-.422 1.843-.969 3.651-1.4 5.489a47.847 47.847 0 01-1.5 4.625c-.5 1.433-.986 2.872-1.572 4.27-.8 1.9-1.653 3.766-2.532 5.625-1.137 2.4-2.33 4.782-3.641 7.1-.518.915-.925 1.544-2.3 1.406a8.425 8.425 0 00-8.34 4.033 1.5 1.5 0 01-1.963.692c-3.756-1.231-7.486-2.52-11.158-3.995-3.048-1.224-6.044-2.556-9.038-3.9-1.3-.581-2.56-1.249-3.849-1.856-.276-.13-.3-.34-.324-.578-.207-1.855-.562-3.708-.585-5.565-.042-2.93-.465-5.851-.225-8.522zm87.284 30.51c-.819.45-6.351.674-7.715.743a108.67 108.67 0 01-12.682.219c-3.283-.219-6.573-.276-9.861-.667-2.789-.331-5.6-.652-8.392-.992a29.861 29.861 0 01-3.906-.586 1.23 1.23 0 01-1.107-1.322 8.088 8.088 0 00-1.728-4.6 1.029 1.029 0 01-.062-1.336 122.62 122.62 0 006.351-12.822 102.825 102.825 0 004.8-14.225c.608-2.385 1.16-4.79 1.586-7.226a96.631 96.631 0 001.3-10.275c.047-.718-.018-1.627.955-2.08a1.689 1.689 0 012.239.39c3.2 3.214 6.321 6.5 9.269 9.951a125.085 125.085 0 018.175 10.765c1.826 2.677 3.483 5.473 5.085 8.3 1.2 2.117 2.319 4.275 3.385 6.45 1.008 2.054 1.858 4.2 2.756 6.313 1.091 2.566 1.859 5.235 2.865 7.824.464 1.193.673 2.484 1.041 3.717.184.616-.181.873-.622.953-1.066.196-2.146.3-3.732.506zM.002 72.593c.357-2.655.08-5.338.642-8.017.4-1.927.52-3.964.951-5.916A69.442 69.442 0 014.83 47.777c.83-2.076 1.643-4.15 2.633-6.155A77.078 77.078 0 0112.3 33.2c1.386-2.095 2.906-4.078 4.429-6.066 1.4-1.831 2-2.009 4.228-1.441 1.635.417 3.327.6 4.976.971 2.108.472 4.2 1.006 6.295 1.551 1.827.477 3.628 1.058 5.464 1.5 1.13.269 1.627.649 1.766 1.771a8.16 8.16 0 002.709 5.189 1.192 1.192 0 01.336 1.521c-.591 1.578-1.036 3.211-1.616 4.794-.676 1.847-.982 3.794-1.645 5.649a37 37 0 00-1.01 4.246c-.414 1.81-.832 3.619-1.232 5.431a1.138 1.138 0 01-.967.9c-1.238.339-2.453.759-3.682 1.132-3.236.982-6.4 2.174-9.534 3.428-3.535 1.416-7.007 3-10.439 4.662-3.5 1.7-6.916 3.562-10.309 5.456a1.375 1.375 0 01-2.067-1.301zm73.723 75.375A63.726 63.726 0 0159.64 146.6c-1.932-.358-3.818-.885-5.734-1.3a.673.673 0 01-.6-.473c-.115-.408.143-.608.418-.839a113.278 113.278 0 009.637-9.22 88.764 88.764 0 006.6-7.638 1.753 1.753 0 012.1-.744c3.275.931 5.973-.187 8.276-2.433a2.507 2.507 0 012.8-.577 38.874 38.874 0 005.006.847c3.527.729 7.147.741 10.709 1.227 1.175.16 2.376.116 3.565.195 2.377.157 4.77.168 7.151.2 3.537.047 7.076-.274 10.617-.356 2.178-.051 4.308-.583 6.491-.532.164 0 .342-.1.438.1a.591.591 0 01-.187.652c-.719.777-1.438 1.558-2.217 2.273a68.786 68.786 0 01-9.58 7.558c-1.747 1.107-3.478 2.281-5.342 3.236-1.22.625-2.395 1.363-3.66 1.907-2.544 1.094-5.07 2.221-7.686 3.157a61.158 61.158 0 01-7.254 2.175c-2.835.632-5.712 1.1-8.617 1.454a72.21 72.21 0 01-8.846.499zm74.199-70.855a81.172 81.172 0 01-1.333 11.113 57.284 57.284 0 01-1.849 7.585c-.5 1.455-.951 2.951-1.554 4.391-.848 2.025-1.662 4.063-2.6 6.054a69.988 69.988 0 01-4.21 7.544c-.38.6-.777.872-1.1-.08-.662-1.952-1.388-3.883-2.02-5.844-.8-2.478-1.878-4.837-2.909-7.219-1.385-3.2-2.971-6.3-4.665-9.34s-3.538-6.007-5.5-8.9q-2.829-4.164-5.944-8.105a128.339 128.339 0 00-11.245-12.482c-.49-.476-.965-.968-1.444-1.455a.735.735 0 01-.167-1.012.927.927 0 011.032-.425c2.23.425 4.485.716 6.714 1.147 2.123.411 4.233.9 6.333 1.418q3.095.764 6.155 1.664c1.994.59 3.968 1.252 5.941 1.911q3.665 1.224 7.2 2.785a91.133 91.133 0 019.764 4.71 18.785 18.785 0 002.319 1.27 1.7 1.7 0 011.09 2.037 10.942 10.942 0 00-.008 1.233zM1.001 82.066a.9.9 0 01.514.349 97.669 97.669 0 008.163 7.357c2.86 2.325 5.764 4.608 8.793 6.731 3.439 2.411 6.976 4.663 10.522 6.9a45.083 45.083 0 005.064 2.809c1.261.585 1.154 1.659 1.278 2.643.474 3.767 1.162 7.5 1.98 11.2.78 3.526 1.691 7.037 2.818 10.479.419 1.279.964 2.524 1.363 3.792.681 2.167 1.576 4.25 2.26 6.409.194.612-.249.562-.648.5a5.328 5.328 0 01-2.144-.812c-1.513-1.061-13.986-6.423-22.732-17.712a73.988 73.988 0 01-5.867-7.749 77.438 77.438 0 01-7.074-13.336A66.831 66.831 0 012.102 91.8 44.814 44.814 0 01.59 82.908c-.012-.343-.153-.791.411-.842zm88.334-35.349c.116.857-.511 1.122-1.059 1.485a1.287 1.287 0 01-1.6-.122c-1.943-1.352-3.844-2.768-5.827-4.059q-6.13-3.991-12.586-7.44c-3.317-1.777-6.713-3.371-10.139-4.911a1.1 1.1 0 01-.773-1.173 9.018 9.018 0 00-2.6-6.734.983.983 0 01-.223-1.266c1.539-2.931 3.029-5.888 4.595-8.8 1.6-2.984 3.433-5.834 5.262-8.683.727-1.132 1.493-2.238 2.242-3.356.363-.543.718-.719 1.285-.171A57.231 57.231 0 0171.618 5.9a72.414 72.414 0 017.152 10.56 69.331 69.331 0 014.028 8.095c.874 2.09 1.756 4.174 2.519 6.305.668 1.868 1.2 3.781 1.773 5.682.613 2.05.9 4.164 1.509 6.2.391 1.309.079 2.728.736 3.975zM35.764 65.941c-.523 1.758-.4 3.7-.851 5.547a2.555 2.555 0 00-.152.59c.03 2.79-.48 5.542-.6 8.317a99.348 99.348 0 00-.2 10.945 68.138 68.138 0 00.351 6.923 3.639 3.639 0 01.012.818c-.053.877-.331 1.044-1.093.6-1.958-1.14-3.971-2.2-5.835-3.482-2.56-1.757-5.186-3.415-7.666-5.3-3.488-2.649-6.909-5.374-10.224-8.231-1.28-1.1-2.474-2.308-3.675-3.5-.67-.664-.582-1.022.223-1.469 4.2-2.33 8.469-4.511 12.853-6.457 2.346-1.041 4.7-2.071 7.124-2.946 2.509-.905 4.97-1.944 7.51-2.774a6.309 6.309 0 001.271-.346c.679-.376.909.058.952.765zm39.657-13.533c-3.3.2-6.79.384-10.276.756-2.059.22-4.1.565-6.166.776-1.866.192-3.738.64-5.608.957-2.436.413-4.8 1.155-7.258 1.47-.888.114-1.7.7-2.665.564-.381-.052-.678-.111-.557-.613.382-1.577.724-3.164 1.132-4.734 1.012-3.9 2.116-7.765 3.435-11.572a1.057 1.057 0 011.082-.849 8.662 8.662 0 005.943-2.457 1.163 1.163 0 011.406-.226c2.429 1.1 4.825 2.275 7.221 3.45a118.535 118.535 0 017.174 3.8 125.436 125.436 0 0111.694 7.47c.22.162.575.295.513.568-.09.4-.522.265-.787.232-2.059-.257-4.042.557-6.283.408zm-33.736 57.877c.886-.066 1.552.581 2.3.93 2.5 1.173 5.055 2.237 7.613 3.275a119.93 119.93 0 008.467 3.086 35.007 35.007 0 003.944 1.249 1.632 1.632 0 011.363 1.422 5.8 5.8 0 00.793 1.853 1.237 1.237 0 01-.193 1.645c-3.269 3.979-6.761 7.76-10.383 11.416-1.623 1.637-3.383 3.14-5.107 4.674-.487.434-.95.675-1.335-.254-1.061-2.562-2.046-5.143-2.907-7.783-.491-1.5-.991-3.008-1.456-4.519q-.925-3.005-1.613-6.08c-.323-1.449-.722-2.885-1.007-4.345-.382-1.958-.747-3.92-1.125-5.879-.1-.507-.008-.824.646-.69zM40.29 24.943c-.946.068-1.67-.536-2.528-.735-2.9-.671-5.73-1.617-8.635-2.239a28.354 28.354 0 00-4.574-.951c-.4-.019-.953-.01-1.154-.483-.244-.573.355-.743.646-1.023a64.835 64.835 0 018.933-7.041 70.608 70.608 0 018.054-4.72c2.045-1.011 4.166-1.9 6.3-2.745 2.843-1.13 5.773-1.919 8.68-2.8.987-.3 2.04-.461 3.062-.691.273-.062.576-.144.762.1.219.291.027.591-.135.851-.61.979-1.217 1.96-1.848 2.926-1.912 2.927-3.553 6.011-5.231 9.071-1.1 2.012-2.118 4.074-3.108 6.144-.282.59-.717.418-1.116.435a9.2 9.2 0 00-7.073 3.443 1.127 1.127 0 01-1.035.458z" fill="#56c6b7"/></svg>