<svg viewBox="0 0 544.973 334.669" xmlns="http://www.w3.org/2000/svg" xmlns:xlink="http://www.w3.org/1999/xlink"><linearGradient id="a" gradientUnits="userSpaceOnUse" x1="56.035" x2="56.035" y1="121.389" y2="270.151"><stop offset="0" stop-color="#c7d2d6"/><stop offset=".374" stop-color="#d1dadd"/><stop offset="1" stop-color="#ebeff0"/></linearGradient><linearGradient id="b" x1="494.677" x2="494.677" xlink:href="#a" y1="121.389" y2="270.151"/><path d="M66.518 189.523l18.487 6.821.008-.253a.413.413 0 00-.023-.149L78 175.762a.418.418 0 00-.51-.265l-3.155.91-1.322-30.234a.414.414 0 00-.558-.372l-9.932 3.592-2.571 3.561-10.263 11.632 12.468-3.03 10.075-14.135 1.279 29.223-10.822 3.106-.854-17.3-12.159 2.168v4.449l-8.032 6.51-9.584 9.513.129-.013 9.711-.977-9.6 1.8-.411.077-.068-.474-4.765 50.157 2.762 38.581 12.268 2.043v-.1l20.219-1.07.568-2.709 3.874 1.205.007-.023a.416.416 0 00.117.041.437.437 0 00.072-.006l15.786-2.758a.417.417 0 00.345-.4l1.906-73.256-18.469-7.671c-.161 0-.323.011-.485.016.162-.011.323-.03.486-.036zm-.857-9.758l.358 9.422-2.819.941-.469-9.522zM42.323 176.1l11.306-9.168 2.361 19.895-13.69-3.071zm19.832 95.692l-.534 2.529-19.532 1.034.214-90.769 13.69 2.267 7.657 64.514zm3.893-81.842l3.133 82.441-1.916.335-4.06-82.5z" fill="url(#a)" transform="translate(-7.334 -6.854)"/><path d="M514.064 204.267l-5-.059v-86.927h-1.024v11.229l-14.062 22.817-8.577-1.955-.227-.052-.043.234q-2.821 15.3-5.124 30.7-1.162 7.7-2.178 15.415c-.334 2.573-.684 5.146-.947 7.729l-.747 7.754c-.907 10.347-1.506 20.725-1.63 31.115q-.129 7.791.2 15.584c.1 2.6.258 5.191.453 7.783.247 2.583.269 5.211 1.259 7.706a47.569 47.569 0 00-.194-7.777 213.1 213.1 0 01-.3-7.751q-.082-4.1-.073-8.193c4.47-.492 8.959-.7 13.446-.765 4.716-.057 9.447.019 14.138.254l.023-.867v25.478h5.607v-67.774l4.2-.05.8 70.389.81-71.208.009-.8zm-10.6 43.1c-4.755.054-9.476.269-14.2.615-4.491.341-8.975.825-13.407 1.589 0-2.428.03-4.855.092-7.283.195-8.581.683-17.155 1.4-25.71a76.994 76.994 0 0112.763-1.107q3.416-.026 6.826.144c2.182.112 4.376.278 6.525.521zm0-32.95c-2.183-.1-4.336-.13-6.5-.1q-3.448.046-6.886.291a77.467 77.467 0 00-12.722 1.918c.146-1.741.288-3.482.454-5.221.947-9.11 1.858-18.235 2.971-27.339a66.491 66.491 0 0111.141-.8c3.856.018 7.726.211 11.542.573zm0-60.931v28.535a130.42 130.42 0 00-11.572.273 66.972 66.972 0 00-11.105 1.615c.142-1.165.276-2.33.426-3.494q1.932-15.307 4.335-30.556z" fill="url(#b)" transform="translate(-7.334 -6.854)"/><path d="M201.017 44.794l-46.139-.815a179.716 179.716 0 00-47.521 65.419l30.323-.953a152.923 152.923 0 0163.337-63.651zM272.487 27a153.441 153.441 0 0122.971 1.724l.916-27.136A180.848 180.848 0 00272.487 0a178.554 178.554 0 00-117.456 43.846l49.528-.875A151.6 151.6 0 01272.487 27zM122.856 207.481a152.767 152.767 0 0113.826-97.118l-29.342-.923a179.717 179.717 0 00-11.715 98.984zm286.626-94.723l29.893.953A179.447 179.447 0 00296.482 1.603l.926 27.439a152.429 152.429 0 01112.074 83.716zm15.255 66.488a152.509 152.509 0 01-4.41 36.485l27.493.949a179.922 179.922 0 003.917-37.435q0-6.93-.519-13.732l-27.02.948c.35 4.221.539 8.485.539 12.785zm-.711-14.718l27.19.953a178.277 178.277 0 00-11.813-51.7l-29 .924a151.256 151.256 0 0113.623 49.823z" fill="#d71920"/><path d="M543.877 270.059l-110.554-11.613a177.967 177.967 0 0014.493-41.747l-27.972.966a151.34 151.34 0 01-15.514 37.736l-5.177-.544a147.5 147.5 0 10-253.333 0l-5.176.544a151.3 151.3 0 01-17.4-45.952l-27.606-.956a178.189 178.189 0 0016.016 49.953L1.096 270.059a1.224 1.224 0 00.128 2.441h179.354a130.6 130.6 0 01-39.091-93.25c0-72.234 58.766-131 131-131s131 58.766 131 131a130.6 130.6 0 01-39.091 93.25h179.353a1.224 1.224 0 00.128-2.441zM384.118 253.28a133.19 133.19 0 0022.369-74.03c0-73.888-60.112-134-134-134s-134 60.112-134 134a133.19 133.19 0 0022.369 74.03l-3.693.388a137.25 137.25 0 11230.647 0z" fill="#d71920"/><path d="M195.959 248.606q22.088-2.167 22.43-3.5l.989-2.586a2.157 2.157 0 00-1.977-1.064q-15.549.912-21.29 1.825-4.106.875-4.106 3.346 0 1.978 3.65 1.977zm90.178.04q-6.272 0-14.75 6.577a65.814 65.814 0 00-5.741 5.361 51.161 51.161 0 00-5.55 6.919l-.646-.153a2.565 2.565 0 01-1.33-1.444 38.243 38.243 0 001.843-4.334 6.589 6.589 0 00.133-4.581 2.767 2.767 0 00-3.042-1.977 3.663 3.663 0 00-3.288 2.529 20.982 20.982 0 00-1.407 5.284q-.4 2.889-.627 4.049a2.53 2.53 0 01-.606 1.325 1.585 1.585 0 00-.42-.108 5.493 5.493 0 01-2.167-.7 1.319 1.319 0 01-.577-.867 16.71 16.71 0 00.787-4.627q.133-4.543-1.483-6.938a4.764 4.764 0 00-4.049-2.4h-.19q-4.106 0-7.718 5.284t-5.322 7.414q-1.711 2.129-3.136 2.3a6.243 6.243 0 00-1.109.245 1.513 1.513 0 01-.621-1.1 25.755 25.755 0 00-.875-6.2q-2.092-4.941-8.858-4.942-6.426 0-14.523 6.654-10.189 9.276-10.189 14.6v.837l.114.988q1.1 3.879 5.626 3.878a14.556 14.556 0 009.7-4.344 1.982 1.982 0 00.47-1.211 2.5 2.5 0 00-2.161-2.8 4.137 4.137 0 00-1.939.215s-2.63 1.033-3.391 1.245c-1.682.468-1.846.317-1.846.317q.494-1.787 3.422-5.512 8.44-9.238 14.408-9.239h.494l.57.076q1.634 0 2.205 2.205.531 7.528 1.407 8.592.95 2.28 4.03 2.281l1.977-.133a5.9 5.9 0 001.62-.634 11.609 11.609 0 004.615-3.225q1.787 3.5 6.5 3.878a9.012 9.012 0 006.728-2.684 7.211 7.211 0 002.924 2.187 2.937 2.937 0 001.6.421h.761l1.33-.038a5.262 5.262 0 004.334-2.129 3.84 3.84 0 001.178.57 8.677 8.677 0 00-1.026 3.536l.152 1.178q.8 2.433 1.673 2.433a.581.581 0 00.418-.19l3.46-5.74a12.462 12.462 0 003.611.684 32.165 32.165 0 0016.879-4.638q10.949-7.033 10.949-13.953a8.17 8.17 0 00-.38-2.357q-1.591-4.864-6.951-4.864zm-43.739 18.5a4.373 4.373 0 01-4.239 1.387q-2.166-.57-2.623-1.825a26.187 26.187 0 012.928-4.448q2.547-3.421 4.144-2.738t1.73 3.175a5.542 5.542 0 01-1.94 4.443zm45.146-11.121a3.423 3.423 0 01-.228 1.1 12.218 12.218 0 01-3.574 4.41 24.328 24.328 0 01-17.412 7.261l-1.254-.038v-.038a33.335 33.335 0 015.475-5.513q10.682-8.629 15.472-8.63h.456q1.064 0 1.065 1.179zm55.911-18.387a2.588 2.588 0 00-2.738.647q-.988 1.083-.494 5.475t1.008 10.34a24.975 24.975 0 01-.8 9.9q-1.312 3.954-5.114 3.953c-.068 0-.125.009-.191.01-.039-.016-.073-.033-.113-.048a12.229 12.229 0 01-4.411-.267l1.559-1.292q4.143-4.334 4.144-8.288v-.722q0-3.155-11.177-3.155h-6.232q-6.045-.114-6.045 2.623v1.141c0 1.218.732 2.058 2.179 2.53h-.011s5.312 1.931 7.384 4.182c-.142.094-.272.185-.427.282a34.124 34.124 0 01-13.725 2.966 9.423 9.423 0 00-1.32.061c-.141-.009-.276-.023-.428-.023q-3.8 0-4.372-5.17v-.875q0-5.17 8.516-15.245 4.372-4.486 4.372-6.046v-.57q-.684-2.356-2.623-2.357h-1.03l-1.179.456q-13.953 14.751-13.953 24.218v.418l.3 3.232q2.624 8.1 9.961 8.1c.045 0 .083-.013.127-.018.073 0 .14.018.216.018h.114a42.707 42.707 0 0015.891-2.737q3.914 3 11.709 2.851c.218-.037.417-.085.612-.135.051.006.1.016.148.021q6.653-.457 9.22-4.828t2.414-12.641a103.594 103.594 0 00-.95-13.42q-.792-5.149-2.541-5.587zm11.242-5.912h-.342q-2.7.722-2.7 2.965 0 5.209-.684 14.941 0 4.9-2.471 23.648 0 2.47 3.041 2.813h.038q1.863 0 2.889-2.282l.989-12.925q2.242-23.267 2.243-26.195l-.038-.532a2.938 2.938 0 00-2.965-2.433z" fill="#d71920"/><g fill="#414042"><path d="M36.956 316.011l-.229-.459-.286-.357-.3-.315-1.175-1.061-2.005-1.661-.9-.774a25.608 25.608 0 00-3.079 4.282l-1.847 2.951a10.159 10.159 0 00-1.59 4.668q0 1.562 1.848 2.048a11.27 11.27 0 002.936.243l.472-.086.487-.086 1.59-.487a15.733 15.733 0 002.262-1.059 4.271 4.271 0 001.2-1.833l.859-2.492.2-.7.072-.6v-.258a4.009 4.009 0 00-.315-1.575zm-3.151 5.112a16.968 16.968 0 01-2.907.214 3.074 3.074 0 01-1.6-.315 1.68 1.68 0 01-.687-1.49 8.743 8.743 0 011.074-1.9l.616-.845.759-1.031q.415 0 2.349 2.119t1.933 3.022zm-6.423-13.354a9.154 9.154 0 001.912.809l.817-.817.773-.759.1-.129 2.234 1.175 1.131.573a5.138 5.138 0 001.088-1q.487-.515.781-.866a8.748 8.748 0 00.551-.737l-3.351-1.777a8.087 8.087 0 00-1.1.945l-.687.588-.258.2a4.3 4.3 0 01-1.475-.644l-.788-.516-.759-.53-.745.731-.73.759-.916.988a3.967 3.967 0 001.422 1.007zm41.536 9.477a13.515 13.515 0 00-1.3-3.114 15.177 15.177 0 00-1.461-2.227l-1.432 2.435-.788 1.261a6.388 6.388 0 01.659.858l.716 1.175a24.111 24.111 0 011.354 2.801l.115.372H56.317q-.644 0-1.074-1.718l-.644-2.679-1.389-5.413-.516-1.962-2.091 4.3 1.26 4.382a8.989 8.989 0 01.43 2.506l-.028.329-.043.258h-9.156a1.048 1.048 0 01-.974-.472 3.128 3.128 0 01-.229-1.332.611.611 0 00.043-.315v-.386a.9.9 0 00.043-.287v-.258l.014-.516-.043-.243-.086-.172q-.244 0-.573.96l-.186.487-.115.5a17.744 17.744 0 00-.644 3.18l-.25 2.29a1.615 1.615 0 00.258.687 1.049 1.049 0 00.644.258h9.466q.486.058 1-1.289.7-1.475 1.117-1.662l.215-.115.1.215.2.43a.842.842 0 01.143.386l.086.258.128.4.172.588q.344.844.6.788h13.979a10.043 10.043 0 00.358-2.177l.286-1.948a2.524 2.524 0 00.143-.9l.071-1.046v-.429l-.043-.888zm-6.53 13.772l-.473.4-.143.128a6.5 6.5 0 01-1.547-.745 6.276 6.276 0 01-1.489-1.155l-.773.788-1.675 2.061.515.4a5.635 5.635 0 00.946.6 9.738 9.738 0 001.9.917 6.725 6.725 0 01.873-.917l.859-.9 1.6.96 1.332.73.444.244a4.562 4.562 0 00.959-1.017 17.385 17.385 0 001.418-1.819l-3.38-2.091zm39.052-.415l-1.59-.916a9.934 9.934 0 00-1.461 1.3q-1.189 1.167-1.188 1.353a6.106 6.106 0 001.69 1.16l1.647.859a6.684 6.684 0 001.546-1.389l1.117-1.418-.6-.286zm21.595-23.472l-2.635-1.7a3.066 3.066 0 01-.644-.931 1.242 1.242 0 01-.122-.25 2.721 2.721 0 01-.05-.293l-.014-.673-.659.93-.888 1.5-1.26 2.42.83.687.544.359.143.128 1.217 6.287a20.26 20.26 0 01.487 2.434 14.988 14.988 0 01.143 1.876q0 .788-.2.9h-8.106l.788-2.449.2-.658.172-.459a20.306 20.306 0 01-3.222-.315l-1.7-.359-1.59-.386a46.359 46.359 0 01-4.754-2.062 10.493 10.493 0 00-4.282-1.217l-.745.043q-1.876.2-3.609 2.764l-1.317 2.548 1.232-.9a5.047 5.047 0 012.162-.357 7.128 7.128 0 011.188.243l2.105.645 3.093 1.116a6.209 6.209 0 01-2.005 1.038 8.6 8.6 0 01-3.165.766h-8.479q-.644 0-1.074-1.718l-.644-2.679-1.389-5.413-.52-1.96-2.091 4.3 1.26 4.382a8.989 8.989 0 01.43 2.506l-.028.329-.043.258h-9.148a1.048 1.048 0 01-.974-.472 3.128 3.128 0 01-.229-1.332.611.611 0 00.043-.315v-.386a.9.9 0 00.043-.287v-.258l.014-.516-.043-.243-.086-.172q-.244 0-.573.96l-.186.487-.115.5a17.744 17.744 0 00-.644 3.18l-.258 2.291a1.615 1.615 0 00.258.687 1.049 1.049 0 00.644.258h9.466q.486.058 1-1.289.7-1.475 1.117-1.662l.215-.115.1.215.2.43a.842.842 0 01.143.386l.086.258.128.4.172.588q.344.844.6.788h9.752q1.231 0 4.074-1.7a9.705 9.705 0 014.189-1.7h1.633l1.646.029.831.086h1.017l.458 3.294h11.027l.9-.1c.344-.133.516-.258.516-.372l.558-2.505.186-.659.072-.429.1-.731v-.658a1.4 1.4 0 01-.043-.473l-.43-3.122-.143-.844-.086-.63-.072-.989-.086-1.3 3.136-4.182zm7.79-1.532l-.2-1.531-1.819 2.907a10.359 10.359 0 00-1.146 2.291l1.948 17.042a10.1 10.1 0 001.432-2.707 15.039 15.039 0 00.745-4.912q0-4.138-.644-10.5zm11.986 3.147l1.117.588a4.754 4.754 0 00.946.3q.028-.186.873-.916l.458-.4.473-.473a12.2 12.2 0 001.862 1.074 14.94 14.94 0 001.532.716l.243.1a6.089 6.089 0 001.06-1.017l.788-.874.759-.844-3.666-2.033-1.489 1.4q-.473.486-.716.487a4.312 4.312 0 01-1.561-.73q-1.317-.873-1.661-1.16l-.773.788-1.833 1.947a4.557 4.557 0 00.8.588zm67.005 5.6q-2.334-1.976-3.924-1.976-1.26 0-4.64 2.177l-5.241 3.638-2.478 1.589a6.068 6.068 0 01-1.661.788 3.2 3.2 0 01-.63.208 4.187 4.187 0 01-.63.035h-.687a1.423 1.423 0 01-.959-.372 1.744 1.744 0 01-.387-1.116l-.313-5.471-1.69 2.119a8.612 8.612 0 00-1.26 1.748l.573 3.093h-6.129q-.759 0-1.818-1.8a13.684 13.684 0 01-1.418-2.72l-.157-.487-.014-.5v-.853a1.008 1.008 0 00-.215-.73 1.952 1.952 0 00-1-.215 7.9 7.9 0 00-3.437 1.325 11.029 11.029 0 00-3.265 2.627 19.89 19.89 0 00-1.332 2.491 1.4 1.4 0 01-1.231.859h-4.382v-.014h-1.948a2.011 2.011 0 01-1.589-.845 4.6 4.6 0 01-.809-1.6q-.266-.917-.523-1.847a1.708 1.708 0 00-1.661-.874q-1.761 0-3.594 2.248-2.206 2.779-3.28 4.2-1.876 2.249-3.823 2.248-1.06 0-2.062-3.193a15.11 15.11 0 01-.859-4.138q-.315.716-.616 1.317v1.017q0 9.866 3.738 9.866 1.36 0 2.951-2.247l3.093-4.44q1.957-2.355 4.016-2.355.272 0 .831 1.3a9.659 9.659 0 001.375 2.45 3.54 3.54 0 002.764 1.289h4.482a2.082 2.082 0 002.105-1.331 2.734 2.734 0 01.845-1.261l5.872 3.279a13.1 13.1 0 003.336 1.647q.4 0 .73-1.174.387-1.161.874-1.16h6.6l1.547-2.549.43 1.977q.3.573.53.573h21.02a1.924 1.924 0 001.26-.945 14.116 14.116 0 001.332-2.435l.946-2.163.744-1.818q.002-1.5-2.332-3.479zm-34.083 7.075l-.386.057-.387-.014-.472-.115a19.713 19.713 0 01-.451-.165 3.54 3.54 0 01-.423-.194l-1.546-.873-.616-.33-.8-.472-.759-.53.544-.473a3.023 3.023 0 011.36-.644 2.614 2.614 0 01.788-.143l.988-.029q1.145 0 1.733 1.5a3.452 3.452 0 01.315 1l.115.644zm32.092-1.16a2.671 2.671 0 01-1.819.544h-10.568l2.435-1.4 3.28-1.991a5.731 5.731 0 012.692-.659q.172.029.387.058a2.02 2.02 0 01.3.057l.515.172a6.713 6.713 0 011.475.83q1.6 1.161 1.6 1.862-.156.472-.297.53zm19.861-5.926l.066-.031.106-.184z"/><path d="M250.213 308.191l-.83-.4-1.16-.659-2.606-1.7a2.751 2.751 0 01-.644-.931 1.037 1.037 0 01-.136-.25 1.763 1.763 0 01-.036-.293l-.029-.673-.659.93-.873 1.5-1.275 2.42 1.533 1.174.63 3.323.63 2.921a25.48 25.48 0 01.53 4.239c0 .564-.072.9-.215 1.017h-9.165l.086-.329.272-.645.63-.959a5.219 5.219 0 00.537-1 2.019 2.019 0 00.136-.666 3.857 3.857 0 00-1.346-2.45 5.571 5.571 0 00-4.082-1.7 8.378 8.378 0 00-3.236.745l-.73.3-.421.2-.108.188-1.117 1.919-.959 1.891a1.368 1.368 0 01.573-.087l.716-.028a4.147 4.147 0 012.478.815 4.355 4.355 0 011.3 1.418l.172.386h-9.694l-.73-.072q-.43-.128-.487-.257l-.215-.43a.451.451 0 01-.043-.258 10.419 10.419 0 01-.33-2.09l-.615-5.571q-.745-6.758-.745-9.322l-2.808 3.339 1.69 19.046h13.8q.616-.9.773-1.174l.616-1.16.172-.359.215.359.415.644.315.687.573 1h11.9l.444-.058.487-.086c.344-.134.5-.243.458-.33a7.865 7.865 0 00.344-1.432l.272-1.389a13.578 13.578 0 00.315-2.2 1.258 1.258 0 01-.043-.43l-.415-3.122-.158-.844-.086-.63-.057-.989-.086-1.3v-.115zm5.327-2.592l-.2-1.531-1.819 2.907a10.359 10.359 0 00-1.146 2.291l1.948 17.042a10.1 10.1 0 001.432-2.707 15.039 15.039 0 00.745-4.912q0-4.138-.644-10.5zm26.406 23.615q-.889.859-1.232.859a4.268 4.268 0 01-1.647-.716l-.931-.573-.9-.616-.415.387-.387.344-1.7 1.833a3.611 3.611 0 00.688.487l.859.515a10.114 10.114 0 001.9.888 5.954 5.954 0 011.217-1.246l.859-.774.659.3 1.389.745 1.947 1.1.559-.586q.3-.316.874-.945.372-.4 1-1.175l-3.594-1.991zm-12.545-8.793a3.168 3.168 0 012.248-.988l1.232-.157a3.229 3.229 0 01.508-.072h.337l.673-.029.773-.015.673-.028 1.146-.043a8.058 8.058 0 003.623-3.208 9.355 9.355 0 001.417-5.1 9.673 9.673 0 00-2.793-6.659q-1.317-1.275-1.689-1.275-2.048 0-4.34 3.981-1.976 3.466-1.976 5.213a2.2 2.2 0 001.06 1.977 2.644 2.644 0 00.716.357 3.782 3.782 0 01.43.115h.386l.7.015a3.192 3.192 0 002.792-1.247 25.01 25.01 0 001.275-2.907l.115-.4.3.316a4.689 4.689 0 01.888 1.818 8.473 8.473 0 01.329 2.291 2.049 2.049 0 01-1.289 1.311 6.94 6.94 0 01-2.878.508 17.828 17.828 0 00-3.279.344 7.859 7.859 0 00-1.9.644 8.032 8.032 0 00-3.594 3.723 9.035 9.035 0 00-.9 3.709v.63h27.61l1.9-4.4h-26.736zm8.134-10.168a1.5 1.5 0 01-.8.229 3.343 3.343 0 01-.83-.128l-1-.315q-1.389-.759-1.389-1.519l.573-.644a2.525 2.525 0 011.461-.644 2.3 2.3 0 011.5.9 2.505 2.505 0 01.852 1.432 1.343 1.343 0 01-.367.689zm-5.7-6.186l-2.649-2.45-2.707 2.493 2.707 2.033zm39.195 9.839l-1.518 4.41a24.41 24.41 0 012.42 2.105q1.8 1.833 1.8 2.606 0 2.019-3.666 5.141a19.143 19.143 0 01-3.236 2.406 5.272 5.272 0 01-2.478.8 9.435 9.435 0 01-2.306-.43l-.6-.229-.759-.2-1.4-.4q-.372 0-.372.316 0 .644 3.917 2.176a18.463 18.463 0 005.349 1.533q2.72 0 5.012-3.766a17.9 17.9 0 002.234-5.442 13.423 13.423 0 00.315-2.606 9.771 9.771 0 00-1.862-5.758 8.751 8.751 0 00-2.85-2.662zm37.419-2.478l.587-.659.53-.559.73-.644a7.9 7.9 0 011.776.96l1.561.959.444-.487.716-.859.874-1.145-2.936-1.762-.774.745q-1.045 1.059-1.317 1.059a5.3 5.3 0 01-1.432-.673l-.816-.516-.73-.487-.315.3-.344.359-.472.544-.917 1.1a9.955 9.955 0 001.21.895 9.12 9.12 0 001.625.87zm4.095-6.086l-2.291-2.006-2.234 2.049 2.406 1.903zm7.174 3.079a7.645 7.645 0 002.019.844l.516-.573 1.289-1.189 1.79 1.059a14.315 14.315 0 001.69.788l.329-.272.745-.73a19.628 19.628 0 001.475-1.69l-3.551-1.9a10.168 10.168 0 00-1.11 1q-.795.787-1.01.788l-.615-.229-.917-.459q-1.375-.873-1.59-1.059l-.788.745-.73.73-1.031 1.131a4.813 4.813 0 001.489 1.016z"/><path d="M392.899 316.397a7.957 7.957 0 00-1.117 1.6l.115.687.186.959.086.487.186.673-3.766-.115a1.062 1.062 0 01-.086-.472 7 7 0 01.2-1.432l.272-1.218.73-2.649q-.9.83-1.79 1.747-1.2 1.332-1.317 1.519a2.086 2.086 0 00-.3.651 4.683 4.683 0 00-.115 1.21l-.028.687-1.2.215-1.361.072h-.558l-1.375-.072-1.117-.143q-1.046-.344-1.046-.6l.287-.887a2.79 2.79 0 00.344-.716l.272-.845a12.166 12.166 0 00.645-2.993q-1.2 1.2-2.034 2.163a5.919 5.919 0 00-1.246 1.5 6.542 6.542 0 01-.1 1.346q-.43 1.031-1.146 1.031h-5.574a2.727 2.727 0 01-1.848-.716 2.163 2.163 0 01-.659-1.533l.029-.257.143-.859.086-.316v-.344l.072-1.16.057-1.589v-.559l-2.635 3.137-.1 2.377-.028.588-.1.544-.2.53-.057.157h-8.621a2.245 2.245 0 01-1.518-.586 1.835 1.835 0 01-.516-1.131l.014-.3.2-1.117.057-.888.086-.415v-.53l.029-.7-.043-.844-.043-.444-2.764 3.394-.115 2.077-.086.9-.172.586h-8.334q-.759 0-1.818-1.8a13.684 13.684 0 01-1.418-2.72l-.157-.487-.014-.5v-.851a1.008 1.008 0 00-.215-.73 1.952 1.952 0 00-1-.215 7.9 7.9 0 00-3.437 1.325 11.029 11.029 0 00-3.265 2.627 19.89 19.89 0 00-1.332 2.491 1.4 1.4 0 01-1.231.859h-5.57l-.73-.072q-.43-.128-.487-.257l-.215-.43a.451.451 0 01-.043-.258 10.419 10.419 0 01-.33-2.09l-.615-5.571q-.745-6.758-.745-9.322l-2.81 3.343 1.69 19.046h7.962a2.082 2.082 0 002.105-1.331 2.734 2.734 0 01.845-1.261l5.872 3.279a13.1 13.1 0 003.336 1.647q.4 0 .73-1.174.387-1.161.874-1.16h9.251a5.6 5.6 0 00.83-1.375l.344-.615.4-.774a5.991 5.991 0 001.117 2.12 3.143 3.143 0 001.9.644h8.878l1.6-2.907a4.494 4.494 0 001.246 2.169 2.915 2.915 0 002.005.737h5.757l.515-.128.444-.23a4.005 4.005 0 00.959-.9l.215-.286.115.258.472.9a1.939 1.939 0 001.039.429 15.9 15.9 0 002.427.129h.53l1.031-.029 1.088-.086 1.719-.23.53-.658.215-.215.1-.072a1.112 1.112 0 01.415.5l.143.386.172.229 5.886.043.258-.773.429-.917.516-1.046.215-.644a12.524 12.524 0 00.215-2.491v-5.127l-.9.917q-.48.531-1.039 1.247zm-53.043 5.027l-.386.057-.387-.014-.472-.115a19.713 19.713 0 01-.451-.165 3.54 3.54 0 01-.423-.194l-1.546-.873-.616-.33-.8-.472-.759-.53.544-.473a3.023 3.023 0 011.36-.644 2.614 2.614 0 01.788-.143l.988-.029q1.145 0 1.733 1.5a3.452 3.452 0 01.315 1l.115.644zm93.584-13.233l-.83-.4-1.16-.659-2.606-1.7a2.751 2.751 0 01-.644-.931 1.037 1.037 0 01-.136-.25 1.763 1.763 0 01-.036-.293l-.029-.673-.659.93-.873 1.5-1.275 2.42 1.533 1.174.63 3.323.63 2.921a25.48 25.48 0 01.53 4.239c0 .564-.072.9-.215 1.017h-7.634l-1.819-18a5.236 5.236 0 00-1.36 1.218l-.946 1.073-.472.63a2.71 2.71 0 00-.129.945l.072 1.5v.473l.014.515.043.659v.344l-.057 1.618a5.024 5.024 0 01-.257 1.289l-.73 1.948a13.834 13.834 0 01-.645 1.375l-.816 1.088a17.943 17.943 0 01-1.2 1.389q0-.315-.007-.616t-.093-.973l-.315-1.4-.516-1.432-.515-1.16a23.21 23.21 0 00-2.42-3.451 20.122 20.122 0 00-3.881-3.465 26.63 26.63 0 00-2.735-1.733 2.413 2.413 0 00-1.132-.4q-.243 0-.615 1.733l-.158.487-.086.415-.057.745-.086.616v.9l.043.744.086.645q.143.629.458.744l5.1 2.893a.921.921 0 00.215-.443l.158-.6.086-.258.673.386.43.143a19.165 19.165 0 011.718 1.833l.659.916a4.345 4.345 0 01.6.96 1.59 1.59 0 01.315.644l.243.745a2.219 2.219 0 01.229.9l.158.815a36.116 36.116 0 01-3.494 2.248l-.472.272-.4.2q-1.991.844-5.413 2.2-4.067 1.661-4.067 1.9c.029.066.22.12.573.157l1.117.072h.4q1.217 0 2.678-.128l2.893-.316a21.661 21.661 0 005.88-1.665 9.505 9.505 0 003.652-3.624 21.252 21.252 0 001.675-4.167l.344-1.174q.988 0 1.375 4.511l.057.43a2.539 2.539 0 01.043.386v.272l.043.817.028 1.375.014 1.217h11l.444-.058.487-.086c.344-.134.5-.243.458-.33a7.865 7.865 0 00.344-1.432l.272-1.389a13.578 13.578 0 00.315-2.2 1.258 1.258 0 01-.043-.43l-.415-3.122-.158-.844-.086-.63-.057-.989-.086-1.3v-.115zm19.046 9.595l1.847-.473a3.178 3.178 0 001.69-1.131 4.34 4.34 0 001.074-2.749q0-.658-1.819-.844-1.8-.331-1.8-.588l.1-.3a8.512 8.512 0 011.146-1.131l.344-.272.444-.287a2.686 2.686 0 01.659-.344l.172-.344.215-.5.544-1.374q-1.275 0-3.229 2.47t-1.955 3.688q0 1.059 1.876 1.059 1.9 0 1.9.429-.144.488-2.678 1.612a10.335 10.335 0 00-2.535 1.3l1-.072zm18.588-9.365a7.645 7.645 0 002.019.844l.516-.573 1.289-1.189 1.79 1.059a14.315 14.315 0 001.69.788l.329-.272.745-.73a19.628 19.628 0 001.475-1.69l-3.551-1.9a10.168 10.168 0 00-1.11 1q-.795.787-1.01.788l-.615-.229-.917-.459q-1.375-.873-1.59-1.059l-.788.745-.73.73-1.031 1.131a4.813 4.813 0 001.489 1.016zm17.499 22.655l-.644-.53-.444-.345-.415-.257a6.269 6.269 0 00-1.432 1.131l-.83.916-.186.3-.086.2a6.015 6.015 0 001.446 1.175 7.27 7.27 0 001.675 1q.315 0 1.375-.98t1.059-1.239a15.647 15.647 0 00-1.518-1.371z"/><path d="M493.166 317.246a7.24 7.24 0 00-.444-1.46q-.315-.759-.83-1.719a16.75 16.75 0 00-1.432-2.163l-.6.96-.888 1.475-.787 1.261a13.273 13.273 0 011.6 2.449 3.059 3.059 0 01.43.745l.329.73a13.029 13.029 0 01.459 1.261l-8.756.023a2.727 2.727 0 01-1.8-.712 2.163 2.163 0 01-.659-1.533l.029-.257.143-.859.086-.316v-.344l.072-1.16.057-1.589v-.559l-2.635 3.137-.1 2.377-.028.588-.1.544-.2.53-.057.157h-10.157a7.081 7.081 0 00.124-1.116 1.258 1.258 0 01-.043-.43l-.358-2.22-.072-.9-.315-2.449-.086-1.317v-.115l3.122-4.068-1.962-1.059-2.635-1.7a2.743 2.743 0 01-.644-.931 1.208 1.208 0 01-.158-.559l-.014-.658-.659.916-.386.615-.258.43-.243.473-.616 1.116-.644 1.3 1.5 1.174 1.26 6.244a23 23 0 01.53 4.239c0 .574-.071.912-.215 1.017h-16.05a3.916 3.916 0 01-3.014-1.246 3.841 3.841 0 01-1.153-2.635l.057-.687.158-.644.573-1.433q-.172-.257-.358-.257-.873 0-1.589 2.276a13.209 13.209 0 00-.53 2.113 11.77 11.77 0 00-.129 1.7 4.882 4.882 0 001.539 3.795 6.091 6.091 0 004.26 1.4h18.688l1.146-1.733a6.246 6.246 0 00.429-.582v2.314h7.79l1.6-2.907a4.494 4.494 0 001.246 2.169 2.885 2.885 0 001.818.722v.015h11.819a8.89 8.89 0 00.358-2.177l.287-1.948a2.525 2.525 0 00.143-.9l.072-1.046v-.429l-.043-.888zm7.05 1.442q0-4.138-.644-10.5l-.315-2.592-.2-1.531-1.819 2.907a10.359 10.359 0 00-1.146 2.291l1.948 17.042a10.1 10.1 0 001.432-2.707 15.039 15.039 0 00.744-4.91zm21.881 12.388l-.644-.53-.444-.345-.415-.257a6.269 6.269 0 00-1.432 1.131l-.83.916-.186.3-.086.2a6.015 6.015 0 001.446 1.175 7.27 7.27 0 001.675 1q.315 0 1.375-.98t1.059-1.239a15.647 15.647 0 00-1.518-1.371zm4.669-13.276l-.072-.559a7.24 7.24 0 00-.444-1.46q-.315-.759-.83-1.719a16.75 16.75 0 00-1.432-2.163l-.6.96-.888 1.475-.787 1.261a13.273 13.273 0 011.6 2.449 3.059 3.059 0 01.43.745l.329.73a13.029 13.029 0 01.459 1.261l-9.365.025v-.283a13.556 13.556 0 00-1.088-4.21q-1.547-3.724-3.193-3.723-2.105 0-4.138 4.381a13.984 13.984 0 00-1.69 4.941q0 2.061 2.592 2.763a14.589 14.589 0 004.153.516h.558l-.272.359-.3.329-.8.788a32.835 32.835 0 01-2.606 2.12 9.26 9.26 0 01-2.957 1.582 10.634 10.634 0 01-2.842.366 3.8 3.8 0 01-.9-.129l-.788-.215-2.191-.644q-.4.087-.4.415.128.559 3.659 2.105a15.138 15.138 0 004.9 1.548q2.391 0 4.883-3.166a15.036 15.036 0 002.907-5.456h11.3a8.89 8.89 0 00.358-2.177l.287-1.948a2.525 2.525 0 00.143-.9l.072-1.046v-.429zm-16.282 2.836a3.727 3.727 0 01-1.067-.143 4.911 4.911 0 01-1.01-.444 1.932 1.932 0 01-.974-1.518 6.369 6.369 0 01.544-.859 1.635 1.635 0 012.922.215l.344.5.215.444.387 1.217a1.463 1.463 0 01-1.361.588z"/></g></svg>