<svg viewBox="0 0 150.268 142.007" xmlns="http://www.w3.org/2000/svg"><path d="M.227 134.011c1 .129.037.809.446 1.065.439.274 1.26-2.253 1.348-2.532.344.637-.769 2.145.149 2.642a2.553 2.553 0 01.554-.341c.8.7.22.241 1.23-.091.147-.048.111-.685.365-.558.736.371-.078.627.248 1.111.9-1.912 1.336-.887 1.968.43a7.769 7.769 0 01.6-1.892l.628.65c.226-.563-.109-1.117.007-1.687a3.054 3.054 0 00.927.991 9.566 9.566 0 01.405-1.087c.328.58.05 1.195.3 1.735.113-.691.43-1.305.6-2.085.241.371-.111 2.583.365 2.571.577-.015.07-2.319.691-2.248.511.059-.288 1.6.535 1.509.221-.025.3-1.758.8-1.456.372.226-.674 1.453-.079 1.564.189-.118.161-1.33.705-1.152a8.182 8.182 0 00.863 1.337c-.117-.086.526-.417.609-.422.235-.014.24.583.4.679a3.267 3.267 0 00.275-.682 11.355 11.355 0 01.306 1.309c.137-.1.784-2.034 1.4-1.56.251.192-.329.687.037.855.616.282.427-1.356.847-1.306.122.014.123 1.484.318 1.733.2-.232.95-1.46 1.407-1.024.182.174-.484 1.186-.442 1.547 1.406 0 1.152-1.638.452-2.3-.762-.717-1.606-.843-2.268-1.811a15.925 15.925 0 01-1.481-3.719c-.288-.79-1.056-1.843-.737-2.758.3-.851 1.191-.928 1.8-1.452 1.239-1.069 1.631-2.652 2.288-4.268a12.24 12.24 0 011.721-3.059c.962-1.153 1.564-.855.661-1.9-.815-.944-2.389-1.721-3.349-2.582a7.829 7.829 0 00-1.413-1.276c-.381-.182-1.114-.05-1.376-.212-1.648-1.021-.508-5.861-.385-7.619.062-.887-.272-2.045-.215-2.778.063-.815 1.275-2.031 1.145-2.869-1.846 2.481-4.373 4.723-5.984 7.212-.678 1.047-.156 2.47-1.807 2.226-2.059-.3-1.1-2.294-.953-3.5.17-1.4-.791-2.2-.076-3.76.846-1.845 2.616-3.5 3.754-5.171 1.112-1.632 2.148-3.244 3.365-4.8.32-.409 3.414-4.4 3.357-4.529-.294-.687-.714-.131-.262-.835.333-.52 1.34-.238 1.6-1.235.381-1.453-1.416-1.281-.685-2.13.646-.75 1.52.143 1.774-1.573.2-1.352-.617-2.543-.284-4 .535-2.34 2.241-5.472 4.305-6.709 4.384-2.627 9.816 1.143 9.281 6.07-.163 1.507.289 2.571.405 4.037.027.347.216.7.232 1.043.011.231-.467-.008-.426.373.055.508.381 1 .481 1.515.112.57-.148 1.344-.031 1.8.18.7 1.738 1.32 1.7 1.719-.028.282-.566.215-.735.23.633.486 1.426.677 2.057 1.163.427.328.764.984 1.144 1.257 1.194.858 1.994.318 3.4.734.464.137.635.6 1.2.642s1.265-.531 1.8-.682c.882-.248 2.465-.042 3.125-.587 1.947-1.609-1.687-4.387-2.628-5.766a163.216 163.216 0 01-2.49-3.728c-.765-1.19-1.057-2.806-2.059-3.744-2.034-1.9-4.313-2.367-5.917-4.878-1.531-2.4-3.589-5.224-2.615-8.085 1.9-5.582 5.593-10.709 8.894-15.529a17.791 17.791 0 003.261-7.593c.409-2.586 1.006-5.237-.134-7.625-2.508-5.25-5.353-10.814-6.946-16.425-.589-2.075-1.189-4.167-1.844-6.208a7.641 7.641 0 01-.505-2.228c0-.338.394-.669.4-1.014a2.943 2.943 0 00-.141-1.292c-.652-1.041-.313 0-.714-.337s-1.069-.2-.706-1.192c.211-.574 2.033-1.211 2.617-1.458.982-.415.706-.486 1.78-.351.536.067.6-.221 1.186.046.758.347.938 1.635 1.614 1.97.741.366 1.575-.565 1.561.706 0 .183-.678 1-.723 1.226a4.387 4.387 0 00.4 2.185c1.058 2.734 3.335 4.981 4.621 7.642 1.316 2.724 2.647 5.809 5.571 7.143 1.132.517 3.526 2.068 4.748 2.182 1.273.119 2.805-1.194 3.926-.958-2.022-1.841-.555-8.079.608-10.109a5.039 5.039 0 013.677-2.857 8.754 8.754 0 012.638-.074c.47.015 1.436-.167 1.8-.1a11.236 11.236 0 013.619 1.917 5.735 5.735 0 012.394 3.943 7.3 7.3 0 01.042 4.234 15.983 15.983 0 01-2.138 3.932c-.957 1.6-1.16 2.985-2.477 4.416-1.776 1.928-.658 2.045.549 4.208.859 1.54.115 2.34.988 3.914a25.137 25.137 0 012.481 5.67c.522 1.912 1.208 3.65.943 5.664-.234 1.779-.83 3.56-.935 5.36-.04.676-.982 8.151.176 8 1.222-.162 2.706-6.556 2.882-7.541.57-3.187.836-6.511 2.023-9.571a5.019 5.019 0 013.068-2.742c2.071-.905 2.01-1.269 3.2-3.091.211-.323 1.066-.942 1.134-1.137.108-.312-.079-.35-.042-.527a10.417 10.417 0 00-.1-3.521c-.09.123-.1.617-.286.636-1.277.126.624-5.214.736-5.55A28.43 28.43 0 0190.1 21.72c1.093-1.914 1.693-2.9 3.843-3.638 2.537-.869 4.481-.206 6.7 1.094 1.991 1.168 2.64 2.365 3.443 4.536a9.835 9.835 0 01.692 2.478c.068.824-.287 1.725.155 2.5.867 1.518 3.011 1.065 4.4.788.537-.107 3.943-1.409 4.148-1.158.278.34-1.028.811-1.061 1.14-.027.264 2.372 1.3 2.657 1.485-.5.235-1.9-.318-2.129-.017-.456.6.673.688.539 1.005-.178.42-3.243.1-3.007.63.289.643 3.6 1.128 3.527 1.578-.017.1-3.183.424-3.529.531a22.605 22.605 0 00-2.126.777 22.718 22.718 0 00-2.371.649c-.584.592-.047.891.879 1.612 1.5 1.169 3.383 1.781 4.93 2.889 3.1 2.223 2.348 5.9 3.455 9.234.488 1.468.633 2.952 1.117 4.462.5 1.563 1.212 2.689 1.722 4.074 1.246 3.389-.635 5.617-1.291 8.6-.325 1.479-.566 2.887-2.4 3.075-.841.086-2.958-1.326-3.7-.485-.518.583.151 4.03.191 4.776.095 1.8.066 3.569.308 5.355.263 1.937.559 3.871.824 5.808.086.631.072 4.892.726 5.282.961.574 4.134-4.391 4.549-4.954a9.37 9.37 0 012.343-2.45c.839-.561 3.924-1.428 4.223-2.363.291-.91-.629-2.278-.7-3.2a18.01 18.01 0 01.636-3.825c.313-2.173.953-6.1 2.879-7.519 1.235-.908 4.99-.818 6.282-.044 2.3 1.379 3.25 5.363 4.2 7.669 1.127 2.723.909 4.46-.687 6.959-.941 1.474-1.144 1.034.059 1.971 1.167.909 2.364 1.336 3.259 2.594 3.122 4.389 4.2 10.436 6.258 15.35.6 1.443.943 1.833.373 3.053-.255.547-.781.847-.84 1.435-.157 1.566 2.318 4.764-.85 5.314-2.954.513-1.376-3.744-2.361-5.054-.549-.729-1.357-1.008-1.929-1.817a28.586 28.586 0 01-1.843-3.507c-.326-.635-1.9-3.933-2.481-3.193-.38.485.582 3.164.518 3.825a13.6 13.6 0 00-.083 4.224 15.8 15.8 0 01.441 3.844c-.134 1.178-1.125 1.8-1.327 2.943-.242 1.363.023 3.07-.087 4.492a22.285 22.285 0 00-.082 4.22c.036.307.457.68.5 1.1a7.018 7.018 0 01-.452 1.931c-.309 1.382-.658 2.783-.929 4.172-.474 2.428-.933 5.064.662 6.909q.177-.334.332-.679c.369.611-.381 1.05.374 1.215-.2-.045.734-.736.631-.406.06-.19-.4-.86-.035-.949.184-.045.515 1.681.594 1.831.966-2 1.258.545 1.789.538.567-.008.077-1.106.616-1.276.2-.064.513.081.38.112-.439.1.05.71.179.777.435.225.111-.623.171-.633s1.619-.253 1.579-.3c.3.334-.735 1.024-.146 1.289.616.277.619-.8.741-.9.1-.085.611-.737.878-.671.721.178.042.608.335 1.1.247-.407.959-1.737 1.379-1.712.693.041-.079.291.483 1.078.148-.087.126-.535.355-.506s.2.907.257.991a5.068 5.068 0 01.354-.648 2.034 2.034 0 00.441.716s.775-1.812.773-1.83q.183.561.4 1.111c.29-.368 1.078-.111 1.291.251.071-.267-.041-1.721.286-1.838.792-.285.531 4.768.531 5.238 0 3.114.331 3.011-2.707 3.011H5.164c-.965 0-3.765.51-4.449 0-1.241-.91-.488-6.073-.488-7.758zm84.418-78.264a11.585 11.585 0 01-.667 1.919c-.272 1.047-.139 2.211-.347 3.27-.463 2.356-2.191 4.163-3.153 6.327-.479 1.077-.783 2.235-1.321 3.285-.285.556-1.261 1.393-1.384 1.96-.176.811.61 1.517.8 2.223a17.867 17.867 0 01.256 2.106 22.406 22.406 0 001 2.909c.326 1.135.046 2.214.268 3.348.154.788 1.145 1.788 1.186 2.457.06.978-.087.4-.606.794a1.381 1.381 0 00-.738-.28 1.5 1.5 0 00-.363.728c-.46.5-.326 1.984-1 2.346-1.712.92-.425-3.028-.568-3.921-.087.964-.59 3.585-1.413 4.137-2.024 1.358-.622-2.579-.417-3.359-1.287 1.088-1.078 3.329-2.844 1.641-1-.951-.818-1.647-.683-3.1a6.785 6.785 0 00-.621-3.58c-.8-2.045-3.009-1.741-3.885-4.176-.789-2.192.219-4.556-1.54-6.634-.335 4.044-.548 8.062-1.119 12.087-.253 1.783-.322 3.568-.623 5.348-.322 1.9-1.1 3.489-.349 5.355.713 1.776 1.946 3.276 2.686 5.011a23.013 23.013 0 002.216 4.545c1 1.443 2.031 2.925 3.129 4.3 1.306 1.629 1.654 1.768 3.495 1.117 4.3-1.523 2.91 3.2 1.9 5.425-1.027 2.26-.98 8.347-5.191 7.53-1.038-.2-2.928-1.974-3.539-2.8-.861-1.169-.961-2.753-1.7-4.015-1-1.709-2.258-3.3-3.346-4.953a23.977 23.977 0 00-2.752-4.029c.5 7.084-3.223 13.384-4.905 20-.411 1.616.045 3.153-.448 4.745-.445 1.435-1.318 2.213-.025 3.491.462.456 1.391.942 1.859.708.694-.347-.068.264.4-.147.174-.154-.441-1.025-.009-1.134.4-.1.608 1.087.671 1.256 1.217-.766.774.328 1.3 1.114a1.413 1.413 0 01.4-.557 2.827 2.827 0 00.26.475c-.069.107.5-.977.631-.953.4.07.178 1.434.343 1.722l.26-.455c-.1.023.844.676.9.507.15-.421-.486-.73-.481-1.093.017-1.171.678-.614.88.62.418-.585.207-1.167.327-1.711.429.345.059 1.294.563 1.58.683.386.366-.859.294-.846.155-.028-.207-.6.362-.217s.383 1.244.788 1.728c.2-.581.042-1.154.212-1.759a5.312 5.312 0 00.372.761c.229-.248.014-.639.239-.865.077-.077.8.949 1.121.94.689-.02.906-1.7.591-2.313.292.239.73 1.9.981 1.841.381-.087-.039-1.435.327-1.782.355.805-.167 1.8.625 2.382.324-.888-.143-1.814 0-2.734a7.137 7.137 0 01.626 2.223 14.013 14.013 0 001.386-1.517 2.853 2.853 0 001.286 2.579c.043-.194.209-1.454.563-1.449.2 0 .186.469.293.578.305.312 1.239-1.941 1.306-2.008.143.3-.478 2.771.17 2.647.542-.1.009-1.37.594-1.386.552-.016.062.959.487 1.015.568.076.214-1.93.376-2.212a3.919 3.919 0 00.679 1.532c.057-.144.073-.627.3-.629.5 0 .6 1.45.6 1.456.4-.174.4-.639.743-.912.19.739-.076 1.469.214 2.169.38-1.206-.225-2.382.019-3.657a9.87 9.87 0 00.948 1.31c.235 0 .638-1.759.643-1.8.2.765-.369 1.548.03 2.288a.891.891 0 00.548-.9.627.627 0 00.386.3c.4-.1-.048-1.131.365-1.139.4-.008.209 1.442.494 1.629.685.451.706-.672 1.208-.439.413.192.148 1.222.782 1.07.2-.048.315-1.673.77-1.408.106.061-.419 1.629.186 1.421.4-.136.1-.79.381-1.091.247.3.1.7.354 1 .056-.117.642-1.6 1.03-1.159.322.367-1.026 1.248-.533 1.631.577.448 1.068-1.639 1.065-1.638.162-.058.861.489 1.089.474.243-.016.279-.748.511-.927.484-.372.829 1.64.771-.629a17.6 17.6 0 00-1.254-4.162c-.606-1.876-1.113-3.762-1.621-5.668a49 49 0 01-1.907-12.456 72.775 72.775 0 00-1.087-12.082c-.334-1.819-.811-3.629-1.155-5.451-.329-1.739-1.536-2.154-1.735-3.89a45.864 45.864 0 01.533-12.809c.665-3.636 1.616-7.189 2.437-10.787a21.757 21.757 0 00.663-5.184c-.018-1.228-.301-3.623-1.149-4.558zm24.857 77.83q.109.483.179.973c.447-.4.157-1.016.468-1.476.066.077.192.914.3.933.609.1.7-1.711 1.058-1.834.359.384 0 1.211.472 1.57.367.276.816-.372 1.042.1a1.513 1.513 0 00.283-.457 7.714 7.714 0 00.976.542c-.219.007.982-.351.722-.14.629-.511-.225-.715.48-.681.4.019 1.012 1.3 1.291 1.3.728.017-.134-.685.7-.062.047.035.321 1.479.853 1.129.463-.3-.828-1.178-.257-1.488.512-.278.276 1.31 1.121.532.12.16.063.41.312.577a8.545 8.545 0 00-.065-1.285c.436-.4.668 1.289.88 1.311.5.052.092-.907.383-.977-.233.056 1.092-.211.607.165-.064.05.257.406.529.139s-.2-1.07.179-1.341c.736-.531.31.891.7.891.238 0 .427-1.532.331-1.08a4.645 4.645 0 01.031 1.942c.587-.576.264-1.313.592-1.922.035.049.184 1.073.314 1.066.3-.016.313-1 .7-.544.584.691.156 1.9.265 2.729.2-.4 0-.926.2-1.3s.377.242.612.012a.875.875 0 01.412-.758.967.967 0 01.343.482.531.531 0 00.429-.426 1.65 1.65 0 00.635 1.36c.2-.581-.045-1.172.261-1.67q.163.5.367.975c.309-.426.086-2.157.13-2.735a17.2 17.2 0 01.559-2.6c.394-1.84.342-3.944.547-5.828a17.94 17.94 0 00-.653-6.8c-.187-.736-.766-5.16-1.422-5.2-.685-.039-1.289 3.957-1.376 4.508-.295 1.864-.329 3.691-.7 5.51-.387 1.911-.272 3.768-.786 5.695-.361 1.354-.445 3.371-1.343 4.439a2.546 2.546 0 01-4.261-.437c-.968-1.62-.2-3.728.326-5.26a4.4 4.4 0 00.219-2.6c-.145-.644-.83-1.251-.836-1.889-.009-1 .925-2.3.994-3.453a25.553 25.553 0 00-.076-3.179c-.095-1.382.087-3.348-.6-4.466-.657-1.074-.963-.043-.918-1.887.022-.919.208-1.854.271-2.775.124-1.822.269-3.619.306-5.443a6.112 6.112 0 01-.451-.627 4.015 4.015 0 01.5-1.088 20.489 20.489 0 00.65-3.456c-1.637 1.367-2.82 3.114-4.614 4.4-1.393 1-2.564 2.524-4.07 3.312-1.111.581-1.363-.506-1.815 1.246a15.449 15.449 0 00-.087 3.99 23.507 23.507 0 01-.788 6.635c-.455 1.67-1.011 3.534-3.13 2.452-1.351-.69-2.111-2.8-3.164-3.9-3.91-4.079-3.108-8.606-3.279-13.821-.046-1.408.05-4.649-1.1-5.714a1.839 1.839 0 00-2.95.279c-.636 1.3.3 3.918.465 5.271a24.683 24.683 0 01.129 6.855 22.666 22.666 0 00-.527 6.037c.261 2.441 1.055 4.846 1.1 7.31.045 2.407-.282 4.775-.152 7.2a61.591 61.591 0 00.983 7.515c.45-.4.62-.957 1.05-1.4.263.831-.857.963-.214 1.5.788.66 1.458-.854 2.11-.574.249.107.153.938.233 1.121.259-.3.1-.719.434-1l.588 1.21c.217-.4.73-1.811 1.434-1.765.493.032.124.924.548 1 .251.045.824-.7.925-.649.468.218-.178 1.288.428 1.373.73.1.015-1.133.053-1.154.243-.141 1.533.776 1.707 1.078.326-.489.131-.918.024-1.365.345.181.705 1.421.939 1.4.276-.029.518-.989.741-1.111.2-.108.364.825.792.482.445-.356.106-1.329.436-1.841-.077.659.386 1.048.668 1.541.243-.18.164-.454.318-.629zM51.047 90.235c.643 0-1.35 2.308-1.39 2.38-.73 1.306-.1 2.307-2.19 2.393-1.47.061-2.856-.247-4.38-.1a49.287 49.287 0 01-5.232.141c-3.5-.033-3.734 2.291-3.095 5.365.57 2.737-.139 5.939.226 8.858.178 1.426.808 2.312-.956 2.713-.928.211-4.108-.918-4.708-.331-.366.358.235 2.087.13 2.737-.219 1.359-.734 2.551-.831 3.983a43.523 43.523 0 00-.307 4.419 6.372 6.372 0 01-.883 3.6c-1.362 2.815-2.363 4.711-.912 7.786a5.027 5.027 0 01.244-1.054q.152.127.291.269c.3.037.067-.624.386-.578s.236 1.943.336 2.207c.076-.527.842-1.828 1.48-1.734.191.028.3 1.04.37 1.152.146-.223.213-2.506.731-2.308.549.21-.736 2.331-.029 2.683.289-.155-.1-.883.282-.912.415-.032.051.747.449.839.152-.546.317-.234.5.015.289-.1.064-.633.375-.65s.043.573.364.55a11.211 11.211 0 00.147-2.43c.61.62-.063 1.541.755 1.982-.424-.639.379-.921.353-1.442.309 1.136-.05.8.745.859a2.063 2.063 0 00.541.813c.049-.247-.309-1.621-.02-1.7.5-.132.787 2.484 1.344 2.505 1.033-1.375.03-.814 1.268.409.286-.52-.275-1.033.008-1.6.993 1.3 1.061-.5 1.91-.439.41.03.6 1.239.714 1.429.632-1.241.5-.048.883-.02.02-.095.366-1.083.616-1.042.138.023.267 1.688.394 1.921.136-1.306.6.268 1.124-.062.427-.267-.943-1.378-.872-1.615.294-.985 1.192 1.006 1.323 1.029-.16-.028 1.071-.8 1-.7.336-.485.056-1.752.06-2.278.023-2.608.831-3.816 1.668-6.185a88.791 88.791 0 002.7-11.611 109.285 109.285 0 001.945-11.525c.408-4.245.143-8.46.143-12.721z" fill="#5784d1"/></svg>