<svg viewBox="0 0 111.719 146" xmlns="http://www.w3.org/2000/svg"><g fill="#44b0e4"><path d="M61.471 123.7c-.977 2.292-2.523 3.822-5.143 3.861s-4.179-1.468-5.237-3.762a6.911 6.911 0 01-2.18 2.857 5.312 5.312 0 01-7.662-1.8 4.861 4.861 0 01-.681-2.538 40.322 40.322 0 00-.171-6.567 11.966 11.966 0 00-3.3-6.83 18.508 18.508 0 00-7.09-4.257 28.443 28.443 0 00-3.813-1.144c-1.134-.232-2.264-.513-3.406-.721-2.045-.373-4.118-.569-6.149-1.053-.836-.2-1.7-.339-2.552-.523-1.985-.43-4.769-2.877-4.4-5.319a6.192 6.192 0 01.675-2.066 5.1 5.1 0 00-.38-5.725c-.577-.84-1.185-1.657-1.688-2.548a2.594 2.594 0 01.846-3.617c.192-.136.556-.166.534-.435-.025-.307-.412-.309-.635-.365a3.073 3.073 0 01-2.222-1.787c-.473-1.034.089-1.871.47-2.693a19.346 19.346 0 00.983-2.334 2.742 2.742 0 00-.888-2.5 12.28 12.28 0 00-3.709-2.632 18.245 18.245 0 01-2.233-1.328C-.635 66.22-.111 64.928.775 63.447A20.977 20.977 0 013.27 60.4q2.435-2.737 4.672-5.632a37.39 37.39 0 003.679-5.473 10.443 10.443 0 001.053-6.415 9.325 9.325 0 01.294-3.613 45.8 45.8 0 013.961-10.417 53.071 53.071 0 0113.225-16.192 60.913 60.913 0 015.84-4.305 63.056 63.056 0 017.065-3.83 46.072 46.072 0 016.847-2.561A58.852 58.852 0 0156.778.484c2.426-.4 4.853-.238 7.269-.471a11.481 11.481 0 011.6.093 52.827 52.827 0 017.188.825 44.849 44.849 0 018.212 2.377 47.47 47.47 0 0111.531 6.484 49.178 49.178 0 017.331 6.927 50.847 50.847 0 014.322 5.816 43.554 43.554 0 012.881 5.194 42.79 42.79 0 012.394 6.207c.408 1.418.833 2.834 1.13 4.275a47.941 47.941 0 01.906 6.1 56.027 56.027 0 01.1 7.347 43.5 43.5 0 01-.758 5.686c-.283 1.476-.579 2.944-.987 4.387a36.012 36.012 0 01-1.947 5.228 37.658 37.658 0 01-2.782 5 34.8 34.8 0 01-4.651 5.537 33.063 33.063 0 01-9.449 6.4 32.412 32.412 0 01-6.851 2.316 36.478 36.478 0 01-10.554.91 25.233 25.233 0 01-5.239-.777c-.729-.214-1.517-.259-2.268-.476a42.558 42.558 0 01-4.447-1.5 37.427 37.427 0 01-4.767-2.451 30.52 30.52 0 01-5.459-4.179 28.961 28.961 0 01-4.836-5.775 26.594 26.594 0 01-2.788-5.549c-.385-1.164-.988-2.257-1.343-3.445-.592-1.985-1.429-3.883-2.13-5.829-.512-1.424-.991-2.866-1.582-4.267-.562-1.331-.962-2.729-1.457-4.088-.653-1.793-1.335-3.575-1.991-5.367-.506-1.383-1.015-2.767-1.472-4.167a.716.716 0 01.547-1.036c1.426-.457 2.811-1.044 4.219-1.561.4-.147.524-.324.35-.759-.54-1.352-1.039-2.72-1.548-4.084-.182-.488-.168-.866.446-1.077 1.463-.5 2.9-1.091 4.368-1.573.467-.153.5-.349.361-.718-.351-.921-.681-1.851-1.063-2.758a10.465 10.465 0 00-.613-1.7c-.2-.314.063-.507.387-.626 1.454-.536 2.9-1.106 4.35-1.639 1.886-.692 3.78-1.363 5.671-2.04 2.322-.831 4.627-1.705 6.964-2.5 1.811-.613 3.57-1.377 5.367-2.034 2.518-.921 5.051-1.8 7.576-2.708a14.393 14.393 0 001.825-.712c.569-.3.866-.126 1.059.4.506 1.389 1 2.783 1.506 4.171.531 1.449 1.084 2.89 1.613 4.34.5 1.363.964 2.737 1.469 4.1.511 1.377.985 2.766 1.569 4.121a30.288 30.288 0 011.526 4.3c.261 1 .652 1.963 1 2.936q1.455 4.032 2.926 8.059c.506 1.385 1.037 2.762 1.543 4.147.521 1.429 1.023 2.865 1.539 4.3a10.9 10.9 0 00.63 1.622c.317.57.145.842-.4 1.038-1.411.508-2.808 1.06-4.236 1.516-.534.17-.665.374-.48.873.519 1.4 1 2.824 1.544 4.218.2.5.072.7-.394.862-1.411.5-2.8 1.061-4.223 1.534-.545.181-.713.379-.488.934.37.915.68 1.853 1.019 2.781.144.395.128.625-.365.814-.609.233-1.221.469-1.827.713-.451.181-.729.059-.88-.433-.693-2.261-1.565-4.463-2.382-6.678-.943-2.558-1.863-5.128-2.82-7.682-.844-2.255-1.6-4.548-2.446-6.8-.947-2.533-1.8-5.1-2.825-7.607-.722-1.76-1.289-3.584-1.927-5.378-.461-1.3-.922-2.6-1.391-3.891-.1-.281-.237-.372-.6-.256-2.693.856-5.312 1.917-7.973 2.86-2.479.878-4.946 1.8-7.413 2.719-2.724 1.013-5.478 1.943-8.2 2.96-.837.313-1.658.66-2.517.919-.478.144-.39.548-.256.913.737 2.016 1.486 4.028 2.212 6.048.859 2.387 1.627 4.809 2.567 7.163 1.039 2.6 1.937 5.254 2.912 7.877.478 1.285.943 2.582 1.475 3.842a19.936 19.936 0 002.302 3.854 24.476 24.476 0 008.747 7.386 30.864 30.864 0 007.988 2.77 32.661 32.661 0 007.453.632 27.525 27.525 0 005.487-.585 36.565 36.565 0 005.762-1.731 27.736 27.736 0 007.912-4.8 29.056 29.056 0 005.651-6.531 31.313 31.313 0 003.529-7.926c.47-1.648.865-3.313 1.213-4.987a19.872 19.872 0 00.177-2.451 39.84 39.84 0 00.145-5.034 45.51 45.51 0 00-.61-5.853 38.7 38.7 0 00-2.4-8.052 39.848 39.848 0 00-3.707-6.811 41.071 41.071 0 00-6.657-7.691A39.341 39.341 0 0075.09 9.8c-1.6-.5-3.242-.793-4.862-1.17a24.4 24.4 0 00-4.4-.5 40.524 40.524 0 00-9.094.461 35.842 35.842 0 00-5.975 1.531c-1.546.566-3.078 1.144-4.565 1.854a39.552 39.552 0 00-6.43 3.8 38.22 38.22 0 00-9.531 9.877 44.014 44.014 0 00-4.284 8.3 46.387 46.387 0 00-2.032 6.732 24.565 24.565 0 00-.648 4.751c-.02 1-.189 2-.136 2.986a62.129 62.129 0 00.63 7.393 43.593 43.593 0 001.457 6.056 30.513 30.513 0 003.2 6.97 31.429 31.429 0 002.611 3.924 45.317 45.317 0 006.226 6.17 42.687 42.687 0 008.51 5.245c2.022.914 4.134 1.628 6.18 2.493a45.275 45.275 0 019.815 5.108 27.071 27.071 0 016.053 6.2 22.269 22.269 0 013.317 7.6 30.629 30.629 0 01.745 5.018c.221 3.047.144 6.093.074 9.134a12.588 12.588 0 01-.3 4.155 4.956 4.956 0 01-2.486 2.917 5.3 5.3 0 01-7.707-3.106zm8.25-104.5c.563-.112.646.153.754.406.691 1.62 1.257 3.286 1.845 4.944q1.027 2.9 2.059 5.8c.472 1.321.941 2.643 1.428 3.959.822 2.22 1.678 4.427 2.481 6.654.622 1.725 1.241 3.452 1.87 5.173.555 1.518 1.1 3.041 1.664 4.556.329.881.658 1.762.977 2.646.162.45.339.713.9.424a7.64 7.64 0 011.512-.5c.313-.085.385-.21.266-.521-.3-.79-.567-1.594-.855-2.39q-1.03-2.852-2.066-5.7c-.748-2.071-1.452-4.159-2.251-6.21-.585-1.5-1.082-3.037-1.729-4.519-.7-1.6-.944-3.365-1.773-4.918a10.506 10.506 0 01-.423-1.385c-.846-2.262-1.709-4.517-2.541-6.784-.576-1.567-1.113-3.148-1.665-4.723-.125-.358-.208-.544-.706-.319-1.005.455-2.076.767-3.122 1.132q-1.982.69-3.948 1.424c-1.444.54-2.9 1.048-4.339 1.611-1.345.527-2.72.976-4.078 1.469q-2.829 1.025-5.653 2.064-2.488.911-4.974 1.826c-.36.133-.528.339-.253.716a1.84 1.84 0 01.2.466c.478 1.331.485 1.354 1.771.9 2.281-.8 4.553-1.628 6.825-2.453 2.638-.957 5.272-1.926 7.91-2.884q3.885-1.411 7.774-2.811c.107-.053.221-.086.14-.059zm12.162 41.1c-.033-.1-.078-.238-.125-.376-.319-.936-.6-1.887-.964-2.8-1.251-3.146-2.34-6.351-3.494-9.532-.6-1.658-1.215-3.313-1.811-4.972a324.452 324.452 0 00-1.767-4.829c-.623-1.651-1.189-3.323-1.791-4.981-.685-1.886-1.383-3.767-2.073-5.652-.448-1.223-.888-2.449-1.337-3.672-.083-.227-.2-.355-.5-.243-1.2.452-2.409.858-3.6 1.315-1.765.675-3.558 1.271-5.317 1.965s-3.586 1.174-5.335 1.873c-2.335.932-4.722 1.713-7.072 2.6-1.623.611-3.266 1.171-4.9 1.753-.295.105-.5.337-.341.609.293.488.347 1.053.6 1.554.176.349.354.415.674.3q3.751-1.363 7.5-2.728 4.019-1.484 8.029-2.958c2.226-.814 4.433-1.687 6.687-2.414 1.937-.625 1.57-1.095 2.344 1.018.633 1.727 1.232 3.471 1.87 5.193.535 1.444 1.112 2.888 1.617 4.339.905 2.6 1.876 5.181 2.795 7.777.8 2.272 1.669 4.528 2.493 6.8 1.058 2.909 2.209 5.786 3.13 8.744.095.3.277.514.655.37a47.56 47.56 0 011.7-.612c.209-.074.35-.165.333-.448zm-25.562 75.942c2.094 0 4.189 0 6.283.006.25 0 .59-.138.73.151.126.26-.1.505-.257.717q-1.684 2.277-3.378 4.547c-.983 1.32-1.973 2.634-2.95 3.957-.371.5-.6.511-.988-.008l-6.305-8.49c-.157-.211-.413-.427-.288-.7.136-.3.475-.17.724-.171 2.142-.013 4.285-.009 6.429-.009z"/><path d="M68.529 53.465c-.131.457-.6.534-.959.662-2 .717-4 1.423-5.988 2.189-2.478.958-5 1.79-7.505 2.686-1.25.448-2.5.913-3.738 1.382-.356.134-.706.191-.856-.231-.169-.477.256-.547.569-.659 2.157-.775 4.32-1.537 6.473-2.324 2.582-.944 5.155-1.909 7.733-2.864q1.727-.64 3.455-1.275c.422-.154.846.056.816.434zm-24.276-8.917c-.326 0-.532-.035-.578-.323a.473.473 0 01.322-.579q1.875-.687 3.751-1.368c1.474-.538 2.944-1.086 4.422-1.614 1.412-.5 2.836-.977 4.248-1.484 1.318-.474 2.627-.971 3.938-1.465.545-.205 1.085-.424 1.625-.643a.507.507 0 01.714.309c.133.311-.052.481-.353.589-2.091.751-4.191 1.481-6.27 2.259-1.766.66-3.553 1.264-5.3 1.969-1.3.521-2.633.937-3.948 1.409-.635.228-1.262.478-1.894.713-.253.092-.507.171-.677.228zM70.81 59.806c.014.35-.25.418-.471.5-1.542.567-3.087 1.124-4.631 1.686-1.886.687-3.771 1.38-5.659 2.062-2.3.831-4.6 1.652-6.9 2.481-.225.081-.438.2-.658.293a.431.431 0 01-.647-.257c-.125-.316.019-.494.321-.607 1.13-.421 2.252-.864 3.384-1.28 1.884-.693 3.773-1.372 5.66-2.055 1.638-.593 3.278-1.179 4.915-1.776 1.159-.423 2.311-.864 3.47-1.287a1.827 1.827 0 01.852-.166c.265.031.393.156.364.406zm-1.161-3.241a.919.919 0 01-.679.681c-2.978 1.064-5.965 2.106-8.938 3.184-2.223.806-4.423 1.676-6.647 2.478a20.124 20.124 0 00-2.044.72.5.5 0 01-.725-.261c-.172-.314.085-.4.308-.524a22.537 22.537 0 013.322-1.243 325.335 325.335 0 016.654-2.469c1.452-.525 2.937-.962 4.374-1.526 1.217-.477 2.434-.943 3.679-1.342.384-.127.595-.024.696.302zm-5.257-13.093c.339-.019.5.089.557.346.063.3-.12.461-.365.547-.89.312-1.761.675-2.641 1.01-1.737.661-3.5 1.264-5.26 1.856-1.676.563-3.327 1.2-4.989 1.8-1.632.587-3.281 1.148-4.883 1.823-.29.122-.546.223-.728-.161s.083-.571.343-.678a27.217 27.217 0 012.909-1.1c1.026-.29 1.988-.738 3-1.067 1.493-.487 2.954-1.071 4.428-1.614 1.814-.668 3.627-1.34 5.444-2 .747-.277 1.506-.527 2.185-.762zM48.936 57.293c-.278-.015-.54.018-.581-.335a.486.486 0 01.337-.572c1.631-.606 3.254-1.236 4.9-1.808 1.844-.642 3.68-1.3 5.5-2.007 1.327-.514 2.682-.956 4.023-1.436 1.093-.392 2.178-.8 3.274-1.184.293-.1.681-.374.879.1s-.164.606-.542.74q-3.584 1.272-7.156 2.579c-2.173.8-4.332 1.639-6.505 2.441-1.293.477-2.63.833-3.878 1.435a.852.852 0 01-.251.047zm-3.592-9.604c-.221.012-.429-.035-.487-.3-.085-.391.21-.505.487-.608q1.906-.7 3.816-1.394c1.356-.491 2.714-.975 4.07-1.465q2.145-.774 4.287-1.554 2.716-.99 5.431-1.984c.288-.105.623-.331.807.107s-.172.635-.484.756c-.99.385-1.994.731-2.992 1.1-1.836.672-3.67 1.352-5.508 2.019-1.406.51-2.82 1-4.226 1.508-1.475.535-2.951 1.069-4.412 1.64-.261.097-.523.086-.789.175zm20.115-1.016c.359-.026.61.044.684.313.09.326-.186.505-.421.594-1.24.469-2.492.907-3.739 1.356l-5.315 1.912c-1.339.483-2.678.964-4.014 1.456-1.609.593-3.217 1.19-4.819 1.8-.31.119-.528.1-.65-.218s-.05-.522.326-.656q3.448-1.23 6.88-2.501c2.334-.863 4.655-1.76 7-2.6 1.294-.467 2.61-.873 3.88-1.409a.672.672 0 01.188-.047zM53.514 70.011c-.323.017-.533-.051-.589-.309a.523.523 0 01.4-.611c.768-.29 1.549-.545 2.32-.828q3.431-1.263 6.854-2.531a4.307 4.307 0 01.485-.159.447.447 0 01.607.359.457.457 0 01-.339.562c-2.12.733-4.2 1.563-6.333 2.275-.914.305-1.812.681-2.726 1-.252.088-.503.179-.679.242z"/></g></svg>