<svg viewBox="0 0 148.188 147.555" xmlns="http://www.w3.org/2000/svg"><g fill="#414c89"><path d="M141.635 60.599q0-5.652-.016-11.3a8.524 8.524 0 00-.027-2.433c-.216-.541-.483-.5-.969-.675-.769-.282-1.553-.491-2.344-.7-.692-.183-2.114-.276-2.664-.742-.594-.5-.357-1.548-.354-2.244v-9.192q0-5.849.005-11.7a7.394 7.394 0 00-.089-2.734c-.311-.656-1.249-1.127-1.817-1.561q-.96-.732-1.935-1.442c-.634-.459-1.818-1.007-2.128-1.713a8.307 8.307 0 01-.033-2.484V8.971q0-2.979.006-5.957c0-.587.3-2.113-.049-2.6a1.62 1.62 0 00-1.568-.34c-.461.174-.376.128-.4.722-.042 1.035.015 2.089.013 3.126-.007 3.868 0 7.736 0 11.6V42.23c-1.229-.32-2.358-.61-3.581-.9-.574-.135-1.055-.436-1.609-.612-1-.318-1.07-.064-1.094.856-.1 3.628.009 7.273.017 10.9l.014 4.906a10 10 0 01.01 2.725c-.27.768-.954.5-1.735.5h-2.5c-.387 0-1.607-.257-1.916.115-.285.344-.107 1.153-.112 1.618-.053 5.853-.016 11.709-.017 17.562v10.893c0 2.283.139 4.623-.017 6.9-.084 1.23-.693.957-2.066.958-.441 0-1.641.234-2-.054-.32-.26-.144-1.287-.145-1.629V78.202c0-.536.2-1.621-.075-2.082s-.648-.492-1.167-.493c-.689 0-.644.274-.951-.315a3.938 3.938 0 01-.051-1.525q-.008-12.1-.005-24.2v-9.435a8.139 8.139 0 000-2.561c-.3-.7-.067.027-.555-.376-.274-.226-.341-.06-.517-.5-.047-.116.1-.316.054-.435-.192-.479-.386-.246-.6-.59-.074-.116-.177-.5-.244-.574l-.052-.267h-.944c-.882-.193-.3.146-.5-.448a6.849 6.849 0 010-1.8c-.879 0-3.1.429-3.679-.347-.308-.411-.082-1.417-.082-1.906v-3.03c-.781 0-.568-.084-.751.51a7.054 7.054 0 00-.006 1.775c0 .549.28 2.185-.029 2.666-.39.607-1.661.337-2.292.334h-3.164c-1.055 0-2.109-.01-3.164 0-.819 0-1.015-.078-1.228.661-.1.351.183.949-.138 1.274-.4.4-.437.078-.868.038-.409-.038-1.986-.614-1.9.278H82.25c-.774 0-1.012-.035-1.485.409-.653.615-.631.973-.631 1.949-1.317-.418-.743 2.626-.742 3.392v39.629c0 .471.263 1.8 0 2.145-.275.356-1.463.177-2.067.177h-2.581a6.115 6.115 0 01-1.555 0h-.522v-35a7.345 7.345 0 000-1.117 5.789 5.789 0 00-1.277 0h-8.266c-.918 0-1.837.007-2.756 0a1.618 1.618 0 00-1.326.344c-1.306.733-2.6 1.561-3.9 2.349s-2.568 1.652-3.884 2.417a3.981 3.981 0 01-1.963.566c-.453.022-2.218-.306-2.572.09-.275.308.033 1.964.033 2.341v19.448c0 1.717 0 3.427.089 5.141.1 1.831-.253 3.716-.08 5.533a42.6 42.6 0 01-.046 4.961c-.038 1.935.054 3.869.057 5.8 0 1.852-.043 3.7-.042 5.557 0 1.92.193 3.935.019 5.845-.052.564-.158 1.255-.915 1.115-.885-.164-.539-1.308-.542-1.983-.009-1.922.015-3.844.041-5.766.014-1.031.093-2.094.036-3.125a4.054 4.054 0 00-.117-1h-.736q-.579.2-.391-.375a8.636 8.636 0 010-2.574V83.66a53.8 53.8 0 000-6.682c-.112-.867-.511-1.076-1.071-1.645-.346-.352-.385-.955-.791-1.24-.492-.346-1.174.157-1.587-.249-.36-.353-.057-2.069-.057-2.531-.58.02-.062 1.694-.24 2.132-.279.689-.429.309-1.055.573-.447.189-.3.2-.547.543s.116.374-.327.584a5.014 5.014 0 01-1.349 0 11.382 11.382 0 01-2.474-.166c-.691-.153-.976.084-1.676.167-.954.113-.821-.29-.826-1.128 0-.577.213-1.769-.187-2.256-.2 1.075.518 3.1-.741 3.493-.483.153-.883-.121-1.3.252a4.525 4.525 0 00-.739 2.243c-.012.746.052 1.506.061 2.253.045 3.893.036 7.787.032 11.681q-.005 5.615-.033 11.229c-.006.948.3 1.961-.822 2.128-1.428.212-1.148-.642-1.149-1.719q-.01-11.572 0-23.144V62.967a21.83 21.83 0 01.349-3.368c.547-3.685.742-7.425 1.256-11.125.17-1.221.293-2.433.376-3.662a7 7 0 00.106-1.6q.323-.7-.344-.619l-.479-.054c-.69-.054-1.938.312-2.338-.373-.42-.72-.044-2.747-.046-3.589q.004-3.311.067-6.621c.021-1.069.047-2.138.06-3.207q.009-.705.007-1.411v-.964q.246-.73-.472-.494c-.548-.177-2.257.384-2.654 0-.482-.468.424-2.091-.106-2.647-.55-.577-2.106.337-2.733-.215-.37-.326 0-.934-.278-1.3-.585-.766-1.938.146-2.44-.654-.259-.413.177-1.173-.254-1.509s-1.908-.065-2.438-.065v-8.223c0-.484.277-1.779-.037-2.165-.164-.2-.6-.489-.9-.175a9.7 9.7 0 00.062 2.4v5.568a7.337 7.337 0 01-.027 2.328c-.343.513-1.135.188-1.634.272-1.4.236-.23 1.087-.9 1.794-.262.275-1.027.022-1.33.1-.578.142-.28-.256-.489.406-.088.279.136.686.007.944-.524 1.052-2.181-.369-2.724.764-.283.591.334 1.657-.067 2.195-.273.366-1.009.179-1.415.178h-.509q-.718-.265-.534.369a4.575 4.575 0 000 .889V30.4c0 3.628.062 7.261.013 10.888-.022 1.65-.9 1.239-2.326 1.251-.793.007-.918-.149-.936.536-.02.715.291 1.635.334 2.381A83.881 83.881 0 002.71 55.473c.292 1.62.252 3.263.557 4.9a27.981 27.981 0 01.363 5.222q.005 5.554.005 11.111v44.646c0 .806-.006 1.611-.006 2.417a6.376 6.376 0 010 2.144c-.256.523-.607.4-1.151.4-.391 0-.781-.007-1.171 0-.587 0-.956-.139-1.172.287-.3.6 0 2.12 0 2.8v16.389c0 .246-.171 1.511.011 1.686.055.053.314-.02.387 0a9.873 9.873 0 002.338 0H146.24c.339 0 1.487.2 1.777 0 .208-.143.118-.506.118-.842V61.859c0-.225.121-.9 0-1.089-.205-.328-1.405-.159-1.857-.159-1.543 0-3.096.016-4.643-.012zM8.417 45.766c.981.17 2.654.014 2.613 1.353-.043 1.4-1.585 1.206-2.613 1.384zm-.026 3.5c.114-.774-.035-.694.769-.694h1.757l-.121 2.3c-1.039-.219-2.636-.106-2.405-1.606zm.045 4.5c.195-.573 1.843-.933 2.354-.554.2.151.157 1.455.084 1.77-.044.19.052.363-.066.463a3.312 3.312 0 01-1.054 0c-1.001-.071-1.695-.579-1.319-1.684zm-.1 4.814l-.072-.564h2.771c-.127.712.013 1.87-.662 2.309-1.427.919-1.906-.773-2.038-1.75zm3.243 27.5a1.53 1.53 0 01-1.567.937c-.146.007-.92.046-1.017-.064-.27-.305-.108-1.738-.135-2.174.932-.042 3.289-.491 2.72 1.295zm-.111-13.4c.255 1.172.042 2.521-1.532 2.252-1.153-.2-1.054-1.3-1.075-2.252zm-2.6-3.81c-.156-1.762 3.234-1.612 2.758.383-.194.813-.957.93-1.685.842-.783-.105-1.025-.444-1.07-1.234zm.038 14.5c.464-2.215 3.451-1.006 2.612.624-.348.676-1.315.567-1.971.53-.3-.017-.478.051-.619-.126a2.378 2.378 0 01-.019-1.04zm2.486-4.083a2.362 2.362 0 01-2.155.146 1.259 1.259 0 01-.2-1.6c.327-.4.937-.526.9.16-.318-1.092 2.921-.269 1.459 1.282zm-.7-11.776a4.5 4.5 0 01-2.125-.623l.3-.46c-.159 0 .392-.857.459-.9a2.222 2.222 0 011.261-.092c1.222.169 1.539 2.062.111 2.062zm1.04-29.32c-.736.736-2.837.263-2.5-1.08.441-1.73 3.994-.429 2.503 1.067zm-1.082-4.28c-1.452-.085-1.964-2.167-.28-2.378 1.94-.255 2.216 2.149.286 2.365zm1.364-3.774c-.055.895-.369 1.151-1.23 1.207-.785.051-1.46-.076-1.54-.994-.151-1.838 2.891-1.984 2.777-.226zm4.5 48.363c.009 1.135-2.017 1.556-2.626.653-1.107-1.669 2.622-2.535 2.637-.665zm-.3-20.755c-1.067 1.092-3.5-.432-2.234-1.786 1.141-1.222 3.618.368 2.247 1.774zm.128 7.095c-.32.4-1.669.429-2.154.3-.528-.138-.213.131-.414-.252a3.707 3.707 0 010-1.366c.036-.209-.071-.467.069-.567.186-.132.938-.019 1.181-.009.849.028 2.143.875 1.331 1.882zm-2.283-18.7c1.254-.949 3.445.647 2.185 1.958a2.192 2.192 0 01-1.871.184 1.406 1.406 0 01-.301-2.155zm.806 7.034c1.752-.082 2.285 2.209.387 2.275-.391.014-.952.084-1.271-.253a1.266 1.266 0 01.896-2.035zm.068 16.869c.342 0 1.277-.106 1.447.09a2.066 2.066 0 01-.385 2.2 2.128 2.128 0 01-1.873-.1 1.261 1.261 0 01.824-2.203zm1.309 18.966c-1.042 1.048-3.707-.569-2.143-1.766 1.071-.826 3.469.439 2.155 1.752zm.034-7.141c-1.041 1.149-3.514-.269-2.279-1.717 1.012-1.185 3.575.291 2.291 1.704zm5.729-5.625c-.016 1.1-2.15 1.392-2.655.506-1.015-1.817 2.695-2.724 2.667-.519zm-.47-15.64c-.193 1-.008 2.319-1.392 2.319-1.4 0-1.211-1.31-1.392-2.319zm.038 6.863h-2.824c.206-1.007.025-2.048 1.4-2.045 1.323.004 1.186 1.063 1.423 2.045zm-2.628-18.89h2.514a6.157 6.157 0 01-.187 1.746c-.242.5-.488.323-1.181.323-.566 0-.938.143-1.146-.238s0-1.382 0-1.831zm-.032 2.36c.475 0 2.052-.274 2.4 0a6.863 6.863 0 01.035 2.109 7.669 7.669 0 01-2.4 0c-.245-.192-.036-1.725-.036-2.109zm2.579 4.713c-.155 1.034.054 2.463-1.388 2.448-1.38-.014-1.2-1.44-1.389-2.448zm.015 12.041c-.17 1.08.007 2.675-1.588 2.439-1.164-.173-1.028-1.508-1.235-2.439zm-.751 38.319c-1.174 1.188-3.951-.958-1.818-1.879 1.142-.493 3.045.651 1.817 1.879zm-2.845-4.3a11.117 11.117 0 012.215.03c1.445.3.872 1.827-.256 2.1-.613.148-.9.375-1.231-.02a7.728 7.728 0 01-.729-2.112zm1.609-2.545c-1.775.258-1.665-2.488.233-2.429a1.168 1.168 0 011.225 1.6c-.205.785-.716.831-1.458.831zm2.25-10.181c-.391.4-1.137.439-1.11-.245a2.3 2.3 0 01.008.5c-.819 0-1.4-.106-1.414-1.068-.012-.742.356-1.143 1.106-1.11a1.343 1.343 0 01-1.016-1.876c.3-.528.792-.495 1.321-.492.63 0 1.242.036 1.344.8a1.479 1.479 0 01-1.138 1.556 1.16 1.16 0 01.899 1.934zm.145-7.344a1.792 1.792 0 01-2.44.23c-1.117-1.323 1.225-2.591 1.016-1.517-.113-1.034 2.186-.157 1.423 1.286zm12.8 7.794c-.03.627-.321 1.334-.843 1.478-.692.191-.7-.165-.8-.646-.322-1.561 1.728-1.739 1.638-.833zm-1.59-.525v-3.03c.569.366 1.547.807 1.516 1.609-.036.77-.946 1.107-1.521 1.42zm.915-6.988c.922 1.014.43 1.661-.312 2.58a2.113 2.113 0 01-.672-1.878c.064-.359.436-.8.407-1.134-.049-.569-.9-.982-.149-1.59.438-.354 1.211-.049 1.689.08zm2.567 5.865c-.106.544-1.156 1.148-1.567 1.5v-3.071l.513.1a1.7 1.7 0 01.245-2.6c.927 1.044 1.083 1.695-.054 2.654.345.091.6.423.852.411.292-.015.628-.442.933-.5.92-.187 1.486.721 1.219 1.591a.861.861 0 01-1.408.473c-.429-.323-.26-.918-.745-1.178a1.42 1.42 0 01.008.619zm1.888 5.3c-.171.231-.2.435-.421.457-.2.02-.773-.474-.865-.579-.74-.844-.278-1.581.616-1.933-.494-.526-1.231-1.213-.511-1.981.329-.351-.02-.176.546-.233.179-.018.6.01.7.125.231.283.066 1.424.041 1.736a2.5 2.5 0 00-.067.656c.052.633.389 1.153-.044 1.746zm2.343 10.5a.876.876 0 01-1.224.654c-.576-.289-.2-.64-.357-1.027-.077-.186-.366-.383-.507-.531a3.912 3.912 0 011.481-.217c-1.1-.839-1.28-1.9.145-2.469-.566-.355-.98-.441-1.125-1.168a1.057 1.057 0 01.379-1.123.694.694 0 01.9.212c.533.571.223 1.26.116 1.96l.135-.059a17.953 17.953 0 01.054 3.762zm10.92-40.867c.066 1.108-.324 2.034-1.635 1.658-.689-.2-.452-.475-.452-1.279 0-.365-.175-1.521.051-1.761a3.6 3.6 0 01.98-.036c.998.077 1.018.488 1.056 1.418zm.007 8.813c0 1.1-.236 1.7-1.477 1.618-.87-.061-.626-.3-.626-1.166 0-.268-.2-1.749 0-1.943a3.681 3.681 0 011.149.009c.779.191.978.707.954 1.482zm-2.13-14.824c.376 0 1.8-.229 2.054 0a7.787 7.787 0 01.04 2.358c-.112.884-1.034 1.506-1.808.74-.622-.616-.286-2.239-.286-3.098zm2.211 26.182c-.017.826.149.79-.578.967-.525.128-1.1.153-1.633.227a13.951 13.951 0 01-.04-2.633 1.107 1.107 0 011.47-.837c.861.333.798 1.53.781 2.276zm1.584-21.533c1.165-.2 1.649.049 1.708 1.362a3.98 3.98 0 010 1.213c-.157.405.022.185-.388.391-1.173.587-1.688-.378-1.7-1.371-.007-.514-.363-1.677.38-1.595zm-.135 4.436a1.677 1.677 0 011.836 0 5.614 5.614 0 01.004 2.074c-.1.879-.866 1.45-1.681.8a2.7 2.7 0 01-.159-2.875zm-.483 9.85c-.338-1.207.7-1.367 1.582-1.331.785.032.663 0 .74.682.069.625.282 2.309-.309 2.732-.48.344-.9-.177-1.345.207-.001-.001-.562-1.915-.668-2.291zm3.066 28.2a1.08 1.08 0 01-1.611.917c-.675-.349-.573-1.383-.508-2.054.071-.748.42-1.268 1.271-1.109 1.151.213.785 1.389.848 2.244zm.012-5.735c-.051.828.278 2.032-.768 2.34-1.125.332-1.367-.683-1.368-1.532a3.038 3.038 0 01.148-1.509 1.1 1.1 0 011.988.699zm12.862-44.851c.039-.953.453-2.344 1.809-1.57.473.27.15-.1.322.457a5.1 5.1 0 010 1.362c-.016.809-.145 1.317-1.03 1.509-.556.12-.2.252-.606-.08a2.116 2.116 0 01-.495-1.678zm-3.366 3.421c1.346.009 1.984.163 2 1.655a4.94 4.94 0 010 1.382c-.139.29-.211.218-.6.308-1.964.449-1.4-2.078-1.4-3.345zm-4.151 1.089c.057-.821 1.248-1.641 2-.977a5.367 5.367 0 01.092 2.762 1.427 1.427 0 01-1.77.46c-.429-.23-.231.029-.334-.538a7.255 7.255 0 01.012-1.707zm2.109 3.571c0 .634.325 2.455 0 2.95a4.278 4.278 0 01-2.125.117 8.523 8.523 0 010-2.815c.271-.484 1.429-.25 2.121-.25zm-5.584-7.626c-.012-.837-.106-2.058 1.01-2.049s1.471 1.385 1.207 2.3c-.215.743-.978.91-1.71.769-.704-.132-.508-.229-.511-1.018zm2.254 45.323a1.355 1.355 0 01-.5 1.27c-.225.139-1.325.315-1.542.081-.279-.3-.059-1.729-.059-2.178 0-.9-.2-1.2.824-1.21 1.355-.009 1.278.957 1.273 2.039zm1.021-26.786c.086-.89-.086-2.213.947-2.489 1.542-.412 1.409 1.22 1.407 2.219 0 .82.126.858-.7.946-.538.057-1.735.198-1.654-.676zm2.357 31.592a1.092 1.092 0 01-1.619.915c-.665-.345-.52-1.131-.507-1.769.016-.8.155-1.412 1.069-1.4 1.322.007 1 1.325 1.054 2.254zm-2.128-9.7c-.006-.75-.2-1.714.608-2.091.239-.111 1.151-.215 1.362-.024.33.3.121 1.669.121 2.2 0 1.04 0 .877-1.044.877-1.09-.001-1.048.121-1.05-.964zm1.889-10.84a1.36 1.36 0 01-1.876-.2 4.214 4.214 0 01-.142-2.134c.1-.621-.071-.479.625-.508.539-.022 1.084 0 1.624 0-.001.784.308 2.271-.234 2.84zm4.36 4.02c-.384 0-1.83.223-2.082-.016a8.409 8.409 0 010-2.649 1.208 1.208 0 012.01.152 7.4 7.4 0 01.069 2.511zm-.017-9.83a1.242 1.242 0 01-1.816.9c-.43-.244-.3-.589-.3-1.146.006-.817-.045-1.89 1.072-1.842 1.15.045 1.136 1.225 1.041 2.086zm-.053-9.344c-.2.648-1.351.946-1.922 1.264-.072-.859-.517-2.626-.024-3.3a1.331 1.331 0 011.6-.336c.624.412.538 1.753.344 2.369zm3.441-4.592c-.066.635-.015.55-.483.817a1.214 1.214 0 01-1.732-.234 2.675 2.675 0 01.414-2.711 5 5 0 011.794-.448 15.092 15.092 0 01.005 2.573zm14.523-22.362c-.655 0-1.287-.045-1.59-.657a1.246 1.246 0 01.7-1.7c.544-.159 1.479.024 1.708.571.2.482.04 1.471-.442 1.7l.334-.117.231 2.65c-.83-.278-2.081.055-2.5-.819-.725-1.517 1.008-1.357 1.841-1.681a.9.9 0 01-.282.053zm.853 7.893a1.327 1.327 0 01-2.2.947 1.231 1.231 0 01.68-2.082 1.218 1.218 0 01-.941-1.66c.235-.581.829-.648 1.386-.6 1.339.11 1.442 2.172.165 2.264.83.057.91.524.91 1.13zm-.01 8c0 .416.18 1.661-.086 1.87a8.245 8.245 0 01-2.369 0 5.585 5.585 0 01.036-1.87c.357-.284 1.94-.004 2.419-.004zm-2.205 8.953a1.357 1.357 0 012.065 1.714c-.954 1.431-3.409-.37-2.065-1.714zm.722 2.226l.178.5c-.222-.752.7-.6 1.065-.234a1.119 1.119 0 01-.239 1.689c-1.799.973-2.906-1.953-1.004-1.953zm-1.223 8.793c.219-.789.128-1.915 1.117-2.122-1.4-.119-1.132-2.26.281-2.3 1.39-.04 1.963 2.067.539 2.31.91.219.8 1.369.982 2.113zm14.3-28.823a3.368 3.368 0 011.983-.231 1.207 1.207 0 01-.355 2.22c.6.155 1.045 1.688.523 2.111a5.308 5.308 0 01-1.793 0c-.62-.091-.512.048-.523-.655-.007-.405-.255-1.5.331-1.438a1.817 1.817 0 01-.379 0c.004-.57-.196-1.561.217-2.007zm-.039-4.2c-.121-.65.664-.467 1.1-.478.85-.02 1.361.034 1.467 1 .181 1.573-2.755 1.356-2.563-.519zm2.413 15.155c-.149 1.072.093 2.391-1.454 2.282-1.332-.094-1.1-1.29-1.277-2.282zm-2.563-.236c0-.416-.182-1.676.085-1.884a8.137 8.137 0 012.352 0 5.669 5.669 0 01-.036 1.884c-.352.281-1.921.002-2.397.002zm0 7.056V63.52c.627.1 1.873.011 2.306.51.678.78-.075 1.606-.847 1.746a1.21 1.21 0 01.163 2.413c-1.648.307-1.682-.924-1.6-2.181zm2.395-11.267c-.032 1.027.269 2.161-1.216 2.141-1.254-.016-1.168-1.223-1.443-2.141zm-6.878-15.9c.985-.008 2.388-.293 2.473 1.075.091 1.456-1.46 1.277-2.473 1.378zm-.09 18.609l-.057-1.015a3.692 3.692 0 00.987.6c.686.19 1.856-.072 1.631 1.2-.125.708-.705.765-1.323.737-1.171-.049-1.173-.489-1.234-1.522zm-4.7-1.829c.044-1.423 3.355-1.192 2.58.638-.384.908-2 .588-2.835.586.002.001.24-1.133.257-1.224zm-.041-6.718c-.037-.916 1.426-1.163 2.05-.86a1.165 1.165 0 01-.191 2.145c.79.067 1.046 1.087.687 1.7-.281.481-.686.472-1.189.475-.565 0-1.059.014-1.328-.561a1.147 1.147 0 01.7-1.616c-.499-.107-.692-.429-.727-1.283zm2.564-3.39c-.883 0-2.5.333-2.6-.9-.113-1.443 1.912-1.042 2.842-1.044zm.1 21.576c.015.906-.877 1.23-1.651 1.1a1.2 1.2 0 01-.381-2.244l-.586.114v-2.494c.633.069 1.815-.041 2.294.342a1.074 1.074 0 01.339 1.005c-.12.691-.632.766-1.277.886a1.206 1.206 0 011.268 1.29zm-.365-6.033c-.656.823-2.539.3-2.276-1.022.34-1.669 3.692-.783 2.282 1.022zm.328 12.73c-.544 2.217-3.528.733-2.521-.695.606-.851 2.858-.66 2.527.695zm.035-2.44c.083 1.033-1.1 1.387-1.946 1.058-.777-.3-.693-1.128-.724-1.847h2.787a2.37 2.37 0 00-.111.789zm-.026-13.64c0 1.036-.608 1.542-1.734 1.288-.981-.222-.875-1.085-.884-1.93h2.809zm-1.113-14.314c-.7 0-1.416.093-1.567-.78a1.115 1.115 0 011.295-1.314c.792.068.588-.714 1.053.286l.839 1.8zm3.1 24.664c.779.14 3.741.4 2.5 1.921a1.781 1.781 0 01-2.172.016c-.341-.415-.248-1.396-.327-1.937zm1.276 27.077c-.176 0-.978.046-1.1-.108-.17-.222 0-1.238 0-1.5 0-.727-.06-1.336-.06-2.105 0-.516-.094-.629.25-.814a3.375 3.375 0 011.323 0 1.1 1.1 0 01.916 1.49c-.252.722-.918.706-1.58.682.669.128 1.356.176 1.583.9.313.966-.473 1.455-1.331 1.455zm-1.076-6.5v-2.658c.9.136 2.343-.036 2.441 1.131.113 1.337-1.507 1.296-2.44 1.523zm2.322-11.879c-.874 1.091-3.407-.317-2.188-1.593.775-.812 3.304.204 2.19 1.589zm.068-13.532a1.024 1.024 0 01-.933.492c.892.12 1.537 1.164.682 1.841a5.958 5.958 0 01-2.156.517v-2.507l.523.056c-.835-.38-.511-1.528-.468-2.246 1.056.085 3.196.116 2.354 1.843zm-.012-13.539a1.312 1.312 0 01-1.072.548c1.184-.063 1.692 1.979.441 2.127a1.274 1.274 0 01.31 2.13 5.2 5.2 0 01-2.052.263v-2.74l.015.006c-.161-1.229-.242-1.637 1.1-1.777-.453 0-.951.128-1.129-.176-.207-.355 0-1.428 0-1.846l-.034.007v-1.779c0-.763-.106-.709.645-.732.373-.012 1.441-.172 1.688.05a2.1 2.1 0 01.186 1.217c-.15.676-.739.863-1.352 1 .921-.046 1.947.617 1.256 1.699zm4.806 20.854a12.584 12.584 0 010 1.34c-.068.622.137.41-.435.576-1.655.479-2.037-.725-2.591-1.915zm-.849 17.881c.47.112.651.763.611 1.19-.091.982-.814 1.041-1.6 1.056-.669.013-.636.086-.837-.445-.247-.651.009-1.661.729-1.832-.835 0-.737.019-.737-.778 0-.684-.167-1.056.325-1.376a1.368 1.368 0 012.109.769c.188.955.113 1.385-.768 1.385.061.007.126.017.17.027zm.743-7.275c-.47.763-1.229.454-1.947.564.767.087 2.387.251 1.8 1.479-.333.7-1.738.675-2.449.8v-2.362h.041c-.059-.843-.053-1.681-.053-2.526.988.167 3.701.284 2.61 2.041zm.191-7.236c-.107.814-.779 1.023-1.49 1.073.729-.029 1.222-.028 1.425.781.126.5.106 1.112-.21 1.292a5.154 5.154 0 01-1.947 0c-.575-.159-.408-.105-.408-.877 0-1.026.006-1.684.064-2.773.04-.744.135-.657.974-.7s1.733.133 1.594 1.2zm-.5-30.517c-.947.017-3.027-.233-1.872-1.694a1.481 1.481 0 012.073-.043c.382.42.281 1.186.382 1.737zm5.089 54.045a1.34 1.34 0 01-2.068 1.027 1.234 1.234 0 01.331-2.155 1.121 1.121 0 01-.084-2.127c-1.35-.326-.731-2.231.489-2.286 1.3-.059 2.007 1.956.626 2.3a1.116 1.116 0 01-.055 2.1 1.051 1.051 0 01.768 1.137zm-2.617-38.483c.033-.368-.041-1.678.208-1.869a7.14 7.14 0 012.348.022 3.915 3.915 0 01-.089 1.847c-.299.271-2.005-.004-2.461-.004zm2.337 6.632c-1.464 1.464-3.405-1.552-1.445-1.9a1.22 1.22 0 01-.7-1.737c.257-.438.808-.623.792.084-.207-.819 1.067-.746 1.434-.252a1.288 1.288 0 01-.522 1.919 1.17 1.17 0 01.447 1.882zm.007-13.472a.88.88 0 01-.461.239c.646.162.769.756.713 1.346-.073.778-.349.982-1.111 1.037a1.21 1.21 0 01-1.308-.53c-.336-.656-.122-1.7.667-1.845-1.385-.265-.784-2.148.458-2.178.975-.028 1.953 1.015 1.048 1.927zm23.347 25.53c0 .469.281 2.16 0 2.5a4.268 4.268 0 01-1.923.091 8.445 8.445 0 010-2.447c.262-.334 1.392-.148 1.929-.148zm-2-19.972a2.222 2.222 0 01.083-1.721 1.49 1.49 0 011.592-.175c.634.561-.149 2.172-.51 2.807-.359-.277-.921-.523-1.157-.916zm0-8.7c.777-1.367 2.054-.015 1.738 1.087-.033.066.061.494-.051.689a.935.935 0 01-1 .415c-.843-.127-1.078-1.508-.684-2.196zm-.247 48.289c1.427-1.544 2.422 1.849 1.663 2.549-.434.4-1.589-.041-1.8-.483a2.9 2.9 0 01.14-2.067zm-.969-33.4c-.118.823-.181 1.846-1.4 1.484-.715-.213-.735-.775-.724-1.416.031-1.632 2.342-1.571 2.127-.062zm-2.126 4.053a1.116 1.116 0 011.014-1.449c.992-.091 1.115.713 1.114 1.518 0 .843-.294 1.58-1.278 1.4-.938-.164-.728-.742-.847-1.465zm-1.544.4a.952.952 0 01-1.49.451 2.631 2.631 0 01-.337-2.133c.173-.381.641-.574 1.264-.32.663.277.831 1.388.566 2.01zm1.253-18.019a1.459 1.459 0 01.21-1.693 1.147 1.147 0 011.807.573c.398 1.471-1.135 2.938-2.014 1.128zm.26 21.244c.493-2.07 2.632-1.336 2.106.565a1.09 1.09 0 11-2.103-.557zm.038 14.356c-.183-.646.409-.556.881-.51a1.3 1.3 0 011.218 1.832 1.02 1.02 0 01-1.286.772c-1.012-.222-.825-1.271-.81-2.086zm0-3.594c0-.762-.167-.8.5-.925.816-.149 1.478.135 1.589.967.121.911-.032 1.936-1.093 1.881-1.144-.05-1.001-.996-.996-1.915zm.037 11.7a1.085 1.085 0 011.789-.327c.577.686.413 2.672-.731 2.672-1.067-.027-1.3-1.505-1.058-2.342zm-.046 4.313c.077-1.717 1.988-1.777 2.127-.064.165 2.017-2.217 2.079-2.127.068zm.009 7.5c.082-.786.356-1.715 1.4-1.264a1.383 1.383 0 01.723 1.455c-.097 1.719-2.239 1.509-2.123-.188zm2.113 13.111a1.1 1.1 0 01-1.148 1.044c-.843-.025-.957-.639-.966-1.341-.025-2.067 2.362-1.586 2.114.3zm.014-4.174c-.38 2.042-2.38 1.687-2.12-.356a1.092 1.092 0 112.12.359zm.051-39.066c-.668 1.276-2.094 1.492-2.177-.246-.036-.755.165-1.4 1.065-1.4.956 0 .775.806 1.33 1.164a2.664 2.664 0 01-.222.485zm2.668 34.352c-.167 1.156-1.628.864-1.941.022a5.143 5.143 0 01.017-1.938 5.141 5.141 0 011.841 0c.257.199.128 1.606.083 1.918zm.047-7.929c-.077.615.043 1.231-.683 1.482-.913.316-1.273-.478-1.335-1.21-.181-2.113 1.925-2.36 2.018-.269zm.4-18.441c-.138.648-1.349.68-1.89.849v-3.343a7.185 7.185 0 011.4.333c.74.404.645 1.411.492 2.161zm6.546-24.695v1.795c0 .838.194.869-.5 1.018-1.242.267-2.04-.384-1.691-1.734.27-1.034 1.306-.867 2.193-1.076zm-.089 13.152a1.007 1.007 0 01-1.07 1.163c-.944-.028-1.049-.825-.98-1.578.067-.73.383-1.431 1.311-1.145.775.239.722.897.741 1.562zm0-7.387a1.015 1.015 0 01-1.341 1.073c-.945-.244-1.027-1.685-.614-2.453.179-.333.006-.245.3-.383a1.959 1.959 0 011.039.07c.751.339.54 1.023.615 1.696zm-2.076 11.23c.075-.383-.034-1.365.236-1.579a1.406 1.406 0 011.747.492 2.888 2.888 0 01-.023 1.849 1.081 1.081 0 01-1.96-.762zm-.266-51.856c.484 0 1.512-.169 1.719.159a2.6 2.6 0 01-.727 2.8c-.466.2-.213.324-.663-.038-.335-.269-.235-.253-.329-.574a9.531 9.531 0 01-.004-2.343zm-.007 4.5c.089-1.123 1.414-.731 1.705.007a5.487 5.487 0 01-.03 1.971 5.479 5.479 0 01-1.646 0c-.218-.18-.056-1.734-.033-1.97zm-1.068 18.012c-.545.762-1.682.163-1.932-.517a5.665 5.665 0 01-.022-1.77c.193-.246 1.418-.056 1.655.128a2.272 2.272 0 01.295 2.167zm-1.959-25.265c0-.851-.177-.842.6-.937a3.487 3.487 0 011.22 0c.28.16.078.036.176.47.168.745.191 2.143-.661 2.426-1.306.437-1.345-1.093-1.335-1.959zm.029 3.7c.073-.473.65-.866.943-1.224.48.538.96.807 1.048 1.578.04.353.127 1.487-.121 1.642a4.852 4.852 0 01-1.724 0c-.367-.223-.223-1.502-.146-1.998zm-.038 7.391c.03-.848-.172-.838.61-.92a4.14 4.14 0 011.4 0 5.883 5.883 0 01-.026 2.025c-.161.509-.624.822-.963 1.219a2.859 2.859 0 01-1.021-2.326zm.045 8.76c.03-.153.718-1.1.968-1.1.155 0 .774.6.885.784a1.919 1.919 0 01-.164 2.009 5.562 5.562 0 01-1.725.565 11.914 11.914 0 01.036-2.26zm-.036 15.971c.1-.823.2-1.925 1.431-1.528.587.189.654.6.694 1.142.056.76-.068 1.451-.983 1.5a.993.993 0 01-1.142-1.114zm1.342 34.9c-1.568 0-1.294-3.736.775-2.824.536.236.382.448.381 1.117.002.87-.041 1.686-1.156 1.707zm1.658-54.923c-.008-.662-.172-2.017.852-2.068s1.144 1.691.867 2.341c-.545 1.278-1.719 1.03-1.719-.273zm2.161 78.254a1.16 1.16 0 01-1.882-.4 7.366 7.366 0 01-.028-1.955c.616.009 1.371-.168 1.833.33a1.871 1.871 0 01.076 2.025zm-1.868-17.271a.952.952 0 011.023-1.163c.985.039.952.892.932 1.631-.021.764-.193 1.328-1.07 1.265-1.143-.083-.759-.945-.886-1.733zm1.958-3.329c0 2.4-2.52 1.342-1.947-.607a1.15 1.15 0 011.067-.869c.85.02.895.814.879 1.476zm0 10.267c-.052.773.1 1.748-.9 1.866-.579.069-.835-.1-1-.443a2.619 2.619 0 01.227-2.173.956.956 0 011.674.75zm.191-17.782c-.3.655-.961 1.787-1.8.964a2.564 2.564 0 01-.306-2.074c.62-1.406 2.701.013 2.107 1.109zm1.35-39.319c.949-.174 1.646-.261 1.828.838.083.5.136 1.458-.187 1.641a3.452 3.452 0 01-1.246 0c-.531-.166-.21.172-.4-.293a7.361 7.361 0 01.006-2.187zm-.008 3.776c1.109-.3 1.8-.08 1.838 1.118.03.856.005 1.525-1 1.611-.808.07-.842-.036-.842-.751zm-.035 7.559c.641-.106 1.441-.319 1.853.348a2.461 2.461 0 01.131 1.428c-.081.507.045.412-.359.664-1.774 1.115-1.624-1.485-1.624-2.44zm.035 23.147a4.416 4.416 0 01.809-.933c.529.54.991.764.973 1.625-.017.785-.458 1.163-.9 1.731-.6-.658-1.315-1.438-.881-2.423zm-.032 10.88c.329 0 1.521-.2 1.729 0a6.189 6.189 0 01.04 2.056c-.19.889-1.263 1.328-1.708.291a6.923 6.923 0 01-.06-2.347zm0-6.934c0-.431-.121-.819.185-.978a5.193 5.193 0 011.567 0 6.641 6.641 0 010 1.824c-.066.785-.407.961-.9 1.488a2.63 2.63 0 01-.856-2.333zm1.625 24.792c-.407.409-1.4.343-1.592-.009a6.585 6.585 0 010-2.194c.831-1.127 2.792.995 1.588 2.204zm.193-8.432c-.172.418-.731.7-1.061.991-.479-.662-1.354-2.262-.667-2.951a1.393 1.393 0 011.412.043 2.026 2.026 0 01.312 1.919zm.184-26.978a1.2 1.2 0 01-1.582 1.22c-.594-.216-.388-.5-.388-1.226 0-.419-.135-1.238.124-1.452a2.4 2.4 0 011.375.06c.522.299.486.862.467 1.399zm-2-2.7c0-.965-.161-3.645 1.649-2.478a1.777 1.777 0 01.262 1.982c-.375.748-1.222.555-1.915.499zm1.789-7.581c-1.315 1.455-2.363-1.263-1.789-2.271a1.184 1.184 0 011.416-.168 1.932 1.932 0 01.369 2.442zm1.457 2.261c0-.906.267-1.243 1.188-1.252.879-.008.837.144.841.945s.016 1.857-1.062 1.9c-.985.047-.986-.868-.967-1.593zm-.352 18.4c.069-.793 1.149-.9 1.6-.4a2.589 2.589 0 01.236 1.873.984.984 0 01-1.06.833c-1.052-.152-.842-1.582-.776-2.306zm1.852 12.53c0 .787-.9 1.772-1.722 1.084-.3-.247-.115-1.4-.115-1.846 0-.763-.03-1 .908-.94 1.02.072.936.883.929 1.703zm-.027-7.449a.922.922 0 01-1.38.631c-.529-.322-.5-.96-.476-1.5.022-.575.18-1.274.936-1.29 1.112-.022 1.023 1.442.92 2.159zm.547-19.488a1.1 1.1 0 01-1.644 1.268 2.4 2.4 0 01-.376-2.121c.389-1.024 1.718-.1 2.363.335-.198.106-.407.308-.343.519z"/><path d="M89.779 50.236h-.106l.106.455z"/></g></svg>