<svg viewBox="0 0 148.534 146.972" xmlns="http://www.w3.org/2000/svg"><g fill="#c25e42"><path d="M148.529 146.972H50.843v-11.367l1.644-.033a.562.562 0 00.465-.6q.009-2.8.011-5.6c0-2.177.008-4.354 0-6.53-.006-3.46-.023-6.919-.027-10.379-.006-6.355.029-12.711.028-19.067q0-7.433-.03-14.865v-3.556c0-.6.059-.665.566-.915.537-.265 1.06-.571 1.586-.867.84-.474 1.677-.957 2.517-1.432q1.55-.876 3.1-1.743c1.053-.587 2.111-1.159 3.161-1.753.612-.347 1.211-.726 1.819-1.082.249-.146.4.016.4.286-.009 3.342-.031 6.683-.039 10.025 0 .835.058 1.669.055 2.5-.014 3.575-.046 7.15-.059 10.726 0 .873.062 1.746.059 2.619-.014 4-.048 8.007-.059 12.011 0 1.242.062 2.485.059 3.728-.013 4.819-.044 9.638-.062 14.457-.009 2.371 0 4.742 0 7.113v4.415c0 .326.1.475.377.487.385.016.771.017 1.156 0 .311-.013.356-.085.372-.471.006-.136 0-.272 0-.408V67.272a1.231 1.231 0 01.325.064c.378.206.758.409 1.122.646a.967.967 0 01.452.934c-.033 2.7-.016 5.4-.016 8.107v56.981c0 .378-.251 1.507.352 1.542.418.025.838.028 1.256.013.27-.01.355-.16.354-.509q0-4.985-.006-9.97 0-7.582.009-15.163 0-7.232-.012-14.463V53.99q0-7.377-.012-14.754c0-2.585 0-5.171-.021-7.756a.926.926 0 01.511-.9q1.332-.742 2.667-1.476c1.041-.571 2.087-1.13 3.124-1.709.842-.47 1.671-.971 2.513-1.442.7-.394 1.421-.758 2.129-1.146l3.255-1.8c.843-.466 1.688-.925 2.529-1.4q2.464-1.379 4.911-2.789a3.667 3.667 0 01.078.49c.01.447 0 .894 0 1.341v113.905c0 1.227.064 1.01.868 1.005.57 0 1.139.009 1.709.013.379 0 .434-.048.441-.5.027-1.572.057-3.145.066-4.717.011-1.94.007-3.88 0-5.82 0-.465-.054-.929-.055-1.394 0-.445.053-.89.054-1.334 0-.972-.026-1.943-.024-2.915 0-1.574.027-3.148.024-4.722 0-.892-.063-1.784-.059-2.676.013-3.808.043-7.616.062-11.424q.011-2.387 0-4.774c-.006-.93-.057-1.859-.057-2.789 0-.889.055-1.777.056-2.666 0-1.671-.018-3.343-.024-5.014q-.008-2.361-.005-4.722c.008-4.1.026-8.2.03-12.3q.009-9.565 0-19.13c0-.7-.062-1.4-.061-2.093q.025-9.1.062-18.191.012-3.932 0-7.864c0-.347-.045-.694-.054-1.042a2.783 2.783 0 01.067-.442c.173.082.308.135.435.208 1.167.668 2.336 1.334 3.5 2.01.776.451 1.544.922 2.319 1.375q1.115.652 2.238 1.285c1.424.8 2.855 1.587 4.276 2.4s2.836 1.649 4.257 2.467c1.016.585 2.041 1.15 3.057 1.736.822.474 1.635.971 2.457 1.445 1.181.681 2.366 1.349 3.549 2.025a2.545 2.545 0 00.49.29c.468.134.5.5.5.975q-.016 9.361-.007 18.722v.467c.009.61-.041.709-.53.875-.94.32-1.887.615-2.826.94-.495.171-.977.39-1.467.578s-1.012.376-1.519.559c-.38.137-1.162.213-1.29.677a1.588 1.588 0 00-.01.405c0 2.061 0 4.121.012 6.182a.834.834 0 01-.488.881c-.988.513-1.944 1.108-2.943 1.688v.616l-.017 7.579c0 1.283.017 2.565.016 3.848q0 7.494-.01 14.988c0 3.421.009 6.843.01 10.264q.006 11.778 0 23.557v6.181c0 .272-.023.543-.026.815 0 .368.063.474.363.479.888.015 1.776.011 2.664.017.24 0 .327-.165.337-.4.021-.483.046-.967.047-1.45v-62.17c0-.194.009-.39 0-.583-.046-.654-.055-.668.467-.928.981-.488 1.971-.955 2.955-1.435.936-.457 1.867-.925 2.8-1.38.906-.44 1.817-.866 2.722-1.307.692-.337 1.377-.691 2.067-1.033.336-.167.678-.319 1.013-.49.182-.093.349-.224.531-.315.113-.056.272-.135.355-.084a.551.551 0 01.155.387c.017.56.007 1.121.007 1.682 0 1.4.005 2.8 0 4.2-.007 1.512-.028 3.025-.035 4.537 0 .427.037.854.034 1.281-.013 1.457-.054 2.914-.052 4.371 0 2.1.043 4.2.052 6.293.067 15.8 0 31.6 0 47.394 0 .413-.254 1.411.39 1.424.318.006.637.008.955 0 .4-.011.475-.105.476-.546q.038-19.363.016-38.726c0-3.712-.022-7.424-.023-11.136 0-2.624.021-5.248.022-7.872 0-2.235-.02-4.47-.022-6.706 0-1.75.013-3.5.02-5.249v-1.16c.21-.111.362.042.518.132q1.461.839 2.917 1.69 1.926 1.121 3.851 2.245c1.478.863 2.952 1.733 4.432 2.591q2.15 1.248 4.308 2.477a.957.957 0 01.5.92c-.008 2.759-.04 61.578-.04 61.578l1.172.177zm-24.477-73.569v61.015c.009.5.06.581.49.6.616.031 1.233.028 1.85.023.212 0 .267-.189.272-.407.014-.563.047-1.125.047-1.688q.005-10.672 0-21.344c-.007-5.987-.033-11.973-.046-17.96-.007-3.167 0-6.334 0-9.5V72.836c0-.2.065-.442-.162-.539zm-2.513 31.353V75.373c0-.155.005-.311 0-.466-.019-.423-.142-.487-.482-.316-.487.244-.979.481-1.481.682-.43.172-.519.27-.511.774.006.407.017.815.017 1.222q0 9.736.006 19.472v31.714q0 2.944-.009 5.887c0 .522.071.647.493.674s.866-.018 1.3.012c.938.065.676-.836.676-1.521v-28.752zm-32.11 25.245v-.041h1c.256 0 .352-.153.35-.437q-.008-1.075 0-2.15c0-.291-.1-.425-.36-.41-.633.036-1.266.063-1.9.083-.259.008-.354.17-.354.443v2.092c0 .29.111.427.363.421.295-.005.596-.001.901-.001zm1.345-99.529c0-.548.015-.994 0-1.438a3.869 3.869 0 00-.087-1.361 7.667 7.667 0 00-2.143 1.024.718.718 0 00-.393.734c.013.544.014 1.088.011 1.632 0 .688.014.7.567.377.045-.026.093-.045.139-.067zm-.111 51.725a3.022 3.022 0 01-1.645.536 4.866 4.866 0 00-.571.216c-.229.08-.309.255-.3.526.014.583.029 1.167.01 1.749-.018.543.2.617.512.511a10.7 10.7 0 011.715-.394c.357-.058.385-.119.391-.533.009-.7.006-1.4 0-2.1a3.351 3.351 0 00-.112-.515zm.048-25l-2.332.931c-.016.006-.037.011-.045.025-.066.124-.181.247-.184.374-.013.66 0 1.321.012 1.982.018.721.766.21 1.126.069.424-.165.85-.324 1.277-.482.2-.072.238-.231.232-.451-.016-.6-.013-1.2-.026-1.806-.003-.185-.032-.367-.06-.645zm.06-15.032c-.257.118-.5.309-.754.413-.421.17-.85.314-1.269.488a1.262 1.262 0 00-.429.285c-.322.339-.4 2.96.263 2.679.622-.265 1.243-.535 1.865-.8a.463.463 0 00.323-.457l.001-2.611zm-.056 25.215c-.754.208-1.422.361-2.072.584a.69.69 0 00-.5.816c.04.559.01 1.124.014 1.687 0 .47.136.577.527.422.189-.075.371-.177.562-.242.413-.142.829-.272 1.246-.4.24-.073.3-.252.293-.521-.016-.6-.007-1.2-.016-1.8 0-.17-.031-.333-.054-.549zm.052 47.462c0-.916.005-1.787 0-2.657 0-.254-.156-.342-.348-.273a5.868 5.868 0 01-1.836.253c-.374.011-.419.081-.421.534q-.005.874 0 1.748c0 .149.03.3.052.5a20.229 20.229 0 002.553-.108zm-2.6-73.5a2.062 2.062 0 00.362-.07c.2-.08.4-.179.6-.275.5-.243 1.67-.521 1.661-1.21-.007-.6-.011-1.2-.025-1.806 0-.163-.039-.324-.066-.541-.185.06-.312.089-.431.142-.574.255-1.145.522-1.72.773a.61.61 0 00-.39.606c0 .754.004 1.511.004 2.376zm.1 34.514l2.448-.661a7.713 7.713 0 00-.092-2.86c-.433.132-.865.264-1.3.394a6.607 6.607 0 01-.816.23c-.247.04-.35.16-.347.448a9.682 9.682 0 00.102 2.443zm-.118-12.938c.049.96-.059 1.838.078 2.761.755-.212 1.448-.393 2.134-.6a.588.588 0 00.416-.637c-.011-.678 0-1.356-.007-2.033-.006-.37-.123-.445-.409-.3a5.83 5.83 0 01-.638.311c-.506.169-1.018.321-1.574.498zm2.592-30.455a3.829 3.829 0 00-1.078.47c-.424.228-.847.458-1.275.675a.472.472 0 00-.243.509c.017.6.008 1.2.016 1.807.006.47.123.558.488.383l1.617-.775c.413-.2.508-.357.509-.874v-1.633c-.003-.169-.021-.339-.034-.562zm-.062 59.545a2.633 2.633 0 01-1.523.416 2.825 2.825 0 00-.73.187.4.4 0 00-.267.432v2.039c0 .275.119.394.341.377a3.437 3.437 0 00.393-.081c.492-.1.983-.207 1.477-.29.353-.059.4-.088.405-.5q.011-1.019 0-2.039a4.147 4.147 0 00-.096-.541zm.088 32.994c0-.965.006-1.813 0-2.66 0-.274-.147-.345-.376-.31-.444.068-.893.1-1.339.16-.277.034-.554.078-.9.128v2.39c0 .261.185.311.354.312.729.002 1.456-.012 2.261-.02zm-2.614-45.7h.005c0 .31-.006.621 0 .931.01.4.113.5.433.335a3.033 3.033 0 011.115-.282 3.614 3.614 0 00.815-.263.455.455 0 00.275-.494c-.01-.64-.011-1.28-.026-1.919-.009-.407-.1-.519-.423-.415a8.378 8.378 0 01-1.786.513c-.337.032-.4.193-.409.605-.005.324.001.659.001.984zm2.589-31.88c-.88.376-1.657.705-2.431 1.043-.177.077-.158.267-.157.445 0 .581 0 1.163.006 1.744s.072.659.563.473c.677-.256 1.34-.563 2.018-.852zm-2.578 40.35v2.385c0 .22.118.319.294.3a26.73 26.73 0 001.285-.194c.33-.06 1.037-.1 1.035-.554 0-.718 0-1.436-.012-2.153-.007-.309-.084-.365-.349-.3-.732.155-1.465.33-2.253.516zm.031 9.676v2.6a.839.839 0 00.172.077 4.874 4.874 0 002.211-.367.446.446 0 00.2-.337c.014-.7 0-1.394-.008-2.09 0-.271-.12-.39-.352-.343zm.034-41.423c.247-.083.438-.143.627-.211a137.06 137.06 0 001.516-.549.653.653 0 00.415-.749c-.03-.58-.009-1.163-.017-1.744 0-.147-.031-.294-.051-.482a12.6 12.6 0 00-2.238.828.442.442 0 00-.325.491c.007.7 0 1.4.006 2.094a1.955 1.955 0 00.067.322zm-.068 46.5v2.428c0 .681 1.7.232 2.14.19.41-.039.463-.1.468-.561q.011-1.017 0-2.035a3.657 3.657 0 00-.078-.491 11.438 11.438 0 01-1.242.376 11.206 11.206 0 01-1.287.093zm2.606 17.047v-2.479c0-.25-.148-.323-.345-.3a11.852 11.852 0 01-1.9.1c-.639-.014-.363 2.008-.356 2.459.007.413.115.495.477.437.247-.04.5-.07.745-.095.428-.038.86-.074 1.379-.122zm0-9.842c0-.792.013-1.6-.007-2.407-.007-.286-.114-.317-.384-.267a14.081 14.081 0 01-1.785.166c-.787.046-.435 2.009-.426 2.565.005.334.094.416.375.365.72-.13 1.439-.272 2.226-.422zm-2.559 22.218c-.019.241-.043.426-.046.612-.008.541-.008 1.083-.009 1.624 0 .45.118.574.512.554.281-.015.563-.023.844-.022.316 0 .632.019.948.029.2.006.328-.082.328-.329 0-.487.322-2.624-.443-2.528a6.052 6.052 0 01-.644.058c-.482.008-.962.002-1.491.002zm-4.41-8.022c-.013.245-.046.573-.043.9 0 .378.127.493.43.464.5-.047.994-.094 1.492-.135.82-.067.448-1.814.442-2.375 0-.438-.058-.5-.443-.48-.562.027-1.844-.215-1.875.554-.014.33-.004.659-.004 1.072zM61.507 98.035h-.009c0-.329.008-.658 0-.987-.009-.274-.143-.37-.37-.29-.631.223-1.26.451-1.894.662a.3.3 0 00-.219.332q-.005.98 0 1.96c0 .337.131.463.415.383q.725-.2 1.444-.437a.8.8 0 00.644-.812c-.025-.268-.011-.54-.011-.811zm-2.414 22.755c-.03.82-.062 1.566-.084 2.313-.007.228.1.368.3.364.6-.013 1.2-.021 1.8-.053a.371.371 0 00.369-.393q.015-1.015 0-2.031c0-.219-.113-.36-.324-.345zm26.925-71.418c-.222.1-.387.189-.558.257-.626.25-1.728.392-1.712 1.248.011.594-.011 1.189 0 1.784.007.658.979.131 1.347-.033.263-.117.52-.253.787-.35.2-.073.25-.232.25-.439 0-.7 0-1.392-.016-2.088a1.978 1.978 0 00-.098-.379zm-24.517 67.99c0-.384.206-1.38-.428-1.335-.3.021-.6.027-.9.062a4.763 4.763 0 00-.836.156c-.524.159-.315 1.939-.323 2.376-.012.638 1.783.2 2.151.156.232-.029.343-.208.337-.485-.006-.314-.001-.62-.001-.933zm-.1-25.24c-.683.076-1.334.541-2.029.661-.228.039-.3.193-.307.44-.015.637-.045 1.274-.061 1.911-.008.33.1.44.409.358a26.737 26.737 0 001.593-.484.734.734 0 00.491-.779c0-.639-.007-1.278-.016-1.917.004-.054-.036-.104-.075-.193zm-2.365-1.4c.7-.256 1.295-.487 1.9-.688.435-.145.555-.286.559-.8 0-.562 0-1.124-.009-1.685a2.078 2.078 0 00-.11-.42c-.652.26-2.381.543-2.35 1.419.018.518-.008 1.039-.011 1.558-.001.179.014.366.025.616zm.05 11.419a.777.777 0 00-.069.215c-.009.653-.009 1.306-.016 1.959 0 .414.148.58.5.444a5.944 5.944 0 011.458-.369c.345-.039.517-.277.525-.657.014-.619.008-1.238-.01-1.857-.009-.3-.108-.358-.36-.289zm2.409 5.313h-.01c0-.329.011-.66 0-.988-.013-.3-.117-.381-.35-.325-.4.1-.812.177-1.215.281a2.892 2.892 0 00-.665.242.491.491 0 00-.213.341c-.028.654-.035 1.31-.03 1.965 0 .334.141.4.437.308a7.312 7.312 0 01.825-.193c.246-.049.5-.06.74-.125.361-.1.487-.313.486-.75l-.001-.755zm-2.389-30.5c.27-.119.473-.2.67-.3.4-.2.783-.414 1.183-.6.426-.193.543-.36.54-.906s-.012-1.085-.024-1.627a3.593 3.593 0 00-.065-.409c-.283.135-.525.244-.763.365a11.057 11.057 0 01-1.184.6.547.547 0 00-.4.613c0 .6-.043 1.2-.054 1.794a2.4 2.4 0 00.101.47zm2.314.776c-.79.372-1.515.7-2.229 1.063a.526.526 0 00-.156.375c-.025.615-.021 1.231-.035 1.846-.023.964 1.516-.15 1.925-.321a.808.808 0 00.576-.933c-.007-.542-.006-1.084-.015-1.625a3.333 3.333 0 00-.057-.406zm.076 34.833h-.016c0-.329.014-.66 0-.988-.036-.657-1.728-.116-2.136-.013a.348.348 0 00-.27.364c-.021.657-.055 1.313-.063 1.97 0 .327.1.395.376.358.52-.068 1.079-.05 1.591-.164.38-.084.509-.264.522-.713.007-.272.001-.543.001-.815zm-2.409 13.33c.01-.019-.038.029-.039.078-.018.711-.036 1.421-.041 2.132 0 .223.114.371.315.361q.9-.045 1.8-.113c.236-.018.367-.186.367-.457 0-.658 0-1.316-.024-1.973-.012-.3-.151-.4-.408-.36-.639.105-1.278.211-1.965.331zM86.138 75.05h-.02v-.754c.007-.656-.111-.76-.6-.469a1.712 1.712 0 01-.906.273 1.148 1.148 0 00-.437.1c-.329.138-.429.356-.423.754a38.29 38.29 0 01-.013 1.728c-.013.409.122.531.447.4.262-.109.536-.178.8-.265s.544-.164.809-.267a.554.554 0 00.338-.628c-.01-.291.005-.582.005-.872zm-25.942 57.848c.284 0 .569.01.852 0 .777-.033.45-1.743.441-2.273-.007-.4-.108-.506-.466-.493-.493.018-1.943-.209-1.955.494-.01.58-.04 1.159-.06 1.739-.014.38.1.52.436.53.251.009.501.003.752.003zm1.293-48.989c0-.4.222-1.486-.479-1.275a2.026 2.026 0 00-.235.1c-.511.229-1.019.468-1.534.683-.18.075-.218.21-.219.4 0 .617 0 1.235-.017 1.852-.01.436.134.539.5.374q.787-.355 1.588-.667a.577.577 0 00.394-.593c.004-.291.002-.582.002-.874zm24.617-23.615h.023v-.93c0-.445-.162-.543-.5-.316a1.871 1.871 0 01-.346.221c-.394.147-.794.269-1.19.41-.348.124-.357.187-.329.64a12.894 12.894 0 01.022 1.505c-.034.6.078.73.581.557a8.59 8.59 0 001.462-.56.631.631 0 00.321-.657c-.026-.292-.031-.58-.044-.87zm.03 38.849h-.018v-.813c0-.481-.1-.583-.51-.5-.523.1-1.044.221-1.565.338-.238.054-.3.19-.292.507a39.81 39.81 0 01-.01 1.728c-.011.384.083.5.431.532a6.325 6.325 0 001.756-.4c.17-.031.213-.215.209-.409-.008-.326-.001-.654-.001-.983zm0-34.159h-.007c0-.329.007-.658 0-.986-.01-.358-.149-.447-.413-.277a1.937 1.937 0 01-.343.226c-.426.152-.859.276-1.286.422-.347.118-.345.161-.327.573.024.537.031 1.077.006 1.613-.022.471.083.629.471.523.484-.132.965-.285 1.442-.449.358-.124.47-.335.466-.776-.01-.289-.007-.581-.007-.869zm-.075-25.5a5.347 5.347 0 01-.6.39c-.415.19-.843.339-1.256.534-.787.372-.471 1.86-.477 2.579 0 .3.174.463.382.307.7-.529 2.026-.478 2.016-1.567-.006-.561-.006-1.123-.015-1.684.002-.147-.022-.292-.048-.56zm.059 56.288c0-.557.386-2.8-.512-2.612-.489.1-.975.225-1.464.327-.357.075-.4.154-.382.573.018.538.015 1.078-.01 1.616-.022.457.031.555.417.578a8.444 8.444 0 001.951-.482zm-.013-16h.022v-.93c0-.465-.14-.578-.485-.352a1.66 1.66 0 01-.906.274 1.517 1.517 0 00-.488.1c-.417.156-.483.313-.47.809.015.539.01 1.081-.018 1.62-.023.451.086.564.451.439.316-.108.643-.172.964-.259.5-.136 1.02-.251.97-.892-.026-.27-.029-.542-.04-.809zm-2.244-45.868c.714-.372 1.363-.718 2.018-1.045a.41.41 0 00.261-.43c-.015-.639-.013-1.278-.03-1.917a2.951 2.951 0 00-.09-.475.974.974 0 00-.206.042c-.607.315-1.21.638-1.819.946-.211.107-.237.311-.241.524a7.821 7.821 0 00.107 2.355zm-.034 4.683c.727-.365 1.379-.693 2.033-1.019a.463.463 0 00.282-.484c-.012-.39.275-2.668-.532-2.208-.43.245-.859.494-1.3.7-.543.248-.56.271-.535.957.018.5-.015 1-.014 1.5a4.946 4.946 0 00.066.554zm2.212 5.663c-.273.129-.485.234-.7.33-.389.174-.783.333-1.168.518a.662.662 0 00-.434.7q.009.9-.006 1.793c-.007.376.139.48.438.335.487-.236.978-.462 1.478-.66.4-.158.475-.234.476-.745q0-.875-.015-1.749a4.709 4.709 0 00-.067-.522zm.093 59.982h-.017v-.874c0-.476-.071-.552-.465-.466-.508.111-1.012.255-1.522.353-.376.072-.383.088-.362.559a15.406 15.406 0 01-.012 1.566c-.029.494.026.633.444.591.547-.055 1.09-.172 1.633-.275.214-.041.3-.219.3-.464.002-.329.003-.66.003-.99zm-.1-50.111c-.668.242-1.243.435-1.807.663a.681.681 0 00-.479.669q0 .955-.009 1.91c0 .31.137.426.378.321.572-.247 1.141-.507 1.723-.72a.388.388 0 00.3-.441c-.013-.621-.01-1.243-.024-1.864a4.526 4.526 0 00-.087-.538zm.012 29.317c-.123.023-.2.01-.247.051a1.975 1.975 0 01-1.131.392c-.164.028-.333.022-.5.061a.539.539 0 00-.409.574q-.02.981-.019 1.963c0 .629 1.467.063 1.9-.022.386-.076.492-.235.491-.72a16.172 16.172 0 00-.087-2.299zm.09 45.274h-.023c0-.368.009-.736 0-1.1-.008-.239-.1-.4-.342-.389-.545.035-2.021-.217-2.015.559 0 .6 0 1.192-.013 1.787-.008.364.078.5.4.51.549.011 1.1.008 1.647 0 .263-.005.35-.125.352-.432s-.007-.626-.007-.936zM83.829 72.25a2.964 2.964 0 00.319-.043c.566-.152 1.13-.31 1.7-.464.212-.058.3-.207.291-.463a14.922 14.922 0 00-.118-2.434c-.519.185-.977.353-1.439.509a1.845 1.845 0 01-.393.067c-.362.039-.422.127-.42.542 0 .6-.016 1.2-.014 1.8a3.38 3.38 0 00.074.486zm2.295 36.67h-.009v-.464c0-.154.008-.31 0-.464-.013-.424-.111-.492-.466-.408-.535.126-1.074.238-1.614.33-.56.1-.288 1.787-.3 2.213-.009.367.068.527.39.5.579-.046 1.156-.144 1.732-.233.2-.032.258-.225.261-.431.011-.347.011-.691.011-1.043zm-.126-20.848c-.615.487-1.128.342-1.815.532a.549.549 0 00-.425.619c-.005.618-.013 1.236-.019 1.854 0 .371.159.542.435.39a3.284 3.284 0 011.414-.321c.457-.034.531-.123.536-.631.006-.641 0-1.282-.013-1.923a3.165 3.165 0 00-.113-.52zm-4.38 30.88h-.007v-.757c0-.526-.058-.591-.528-.584-.451.007-.9.016-1.353.031-.426.015-.474.08-.479.59-.006.56-.006 1.121-.028 1.68-.011.3.125.458.346.462.567.011 1.135-.007 1.7-.034.267-.013.367-.211.351-.517-.014-.292-.002-.584-.002-.875zm0-13.969c0-.309-.005-.619 0-.928.006-.262-.1-.4-.32-.414a3.66 3.66 0 00-1.852.379.56.56 0 00-.207.4c-.023.6-.009 1.193-.01 1.79 0 .309.1.456.355.42.593-.082 1.183-.2 1.773-.306.446-.08.264-1.064.264-1.345zm0-9.606h-.006c0-.274.193-1.66-.452-1.357a3.732 3.732 0 01-1.515.3c-.234.008-.375.139-.386.423q-.009.231-.012.463c-.006.462-.007.924-.018 1.386-.007.324.076.467.378.468a3.932 3.932 0 001.666-.31.58.58 0 00.348-.674 6.592 6.592 0 01-.003-.704zm4.511 18.571h-.016c0-.348.012-.7 0-1.045-.017-.368-.112-.434-.407-.4-.463.052-.927.1-1.391.114-.571.02-.57 0-.515.693a3.134 3.134 0 010 .348c-.013.4-.029.81-.045 1.215-.014.353.091.54.324.53q.847-.037 1.692-.1c.305-.023.357-.1.357-.481l.001-.874zm-4.515-47.414c0-.311.006-.621 0-.932-.009-.327-.131-.423-.381-.322-.532.215-1.064.433-1.6.638-.419.16-.409.152-.392.636.018.5.029 1.008.005 1.509-.023.477.118.65.515.532s.767-.238 1.148-.368c.574-.2.726-.455.706-1.169-.005-.174-.001-.349-.001-.524zm0 47.8h-.005v-.872c0-.39-.071-.5-.4-.5-.651.017-1.946-.168-1.958.737-.006.454-.325 2.158.4 2.127.216-.009.431-.042.647-.061.316-.027.635-.029.949-.08.332-.054.38-.148.377-.543-.009-.27-.008-.537-.008-.808zm4.516 4.285h-.018v-1.046c0-.22-.092-.377-.3-.369-.582.021-1.165.054-1.747.074-.211.007-.306.134-.309.36a97.447 97.447 0 00-.009 2.023c0 .3.126.424.379.41q.825-.042 1.648-.1c.305-.022.359-.1.36-.477-.005-.294-.005-.585-.005-.875zm-4.514-8.981v-.93c.01-.743-2.366-.665-2.37.355 0 .541 0 1.083.006 1.624 0 .221.066.4.278.394.583-.02 1.166-.054 1.748-.1.243-.018.344-.2.342-.475-.004-.287-.002-.578-.002-.868zm-.035-72.566c-.1-.019-.153-.052-.191-.034q-.99.474-1.976.96c-.188.093-.183.279-.177.489.015.54-.006 1.081.006 1.621 0 .157.029.387.115.448s.282.009.411-.051c.46-.212.906-.463 1.368-.668a.677.677 0 00.488-.756c.011-.666-.023-1.337-.044-2.009zm0 9.283a6.821 6.821 0 00-2.185.937c-.176.115-.17.292-.163.5.006.186-.119 1.948.072 2.025a.587.587 0 00.408-.043c.468-.191.925-.42 1.4-.6.771-.3.509-1.319.5-1.992-.017-.24-.025-.483-.035-.824zM79.293 87.75a3.878 3.878 0 001.969-.351.607.607 0 00.364-.667c-.034-.541-.011-1.087-.013-1.631 0-.438-.15-.582-.5-.386a2.429 2.429 0 01-1.065.257h-.1c-.536.06-.705.28-.7.893 0 .5-.007 1.007 0 1.511a2.862 2.862 0 00.045.374zm-.058-33a1.154 1.154 0 00.3 0c.543-.182 1.089-.354 1.622-.57.355-.143.475-.411.466-.853-.013-.665-.018-1.33-.018-2a7.682 7.682 0 00-1.847.645c-.414.161-.523.322-.517.852.007.648.031 1.279-.005 1.924zm2.388 35.852h-.006c0-.31.006-.62 0-.929s-.106-.43-.373-.393a6.281 6.281 0 00-.63.179 5.809 5.809 0 01-.831.176c-.485.046-.535.1-.535.656 0 .54 0 1.081-.024 1.62-.011.266.075.409.294.439a1.067 1.067 0 00.4.009c.471-.118.937-.259 1.406-.388.26-.072.34-.254.31-.557-.031-.268-.011-.542-.011-.812zm0 9.344h-.01v-.93c0-.31-.113-.425-.368-.411a1.832 1.832 0 00-.293.072c-.441.1-.88.213-1.324.29-.368.064-.409.117-.395.549.017.521.025 1.043 0 1.563-.021.491.038.637.448.581.56-.077 1.113-.233 1.667-.365.456-.107.281-1.039.281-1.349zm0-42.752h-.015c0-.389.228-1.512-.459-1.194-.46.213-.927.414-1.4.58s-.517.232-.506.8q.014.722-.012 1.446c-.038 1.047 1.733-.019 2.152-.256a.552.552 0 00.247-.627 5.478 5.478 0 01-.001-.749zM81.607 43.1v-.814c0-.465-.157-.6-.531-.437-.186.08-.354.215-.537.3-.352.173-.707.335-1.064.494-.206.092-.251.256-.244.5.017.56.007 1.121 0 1.681-.008.408.178.573.507.416.513-.244 1.874-.588 1.872-1.276l.001-.864zm.018 28.5h-.016c0-.287.208-1.451-.388-1.231-.549.2-2.026.367-1.991 1.113.025.539.042 1.081.016 1.619-.025.507.117.661.544.514.348-.12.7-.222 1.052-.335a1.927 1.927 0 00.379-.142c.556-.319.408-.997.408-1.537zm4.504 61.772h-.016c0-.31.008-.62 0-.929-.015-.431-.1-.49-.459-.467-.495.031-.991.033-1.487.02-.323-.009-.407.083-.4.467.006.577 0 1.155-.018 1.732-.014.385.086.549.412.552h1.541c.37 0 .439-.084.433-.506-.006-.292-.006-.582-.006-.869zm-4.5-52.415h-.025c0-.31.012-.621 0-.93-.017-.326-.132-.4-.4-.3q-.823.312-1.671.545c-.275.076-.308.272-.294.564.026.54.024 1.083.005 1.623-.016.443.089.548.465.428.3-.1.613-.163.919-.247a4.429 4.429 0 00.625-.191.643.643 0 00.38-.677c-.012-.272-.004-.544-.004-.815zm-.01-20.311c-.215.049-.326.062-.431.1-.475.171-.945.366-1.424.52s-.52.213-.514.8c0 .483-.005.966-.018 1.449-.01.4.046.475.394.465a1.244 1.244 0 00.347-.043q.575-.188 1.145-.4a.689.689 0 00.5-.653c.011-.712.003-1.426.003-2.238zm-.006 15.773h-.015c0-.271.015-.544.008-.814-.012-.449-.087-.524-.453-.421-.5.139-.995.306-1.5.434-.4.1-.427.144-.418.61.012.657-.416 2.341.683 2.052.405-.107.808-.228 1.212-.343.655-.186.485-1.006.485-1.518zm-2.334-40.4a4.583 4.583 0 002.173-1c.384-.512.166-1.626.154-2.238a1.332 1.332 0 00-.093-.338c-.077-.01-.116-.029-.142-.016-.376.184-2.08.747-2.086 1.206-.008.763-.004 1.527-.004 2.384zm1.139 86.7v.015c-.267 0-.534-.008-.8 0-.37.014-.391.063-.383.48.008.436-.312 2.159.334 2.186.567.024 1.135.017 1.7 0 .223-.008.362-.152.355-.452-.014-.6-.006-1.2-.013-1.8 0-.362-.062-.423-.392-.428-.265-.006-.532-.003-.799-.003zm1.211 9.353c-.779 0-1.474-.006-2.169 0-.235 0-.229.2-.226.415q.012.865-.007 1.731c-.007.327.049.469.361.489.564.037 1.132.03 1.7.015.191-.005.348-.118.346-.4-.013-.709-.005-1.422-.005-2.25zm-2.286-4.669a1.384 1.384 0 00-.1.321c-.009.658-.009 1.317-.008 1.975 0 .232.115.372.309.375.586.009 1.172.011 1.758-.008.2-.006.33-.145.325-.418a89.093 89.093 0 01-.006-1.864c0-.232-.068-.379-.282-.38-.67-.004-1.337-.003-2-.003zm-4.265 4.646v2.3c0 .24.1.381.293.386.568.016 1.136.014 1.7.006.192 0 .307-.127.305-.369 0-.659 0-1.318-.008-1.977 0-.207-.089-.34-.269-.342-.648-.01-1.295-.006-2.025-.006zm2.229-97.577c-.634.3-1.19.541-1.732.82a.776.776 0 00-.494.833 20.379 20.379 0 00.075 2.072c.285-.136.531-.243.77-.368.454-.237 1.478-.543 1.461-1.177a19.432 19.432 0 00-.08-2.18zm-2.22 42.5v2.022c0 .556.085.634.564.492.417-.124.835-.246 1.255-.351.365-.091.447-.165.459-.617.016-.58.013-1.162 0-1.743a1.739 1.739 0 00-.15-.458zm0-22.987v.705c-.006.5-.02 1.008-.022 1.511 0 .716.841.043 1.173-.089.394-.157 1.129-.219 1.128-.767 0-.621.008-1.242 0-1.862-.007-.376-.153-.482-.455-.345-.588.27-1.172.548-1.821.85zm2.151-15.013c-.208.1-.316.15-.422.2-.467.24-1.728.593-1.728 1.2s-.012 1.2-.014 1.8c0 .41.149.514.471.346.47-.245.936-.5 1.418-.711a.581.581 0 00.408-.627 11.059 11.059 0 00-.133-2.208zm.13 30.346c0-.788.009-1.5 0-2.221-.007-.377-.168-.5-.458-.312a2.671 2.671 0 01-.994.356 2.848 2.848 0 00-.6.279.394.394 0 00-.222.408v2.037a.82.82 0 00.1.238zm-.1 25.606c-.616.075-1.189.136-1.761.216-.3.042-.4.17-.409.539-.015.6-.015 1.2-.006 1.8.005.365.082.422.409.383.165-.019.333-.012.495-.047.357-.077.713-.162 1.066-.265a.443.443 0 00.318-.463 7.5 7.5 0 00-.115-2.166zm-2.206-50.252v2.243c0 .287.142.389.361.286.479-.226 1.557-.523 1.847-.96s.1-1.668.087-2.182a1.33 1.33 0 00-.15-.4zm2.2 59.656l-1.755.125c-.322.023-.4.085-.411.431-.016.638-.009 1.277-.01 1.916 0 .2.074.358.259.346.554-.035 2.009.143 2.019-.664q.011-.929-.005-1.858a1.016 1.016 0 00-.097-.293zm.019-42.133c-.692.242-1.339.472-1.989.694-.19.065-.2.232-.2.412 0 .446-.355 2.453.45 2.2.417-.132.832-.268 1.244-.419a1.638 1.638 0 00.353-.219.584.584 0 00.249-.532 12.949 12.949 0 00-.107-2.132zm-.011 60.706c-.684.038-1.3.07-1.908.107-.183.011-.267.14-.268.343 0 .658-.011 1.316 0 1.973.006.319.106.418.374.394.5-.044 1-.095 1.492-.16.325-.043.4-.135.406-.521q.017-.812 0-1.625a3.236 3.236 0 00-.096-.507zm.1-35.788c0-.291.006-.582 0-.872-.011-.46-.1-.54-.488-.468a2.853 2.853 0 00-.29.086c-.458.137-1.5.16-1.5.727 0 .581 0 1.163-.006 1.744-.007.5.069.584.491.484.488-.116.975-.24 1.464-.347.513-.109.326-.984.326-1.351zm0 22.923c0-.272.006-.545 0-.816-.013-.45-.068-.513-.451-.458-.513.074-1.025.167-1.537.256-.191.033-.292.155-.291.395 0 .46-.34 2.453.409 2.3.509-.106 1.018-.215 1.531-.292.253-.038.354-.161.345-.449-.011-.31-.004-.621-.004-.932zm-2.255-10.229c-.009.167-.024.337-.026.507 0 .4-.234 1.668.049 2.014.271.33 1.492-.18 1.844-.246.316-.06.384-.115.387-.468.005-.583 0-1.166-.005-1.748-.007-.45-.069-.529-.446-.46-.589.111-1.176.266-1.801.405zm-.027-26.13h.006v.349c0 .472-.131.98.484.832.454-.109.9-.267 1.352-.385.348-.091.425-.16.433-.573.011-.562.01-1.125 0-1.687-.008-.483-.108-.563-.532-.434-.45.137-.895.294-1.344.429-.329.1-.383.151-.4.538-.005.314.004.626.004.935zm.055 19.579c.481-.046.877-.072 1.269-.126a2.494 2.494 0 00.58-.163c.673-.27.388-1.623.368-2.173a3.422 3.422 0 00-.1-.545c-.457.072-.849.128-1.238.2a3.266 3.266 0 00-.534.143c-.365.132-.395.177-.4.612a14.764 14.764 0 00.058 2.056zm2.135-35.706c-.594.227-1.094.439-1.606.606-.815.266-.581 1-.578 1.744v.957c.11.037.164.079.2.066.527-.182 1.609-.323 1.954-.777.315-.415.126-1.477.111-1.97.001-.182-.042-.366-.078-.622zm-.009 23.295c-.438.1-.763.161-1.083.251a4.648 4.648 0 00-.857.3.544.544 0 00-.227.391 36.27 36.27 0 000 1.979.843.843 0 00.093.255 3.469 3.469 0 01.839-.2c.483.007 1.37-.259 1.352-.86a12.224 12.224 0 00-.117-2.116zm-1.115 49.37v-.023c.422 0 .957.139 1.188-.271a5.336 5.336 0 00.02-1.921c-.014-.458-.1-.518-.492-.485-.482.04-.964.081-1.446.094a.3.3 0 00-.326.332q-.015.987 0 1.975c0 .26.126.376.362.344s.461-.031.694-.045zm1.169-82.074c-.689.3-1.3.549-1.9.819a.624.624 0 00-.336.649c.01.582 0 1.165.007 1.747a1.549 1.549 0 00.078.31 9.713 9.713 0 001.937-.813.6.6 0 00.276-.621c-.039-.697-.011-1.393-.062-2.091zm.05 66.607c0-.291.006-.582 0-.873-.011-.443-.06-.505-.451-.464-.514.055-1.026.145-1.54.21a.3.3 0 00-.28.334c0 .308-.176 2.5.3 2.316a5.046 5.046 0 011.588-.194c.591-.029.383-.927.383-1.329zm-2.3 3.338v2.272c0 .281.128.391.342.383a40.156 40.156 0 001.551-.081c.318-.024.392-.1.4-.457.013-.6.015-1.205 0-1.807-.009-.349-.122-.427-.419-.409-.5.031-1 .047-1.5.07-.099.005-.194.015-.373.029zM57.049 75.56c-.1-.019-.138-.042-.163-.029-.623.321-1.249.635-1.862.981-.328.185-.131 1.39-.128 1.676v.787c.451.152 1.464-.575 1.855-.807a.844.844 0 00.366-.574c.021-.672-.038-1.348-.068-2.034zm-2.164 46.964h-.011v.756c-.009.455.033.532.4.535.568.005 1.8.258 1.814-.556a49.98 49.98 0 00.009-1.688c0-.347-.091-.453-.4-.445-.484.013-.966.064-1.45.083-.544.024-.362.979-.362 1.315zM57.1 99.445h-.011c0-.313.192-1.287-.329-1.261a.71.71 0 00-.29.086 2.827 2.827 0 01-1.148.366c-.3.02-.422.206-.435.59-.019.561-.014 1.123-.018 1.684 0 .263.115.4.339.39a1.4 1.4 0 00.346-.051c.369-.107.735-.228 1.1-.336.325-.095.432-.243.44-.656.011-.269.006-.54.006-.811zm-.024-19.541a2.459 2.459 0 00-.469.121c-.454.228-.889.511-1.354.7a.538.538 0 00-.372.583c0 .579-.019 1.158-.02 1.737 0 .307.185.425.446.292.407-.207.8-.442 1.219-.622.995-.428.55-1.893.55-2.81zm-2.208 37.043c0 .367-.235 2.716.325 2.614a19.233 19.233 0 001.713-.4.45.45 0 00.214-.343c.006-.6-.012-1.2-.044-1.8-.018-.342-.149-.428-.437-.351a10.416 10.416 0 01-1.771.281zm2.234-8.485v-.872c0-.368-.125-.491-.433-.416-.457.112-.881.308-1.353.386-.383.063-.422.079-.429.53-.007.5.011 1.008-.006 1.511-.02.607.11.729.605.572.432-.137.871-.25 1.311-.352a.359.359 0 00.309-.43c-.013-.308-.005-.619-.005-.929zm-.073-14.722c-.163.037-.229.047-.292.068-.509.167-1.016.345-1.527.5-.543.164-.411 1.738-.335 2.179.137.8.692.392 1.3.143a5.944 5.944 0 00.689-.324.565.565 0 00.258-.575c-.026-.482-.025-.965-.042-1.448-.005-.164-.031-.326-.051-.543zm-2.073-5.824c.638-.252 1.207-.467 1.768-.7a.753.753 0 00.4-.788c-.013-.465-.028-.929-.037-1.394s-.144-.59-.53-.42c-.217.1-.424.221-.636.329-.272.139-.549.267-.818.413a.5.5 0 00-.237.52 18.08 18.08 0 00.088 2.04zm2.137 1.014a5.842 5.842 0 00-1.922.7.449.449 0 00-.3.468c0 .3-.209 2.357.312 2.147a36.755 36.755 0 001.68-.713.474.474 0 00.216-.34c.022-.727.012-1.46.012-2.262zm-2.219 15.636c0 .347-.206 1.453.448 1.231.234-.08.478-.121.719-.177a4.622 4.622 0 00.635-.147.734.734 0 00.446-.755c-.005-.4.2-1.618-.183-1.895-.324-.234-1.529.365-1.863.468s-.204 1-.204 1.275zm2.212 8.7v-.8c0-.2-.1-.358-.274-.335a19.15 19.15 0 00-1.576.256c-.234.05-.353.274-.354.561v1.624c0 .2.088.354.264.345a11.471 11.471 0 001.487-.128c.35-.064.49-.343.486-.759-.006-.226-.022-.458-.036-.758zm.045 12.651c-.622 0-1.135-.011-1.647 0s-.591.119-.6.736c0 .446-.006.892-.009 1.338s.128.575.519.546c.366-.028.733-.037 1.1-.054.117-.005.234 0 .35-.011a.308.308 0 00.283-.34c.002-.71.002-1.425.002-2.213zm-.034 5.705c0-.272.01-.544 0-.815-.036-.808-1.4-.4-1.91-.372-.529.032-.506 2.452.05 2.463.5.01 1 .007 1.505 0 .524-.014.352-.956.352-1.274z"/><path d="M119.295 24.329v4.2c0 .445-.111.5-.448.291-.955-.6-1.913-1.194-2.876-1.774-1.423-.856-2.851-1.7-4.278-2.546-1.2-.715-2.412-1.423-3.615-2.143-.46-.275-.905-.585-1.367-.858-1.083-.64-2.174-1.258-3.255-1.9-.668-.4-1.321-.829-1.987-1.234-.961-.585-1.928-1.158-2.891-1.738-.637-.384-2.455-1.946-3.2-1.532-.6.337-1.2.665-1.809.993q-1.7.922-3.408 1.837c-1.5.8-3 1.585-4.5 2.381-1.091.58-2.186 1.151-3.276 1.732-.818.436-1.628.89-2.447 1.322-1.016.537-2.024 1.082-3.035 1.627a.537.537 0 01-.4.077c-.069-.028-.107-.262-.106-.4q.025-3.932.064-7.864c-.246-.761.155-1.041.668-1.322 1.147-.628 2.27-1.314 3.406-1.967 1.675-.962 3.356-1.912 5.031-2.875 1-.576 1.995-1.172 3-1.751.747-.432 1.5-.846 2.249-1.277 1.044-.6 2.085-1.213 3.126-1.821.491-.287.981-.578 1.472-.867a.693.693 0 01.769.034q2.2 1.4 4.394 2.8 1.427.908 2.857 1.81 1.74 1.1 3.483 2.189c1.5.942 3 1.879 4.5 2.826 1.775 1.123 3.545 2.258 5.319 3.382.689.436 1.376.879 2.081 1.279a1.019 1.019 0 01.522 1.018c-.013 1.36 0 2.721 0 4.082zm25.34 45.667a4.611 4.611 0 01-.652-.263q-2.2-1.32-4.4-2.661c-1.2-.729-2.385-1.474-3.583-2.2-1.54-.932-3.087-1.852-4.63-2.777a3.547 3.547 0 01-.441-.277c-.839-.687-2.751.683-3.551 1.053q-1.066.493-2.136.975c-.4.182-.812.352-1.216.535-.788.357-1.573.727-2.363 1.078-.7.31-1.405.6-2.1.906-.314.138-.948.708-.949-.032 0-1.691.009-3.381 0-5.072a.489.489 0 01.283-.49c.44-.229.884-.448 1.327-.671l2.018-1.014c.581-.29 1.164-.575 1.746-.863l2.161-1.074c.612-.3 1.228-.6 1.837-.913a94.28 94.28 0 002.178-1.147.405.405 0 01.467.028q3.642 2.334 7.288 4.66c2.02 1.29 4.048 2.564 6.059 3.872.911.592.746.422.749 1.481 0 1.5-.007 2.991-.015 4.487a2.5 2.5 0 01-.077.379zM67.429 58.494l2.078 1.269a.815.815 0 01.348.776q-.011 2.127-.013 4.254c0 .343.226 1.5-.471 1.136-.3-.16-.586-.364-.878-.55a9.216 9.216 0 00-.836-.521.567.567 0 00-.465-.015c-.7.357-1.386.747-2.076 1.127-.873.481-1.74.976-2.617 1.445-1.075.575-2.159 1.124-3.236 1.693-.819.433-1.632.881-2.448 1.324-.256.139-.509.287-.766.424s-.387.058-.39-.267c0-.291.029-.582.03-.872 0-.9.006-1.8 0-2.693 0-.588-.236-1.562.377-1.9 1.727-.965 3.432-1.981 5.15-2.97 1.9-1.093 3.8-2.173 5.7-3.266a4.859 4.859 0 00.513-.394zm-15.065-7.09c-1.306-5.136-3.434-10.038-3.9-15.351a57.114 57.114 0 00-1.207-8.232c-.638-2.671-3.48-2.913-5.823-3.386-2.776-.56-5.416-.887-7.751-2.642a4.207 4.207 0 01-.725-5.774 3.69 3.69 0 001.271-2.847 11.572 11.572 0 00-.355-1.846 5.447 5.447 0 01.172-1.724c.413-2.528.206-5.439-1.711-7.3A8.547 8.547 0 0025.907.036c-1.2.112-2.263 1.153-3.067 1.894-.09.083-.3.039-.37.116-.14.164-.207.464-.338.6-.175.187-1.233.516-1.223.769.007.182.365.093.254.318-.093.189-.261.137-.367.419a5.675 5.675 0 00-.506 2.056c.024.525.212.505.367.923a21.876 21.876 0 01.508 2.417 2.941 2.941 0 01.168 1.685 6.749 6.749 0 00-.493 1.952 4.6 4.6 0 00.414 1.907c.415.816 1 .867 1.213 1.842a5.345 5.345 0 01-.241 3.94 6.948 6.948 0 01-3.642 2.611c-2.989 1.121-6.3 1.466-9.171 2.912-1.488.749-1.588 2.013-1.73 3.536-.156 1.662-.28 3.316-.428 4.98-.306 3.427-.27 6.927-.378 10.367a41.008 41.008 0 01-.12 5.093c-.267 1.7-.519 3.375-.922 5.07a36.155 36.155 0 00-1.06 5.044 29.9 29.9 0 00.2 4.941c.256 3.193.62 6.368.9 9.557a15.332 15.332 0 01-.278 4.6 13.254 13.254 0 00-.368 2.004c-.032.81.565 1.639.49 2.37a8.38 8.38 0 01-.89 1.97c-.338.413-.519.315-1.074.3a3.335 3.335 0 00-3.2 1.588c-.713 1.261-.434 3.011-.438 4.4q-.007 2.674 0 5.347.008 5.563 0 11.127c0 1.083-.454 3.417.357 4.232.985.991 3.352 1.338 4.644 1.708a16.29 16.29 0 004.385.811c.97 0 3.66.464 4.386-.443.338-.422.144-1.278.144-1.762v-8.211c0-3.823 0-7.646.02-11.468.007-1.486.181-2.968-.834-4.192-.407-.49-1.263-.661-1.593-1.128a10.165 10.165 0 01-.4-2.616c.129-.534.606-.82.64-1.443a10.315 10.315 0 00-.449-2.066c-.114-.729-.289-1.448-.408-2.172-.053-.326-.015-.639-.092-.967-.086-.362-.564-.922-.473-1.273.144-.56.792-.448 1.346-.719.311-.153.765-.682 1.03-.423.229.223.029 1.715.033 2.063a15.556 15.556 0 00.017 2.772c.135.663.53.817.84 1.34a5.988 5.988 0 01.259 2.387c.162 1.71.344 3.412.474 5.126.257 3.388.583 6.765.822 10.155.468 6.656 1.158 13.332 1.464 20 .158 3.452.47 6.886.757 10.327a21.451 21.451 0 00.582 4.519c.24.776.537 1.554.818 2.316a2.553 2.553 0 00.262.687c.139.183.739.414.763.562.063.4-.924 1.218-1.154 1.519a3.839 3.839 0 00-.781 1.49c-.261 1.076-.922 2.931.36 3.467a14.538 14.538 0 004.944.646 3.678 3.678 0 003.178-1.877c.456-.725.212-.906.113-1.64a7.94 7.94 0 01-.057-2.242c.253-.557.61-.559.955.018a4 4 0 01.083 1.995c-.166.869-.442 1.2.109 2.015a4.743 4.743 0 001.634 1.5c1.4.681 3.628.111 5.084-.134 1.018-.172 1.93-.162 2-1.355a6.3 6.3 0 00-1.479-4.317c-.5-.607-.627-.619-.441-1.337a22.405 22.405 0 01.807-2.1c.644-1.723 1.382-3.445 1.874-5.22a33.4 33.4 0 00.6-5.017c.2-1.738.282-3.5.5-5.225.422-3.3.651-6.626 1.085-9.936.826-6.3 1.314-12.638 2.069-18.948.374-3.129.707-6.26 1.149-9.389.215-1.519.324-3.086.6-4.59.143-.78.3-.907.991-1.148.861-.3 1.132-.352 1.395-1.306a17.907 17.907 0 00.323-2.236 5.988 5.988 0 01.32-1.872c.32-.472 1.291-.633 1.78-.938a2.7 2.7 0 001.191-1.625c.964-2.841 1.681-5.732 2.394-8.645.746-3.022 1.615-5.863.827-8.962zm-42.23 36.268a20.159 20.159 0 01-3.494-.935c-.519-.275-.776-.255-.468-.947.26-.584.128-.484.668-.353.513.125.972.466 1.51.577.352.073 1.22-.108 1.479.055.2.129.723 1.644.305 1.603zm17.965 42.376a16.665 16.665 0 01-.486 2.865c-.089.476-.243.948-.307 1.428-.068.5.087 1.075-.172 1.533-.283-1.891-.937-3.718-1.129-5.62a60.383 60.383 0 01-.232-6.163 52.36 52.36 0 01.073-5.915c.242-2.086.285-4.223.4-6.324.22-3.952.691-7.9.834-11.866.07-1.926.2-3.881.332-5.81.14-2.124.039-4.294.3-6.4.249 14.082.341 28.177.387 42.272zm4.9-104.455a58.244 58.244 0 01-.732 9.361c-.143.886-1.4 8.947-1.838 8.925-.238-.012-1.089-7-1.206-7.756-.2-1.311-.39-2.626-.613-3.934a9.483 9.483 0 01-.26-3.979c.262-1.008.887-1.832.169-2.748-.136-.173-.757-.907-.975-.937-.432-.061-.985.677-1.251 1.017-.791 1.014.229 2.1.409 3.248a22.964 22.964 0 01-.173 4.376c-.119 2.806-.33 5.589-.408 8.4-.007.261.061 2.039-.391 1.471a7.821 7.821 0 01-.448-1.834c-.221-.79-.451-1.578-.658-2.372a64.128 64.128 0 01-1.711-7.611c-.363-2.738-1.128-5.669-.687-8.455.165-1.045.479-.547 1.166-.087a13.806 13.806 0 001.807 1.046 5.037 5.037 0 004.335-.123 15.587 15.587 0 001.873-.929c.138-.079 1.162-.882 1.367-.8.543.211.206 3.137.224 3.721z"/></g></svg>