<svg viewBox="0 0 146.193 145.205" xmlns="http://www.w3.org/2000/svg"><path d="M145.677 144.64s-11.592-1.364-27.5-13.167c-5.167-3.833-3.667-4-4-9.667s-5.5-18.167-11-23.167-16.5-13.667-28-15.333-32.833-3.332-32.833-3.332-.5-8.167-4-13.167-1-11.667-1-11.667l-10.833-7.166H.844l3.833-7 3.833-4 1.5-6.333 2.334-2.834 36.833-2.5s2-5 12.5-10.833S74.844 5.307 75.844.64c0 0 2.667.833 11.667 1.5s28.333 1.667 35.5.167 16.5-.5 16.5-.5 1.333 25.833 2 32.667 2.833 37 2.667 43.333 1.499 66.833 1.499 66.833z" fill="none" stroke="#e2d564" stroke-miterlimit="10"/><path d="M143.098 115.178a.821.821 0 01-1.517.453c-2.937-4.689-8.606-14.324-11.237-15.824-3.144-1.8-23.772-12.335-27.935-14.46a.809.809 0 01-.387-1.033c.709-1.666 1.891-6.562-2.845-15.507a92.25 92.25 0 00-4.933-8.567c-1.237-1.784-.716-1.248.268-1.305 2.952-.173 9.307-1.225 12.91-6.878a.812.812 0 01.731-.389c3.054.177 19.86 1.139 23.19 1.139 1.988 0 4.822.027 7 .052 1.814.021 2.741 1.43 2.868 3.24l.665 13.44zm-34.954-64.74s19.365 1.826 25.413 1.2 7.463-.173 7.206-5a74.178 74.178 0 00-1.158-10.031c-.193-.643-.772-3.088-4.825-2.7s-18.786 3.925-19.3 4.118-4.436 10.096-7.336 12.413zm7.822-14.066s16.386-3.214 18.659-4.234 5.566-2.979 1.411-12.152-8.232-12.387-14.5-5.174a62.973 62.973 0 00-9.33 14.112s4.466 2.509 3.76 7.448zm-5.253-7.918s6.115-9.878 9.251-14.112 2.822-8.763-4-9.468-10.162 2.433-13.012 4.293c-2.088 1.359-2.2 5.488-3.136 10.819s-1.1 8.467 0 10.427a14.5 14.5 0 0110.897-1.959zm-19.208 8.938a47.78 47.78 0 006.35-16.151c1.647-9.094 3.689-16.663 3.689-16.663L77.785 3.372a24.844 24.844 0 00-2.041 4.463s-4.626 3.606-6.037 4.39c0 0 1.882 2.43.314 7.683s-2.82 11.351-1.777 14.899c0 0 5.855-4.467 10.795-2.272s9.805 4.935 12.466 4.857z" fill="#e2d564"/><path d="M67.661 13.257a6.6 6.6 0 011.814 4.829c-.078 3.1-4.234 12.4-2.666 16.834a5.6 5.6 0 01.392 1.453s-11.057 15.753-17.248 9.476-2.314-11.265-1.079-15.025 2.99-7.392 6.955-10.018 10.635-6.766 11.832-7.549zm-23.196 40.05a10.59 10.59 0 00-2.9 8.859 12.586 12.586 0 001.379 3.241l11.635-2.087-.6-6.724s-5.829 1.101-9.514-3.289zm17.562-1.755s-4.236 4.148-7.056 4.656l.675 7.038 11.555-3.745zm10.192-8.736a34.81 34.81 0 00-7.762 6.179c-1.791 1.972-1.8 1.96-1.8 1.96l5.566 8 9.565-4.782zm1.037-.358s3.5-2.839 14.643 4.185c0 0 9.053 4.547 11.151 4.626l-3.233 5.723a18.345 18.345 0 01-8.075.549 23.2 23.2 0 01-8.781-3.134zm5.588 14.099s-5.667 1.387-7.5 2.944-1.75.414-.667 6.194-.083 5.779 3.167 6.945 11.583 11.083 16 11.25 5.685-1.021 9.206-1.333.96-8.9-.79-12.117-5-10.211-8.083-10.939-8.45-1.177-11.333-2.944zm-11 4.25s2.669 6.75 2.377 11.833c-.001 0-23.127 1.667-24.377 1.667s-1.833-1.5-1.917-4.667l-.083-3.166 10.735-1.75zM27.112 45.974H4.219l2.085-3.807 4.027-4.202 1.519-6.412 1.49-1.809 32.238-2.188-9.223 24.533z" fill="#e2d564"/></svg>