<svg viewBox="0 0 143.291 148.116" xmlns="http://www.w3.org/2000/svg"><g fill="#659ab2"><path d="M143.193 101.13c0-1.21-.1-1.254-1.279-1.27-.9-.013-.718-.46-.72-1.275V64.539a5.342 5.342 0 00-.015-1.78c-.3-.578-1.487-.309-2.065-.309h-20.063a29.789 29.789 0 00-3.465 0c-1.125.135-.672 1.571-.69 2.531-.049 2.534.014 5.074.024 7.61.021 5.294-.087 10.587-.086 15.881q0 4.033.01 8.067c0 .589.336 2.829-.206 3.209-.931.652-.884-.571-.88-1.03.044-5.337 0-10.676-.006-16.013V78.84c0-.553.227-1.56-.3-1.908-.587-.388-2.356-.057-3.038-.055l-4.188.006q-7.957.008-15.913 0c-.846 0-1.86.3-2.1-.653a17.729 17.729 0 01.012-3.914c0-.58-.251-2.44.082-2.9.454-.629 2.434-.25 3.133-.25h19.979c.652 0 2.049.317 2.295-.426.233-.7.114-1.55-.543-1.737a2.461 2.461 0 00-.566 0c-1.914-.009-3.828 0-5.742 0q-7.733 0-15.467-.007h-1.768c-1.5 0-1.33-.481-1.349-1.91-.017-1.265-.063-2.534-.054-3.8.006-.817-.3-2.084.544-2.379.982-.343 2.712 0 3.76 0h20.277c.689 0 2.617-.361 3.225.031.7.45-.249 1.566.726 1.938a7.524 7.524 0 002.661-.087c.443-.31.138-2.6.138-3.082v-7.973c0-.873.356-2.562-.016-3.361-.319-.684-1.16-.446-1.868-.446H89.687c-.611 0-2.921-.364-3.412.008-.522.4-.217 1.722-.217 2.334v28.205c0 .891-.35 2.823 0 3.638.323.745 1.318.441 2.1.441h9.659c.357 0 1.3-.174 1.6.013.555.347.219 2.779.218 3.412q-.007 3.974-.006 7.947v5.481a6.757 6.757 0 010 2.071c-.369.753-.307-1.081-.307-1.3q0-2.167.01-4.334.009-3.792.008-7.585c0-1.2.01-2.4.041-3.6.034-1.309-.178-1.421-1.431-1.415-5.146.026-10.411.317-15.545-.009-1.087-.069-.8-1.258-.852-2.185q-.139-2.627-.27-5.254c-.51-10.079-.993-20.159-1.543-30.236-.07-1.284-.129-2.57-.226-3.852-.06-.79-.011-1.159-.928-1.257-.94-.1-1.217-.21-1.494-1.157a4.172 4.172 0 01.01-3.065c.933-2.149 2.821-3.716 4.557-5.194 1.4-1.2 3.758-3.337 3.107-5.457a3.634 3.634 0 00-2.038-1.82c-.547-.245-1.372-.628-1.3.083.028.261.575.784.645 1.154a2.358 2.358 0 01-.059 1.054c-.307 1.094-1.242 1.432-2.077 2.056a11.159 11.159 0 00-3.736 4.614 6.4 6.4 0 00-.55 3.181c.024.267.534 2.713.8 2.537a12.751 12.751 0 01.387 1.578c-.049.476.159.3-.489.441-.717.155-1.8-.368-2.157.385a3.44 3.44 0 00-.052 1.024l-.25 4.85q-.418 8.114-.829 16.228c-.257 5.1-.517 10.2-.745 15.3-.053 1.173-.128 2.35-.137 3.525-.009 1.113.216 1.577-1.053 1.472-.8-.066-.745-.289-.775-.946-.389-8.634-.659-17.275-1.009-25.91-.352-8.7-.727-17.394-1.05-26.092a2.87 2.87 0 00-.021-.645c-.254-.844-1.569-.571-2.371-.58-.6-.006-2.506-.255-2.833.3a6.507 6.507 0 00-.1 2.166q-.266 6.12-.509 12.241-.646 15.843-1.252 31.688c-.056 1.5-.112 3.005-.161 4.508-.025.786.124 2.832-.425 3.245-.289.217-1.037.028-1.391.026h-2.03c-1.226 0-2.453-.08-3.679-.06-.973.016-1.626-.2-1.832.728a22.152 22.152 0 000 4.442c0 2.759.164 5.574 0 8.328-.038.647-.014.677-.6.815a8.317 8.317 0 01-1.709 0c-.33 0-1.456.175-1.727-.082-.234-.222-.073-1.155-.073-1.425-.011-5.549 0-11.1 0-16.649a16.752 16.752 0 00-.007-3.7c-.325-1.277-1.371-.091-2.134-.446-.875-.407-.212-2.121-.254-2.835-.038-.634-.057-2.532-.535-2.762a5.958 5.958 0 00-1.817-.01H32.216a19.279 19.279 0 00-1.955 0c-.852.087-.778.213-.787 1.065-.008.674.338 2.6-.125 3.134-.239.275-.884.318-1.19.534-.431.3-.87.725-1.275 1.058-.667.549-.547 1.137-.546 1.929v22.468c0 .526.185 1.617-.189 1.98-.515.5-1.258-.236-1.582.639-.167.452-.258 3.022.107 3.382.494.486 2.66.126 3.321.124q2.141-.006 4.281 0h25.18c11.173 0 22.345-.021 33.518.011 3.66.01 7.319.011 10.978.023-.411 1.023-.647 2.565-.949 3.159a62.149 62.149 0 01-3.792 6.736 43.059 43.059 0 01-11.229 11.5 50.893 50.893 0 01-14.84 6.995 48 48 0 01-14.884 1.37c-5.244-.178-10.693-1.94-15.464-4.039a42.353 42.353 0 01-12.4-8.379 47.023 47.023 0 01-13.573-25.498c-3.663-20.5 8.751-42.533 28.417-49.751a59.905 59.905 0 016.681-1.932 50.461 50.461 0 017.641-1.044c.571-.05 2.364.2 2.788-.22.46-.452.28-2.359.308-2.945.129-2.725-.044-5.474-.109-8.193-.015-.651.274-2.548-.319-2.908-.348-.211-1.38-.034-1.753-.033a7.733 7.733 0 00-2.2.02c-.951.365-.557 1.54-.679 2.423-.183 1.32-.265 2.781-.517 4.075-.243 1.251-1.375.822-2.406.954a32.194 32.194 0 00-4.391.843 19.194 19.194 0 01-2.685.683c-.7.083-.64-.138-1.013-.831-.349-.648-.75-1.266-1.106-1.909s-.966-2.564-1.645-2.859c-.733-.319-2.8 1.006-3.5 1.282-1.088.431-2.287.816-3.326 1.338-1.11.558-.326 1.618-.049 2.586.3 1.062.639 2.218.853 3.314.221 1.137-.567 1.211-1.5 1.721-1.11.607-2.165 1.28-3.242 1.939-.567.347-1.115.7-1.652 1.092-.408.3-1.128 1.067-1.631 1.168-.879.176-2.276-1.395-2.956-1.939-.577-.462-2.033-2.136-2.791-2.074-.389.032-1.087 1.006-1.357 1.277q-.745.751-1.494 1.5c-.64.64-2.721 2.125-2.724 3 0 .694 1.555 2.063 1.96 2.608.382.513.75 1.038 1.15 1.537.529.66.821.7.459 1.392a19.235 19.235 0 01-1.9 2.26c-.786 1.035-1.533 2.055-2.233 3.152a19.532 19.532 0 01-1.9 3.046c-.594.615-1.632.107-2.381-.132-1.039-.331-2.13-.583-3.178-.888a7.082 7.082 0 00-.976-.4c-.7.01-.752.926-.97 1.427-.378.869-.755 1.681-1.064 2.585-.183.537-.449 1.045-.664 1.569-.141.343-.823 1.423-.748 1.764.1.449.966.713 1.308.912.624.362 1.228.758 1.852 1.121.541.315 1.084.632 1.632.936.614.34.778.286.824.9a4.75 4.75 0 01-.516 1.609c-.192.581-.259 1.2-.445 1.78a19.638 19.638 0 00-.847 3.89 31.016 31.016 0 01-.522 3.44c-.248 1.126-1.883.747-2.866.875a33.062 33.062 0 00-3.5.448c-1.411.346-.841 2.211-.84 3.4a34.889 34.889 0 00-.016 4.107c.161 1.307 1.643.919 2.716 1 .634.05 1.26.27 1.89.369a10.193 10.193 0 012.162.216c.79.389.534 1.871.714 2.7.529 2.431 1.215 4.948 1.639 7.411.127.738.244.426-.422.877-.514.348-1.106.622-1.643.936-1.027.6-2.064 1.194-3.108 1.763-.562.306-.715.243-.658.848a7.931 7.931 0 00.618 1.511c.431.992.875 1.989 1.294 3 .227.549.665 2.37 1.206 2.528.351.1 1.337-.393 1.693-.482.655-.162 1.274-.382 1.922-.55s2.622-1.005 3.194-.582c.313.232.551 1.086.749 1.436.339.6.723 1.173 1.1 1.751.692 1.067 1.385 2.13 2.147 3.15.523.7 2.166 2.124 1.987 3-.17.838-1.667 2.159-2.2 2.835a7.1 7.1 0 00-1.166 1.511c-.22.643.24.93.685 1.377q1.451 1.456 2.908 2.906a8.445 8.445 0 001.5 1.5c.512.271.457.23 1.012-.16.982-.691 1.9-1.477 2.866-2.2a9.149 9.149 0 011.165-.93c.59-.26.789.087 1.382.55a68.712 68.712 0 006.253 4.194c.767.474 1.717.656 1.831 1.555.14 1.1-.681 2.7-.979 3.737-.158.55-.966 2.452-.6 2.958.241.33 1.1.494 1.462.658q.978.447 1.978.853c1.049.427 2.127.817 3.17 1.211.558.211.414.395.881.031a8.565 8.565 0 001.053-1.81c.544-.955 1.055-1.925 1.6-2.883.167-.293.645-1.463.975-1.551.245-.066 1.1.352 1.413.406 2.449.429 4.8 1.187 7.31 1.241 1.322.029 1.079 1.206 1.219 2.342a21.486 21.486 0 00.531 4.23c.4 1.192 1.413.831 2.513.828 1.55 0 3.513.334 5.02 0 .818-.181.622-.663.878-1.466a25.068 25.068 0 00.452-3.692 7.192 7.192 0 01.258-1.889c.319-.5.733-.351 1.344-.383 1.428-.076 2.781-.438 4.188-.642a21.847 21.847 0 003.238-.718 8.079 8.079 0 011.526-.432c.737-.089.742.043 1.175.787.675 1.16 1.3 2.363 1.944 3.539.422.766.871 2.519 1.9 2.432a13.432 13.432 0 003.356-1.385 23.1 23.1 0 002.872-1.28c1.053-.638.5-1.568.24-2.63-.29-1.17-.676-2.314-1.008-3.48-.135-.475-.189-.954-.3-1.432-.149-.623-.331-.485.081-.953a6.766 6.766 0 011.607-.865 20.176 20.176 0 001.68-1.126c1.006-.689 2-1.374 2.971-2.114.4-.3 1.142-1.13 1.646-1.174.6-.052 1.175.649 1.64 1 .98.737 1.894 1.554 2.865 2.3.33.254.86.781 1.274.825.667.071.8-.47 1.241-.893.836-.806 1.658-1.54 2.446-2.408.588-.647 2.312-1.565 2.042-2.458-.108-.356-.9-1.07-1.136-1.392-.4-.548-.828-1.074-1.241-1.612s-1.944-2.031-1.894-2.7c.031-.409.843-1.14 1.1-1.466.379-.479.748-.962 1.1-1.463.745-1.067 1.483-2.135 2.144-3.255.323-.547.619-1.14.982-1.66.464-.664.077-.569.841-.373 1.376.353 2.734.792 4.105 1.172.693.192 2.135.969 2.729.513.365-.28.562-1.157.727-1.548.315-.747.636-1.49.939-2.242.253-.627 1.521-2.753 1.259-3.443-.286-.753-2.106-1.306-2.754-1.682q-1.445-.838-2.866-1.712c-1.115-.686-2.717-.586-4.005-.586 7.58-.048 15.6-.1 23.182-.119 3.785-.008 7.57-.005 11.355.029.565.005 1.615.257 1.971-.3.277-.436.033-1.932.034-2.455zM88.812 49.402c8.791.021 17.583-.023 26.373.011 1.023 0 1.06.132 1.064 1.193v3.307c0 .594.3 2.176-.025 2.728-.429.736-3.68.3-4.509.3H89.941a4.884 4.884 0 01-1.04 0c-.22-.053-.433.065-.621-.128-.276-.283-.058-1.542-.059-1.917-.002-1.021-.563-5.496.591-5.494zM39.676 73.224c-.257.029-.314 2.27-.33 2.586-.062 1.2-.049 1.257-.95 1.993-.674.55-.945.776-.95 1.663v.7l-.01 6.584-.014 8.491c0 .807.491 4.08-.3 4.582a10.775 10.775 0 01-3.229-.05c-.2-.194-.082-.956-.082-1.254v-2.723l.017-8.3q.009-4.283.014-8.567a31.813 31.813 0 000-4.692c-.108-.7-.5-.849-1.041-1.251-.383-.283-.745-.6-1.128-.88-.644-.476-.614-.409-.611-1.349 0-.43-.189-1.259.142-1.544.3-.257 1.221-.056 1.617-.056h8.694c.918 0 2.069-.2 2.127.995.027.554-.234 1.068-.165 1.649.064.538.39.9-.116 1.268-.424.309-1.29.066-1.733.016a8.2 8.2 0 00-1.952.139zm12.009 26.245c0 .79-6.226.285-7.1.31-.53.015-.921.2-1.165-.3a7.113 7.113 0 01.019-1.871c-.03-1.335.008-2.664.02-4 .022-2.508 0-5.015-.023-7.523-.01-1.24.042-2.479.031-3.72-.009-.983.3-2.74-.173-3.6-.443-.8-1.924-.853-2.313-1.659a3.955 3.955 0 01.094-2.37c.224-.2.962-.068 1.259-.055a9.424 9.424 0 001.744-.094c1.074-.145 1.478-.143 1.53.991.233 5.1 0 10.265 0 15.371v4.61c0 .915-.274 1.583.723 1.7a33.043 33.043 0 004.04 0c.4 0 .976-.136 1.256.2s.058 1.589.058 2.011zm1.966-14.31c-.009-.817 3.817-.423 4.472-.425.568 0 1.4-.21 1.717.279a7.656 7.656 0 01.021 2.673c-.353.848-3.274.4-4.166.4-.662 0-1.649.249-2.023-.317-.292-.443-.021-2.088-.021-2.61zm5.836 7.488q-1.338-.008-2.676-.008a9.071 9.071 0 01-2.815-.012c-.585-.255-.306-1.059-.3-1.63.007-.76-.242-1.322.465-1.624a9.359 9.359 0 012.7.008c.7 0 1.416-.026 2.121 0 1.146.035.853.479.88 1.541.01.495.413 1.729-.377 1.724zm7.585-.421c.009.806-3.962.416-4.618.416-.887 0-1.057.184-1.215-.583a7.077 7.077 0 01.031-2.54c.439-.525 3.116-.134 3.867-.134.6 0 1.558-.232 1.916.26.281.388.011 2.1.017 2.58zm-.474-4.135c-.821-.017-1.642-.005-2.463-.005a9.069 9.069 0 01-2.415.006c-.673-.226-.466-.765-.463-1.435 0-.553-.267-1.636.282-1.906a8.033 8.033 0 012.619-.013c.651 0 2.054-.283 2.618.013.512.268.642 3.356-.18 3.339zm7.625 4.553h-2.752a9.622 9.622 0 01-2.7.006c-.709-.262-.486-.877-.485-1.592 0-.623-.218-1.379.419-1.658a8.5 8.5 0 012.632-.019 13.221 13.221 0 012.776-.016c.822.194.556.735.556 1.6-.008.457.282 1.68-.449 1.678zm.448-5c.016.848-3.873.439-4.556.441-.608 0-1.505.229-1.823-.331a7.039 7.039 0 01-.021-2.556c.328-.939 3.368-.461 4.3-.461.658 0 1.7-.258 2.077.3.286.431.011 2.087.02 2.605zm7.077 5h-3.2c-.518 0-1.9.269-2.343-.015-.476-.3-.458-2.836-.125-3.18.354-.366 1.943-.074 2.443-.073.87 0 1.749.006 2.63.01 1.173.005 1.091.3 1.1 1.456.005.582.298 1.796-.508 1.798zm.492-4.872c-.305.735-3.415.314-4.193.314-.635 0-1.642.244-2-.276-.274-.4.014-2.147.007-2.639-.012-.833 3.761-.432 4.425-.434.58 0 1.433-.212 1.744.3a9.856 9.856 0 01.015 2.731zm7.608 4.394c-.011.906-4.065.474-4.818.478-.679 0-1.313.235-1.549-.445a6.408 6.408 0 01.005-2.4c.415-.871 2.961-.427 3.867-.438.418 0 2.156-.247 2.447.065.339.362.051 2.261.045 2.736zm-.045-4.241c-.378.58-3.7.161-4.518.161-.578 0-1.492.248-1.8-.277-.27-.46-.014-2.168-.017-2.681 0-.742 3.846-.4 4.519-.4.617 0 1.569-.255 1.863.328a7.1 7.1 0 01-.05 2.865zm6.723 4.725c-.99-.012-1.981 0-2.971 0-.534 0-2.248.293-2.67-.033-.448-.346-.2-1.589-.2-2.1.01-.869-.017-1.059.854-1.134.838-.073 1.722.016 2.563.016.612 0 2.036-.284 2.572.015.55.299.598 3.24-.151 3.231zm.1-4.563c-.575.313-2.133 0-2.8 0a13.8 13.8 0 01-2.516 0c-.935-.184-.573-.81-.6-1.678-.012-.38-.319-1.683.367-1.676.916.01 1.832 0 2.748 0a9.1 9.1 0 012.606-.005c.808.327.92 2.962.195 3.355zm37.4-22.722c.9.014 1.81 0 2.715.006.459 0 1.749-.259 2.055.168s.037 1.908.046 2.476c.011.651.21 1.4-.468 1.651a9.259 9.259 0 01-2.567 0c-.594 0-1.809.213-2.182-.229-.286-.34-.026-1.954-.027-2.405.002-.432-.279-1.683.429-1.671zm-15.747 0c.868.008 1.735 0 2.6 0 .495 0 1.986-.262 2.385.036.469.35.419 3.906-.039 4.173-.558.325-1.974.1-2.61.1-.492 0-2.38.257-2.724-.122-.295-.324-.055-1.834-.055-2.263.003-.491-.321-1.934.444-1.927zm-.449 12.237c.213-.655.521-.479 1.258-.464.936.019 1.872.017 2.809.006.83-.01 1.294-.208 1.577.552a11.888 11.888 0 010 2.985c.026 1.053-3.466.525-4.246.518-.7-.007-1.126.264-1.395-.376a7.128 7.128 0 010-1.658 7.325 7.325 0 01-.002-1.566zm.475-5.973q1.3.011 2.6.009c.534 0 1.919-.28 2.359.025s.186 1.472.189 1.979c0 .892.244 1.415-.717 1.534a19.281 19.281 0 01-2.321 0 6.65 6.65 0 01-2.236-.015c-.537-.303-.737-3.543.127-3.536zm5.166 15.046c.011.862-3.922.481-4.646.465-.926-.021-.969-.084-.988-1.007-.012-.584-.3-2.352.016-2.817.488-.728 3.314-.282 4.222-.284.665 0 1.14-.2 1.4.422.306.744-.015 2.403-.004 3.221zm7.406.014c.01.846-3.48.466-4.122.45-.92-.022-.92-.036-.941-.956a9.346 9.346 0 01-.006-2.73c.366-.869 2.917-.419 3.827-.423s1.128-.15 1.241.7a25.618 25.618 0 01.001 2.955zm-.005-6.335c-.021.863-.091.874-.947.9-.877.024-1.758 0-2.635 0-.894 0-1.348.23-1.479-.692a23.948 23.948 0 010-3.041c-.006-.723 3.28-.373 3.929-.377.852-.006.994-.174 1.135.571a13.676 13.676 0 01-.003 2.636zm.005-5.622c.014.839-3.169.438-3.824.442-.686 0-.982.119-1.246-.474a8.22 8.22 0 010-2.656c.349-.828 2.71-.4 3.57-.406.7 0 1.242-.22 1.5.438a9.528 9.528 0 010 2.653zm-.234-5.132c-.609.352-4.406.289-4.808-.2-.276-.333-.021-1.934-.021-2.376 0-.416-.273-1.674.428-1.664.882.012 1.764 0 2.646.005.464 0 1.655-.248 1.953.184.31.453.17 3.835-.198 4.048zm7.508 17.535c-.866 0-4.1.474-4.547-.278-.26-.439 0-1.8 0-2.315-.006-.9-.251-1.428.736-1.519.87-.08 1.795 0 2.67.005.823 0 1.551-.271 1.839.525a10 10 0 01-.035 2.376c.024.705.219 1.206-.663 1.206zm-4.562-9.6c.375-.841 2.987-.388 3.891-.4.928-.009 1.226-.117 1.339.781a25.07 25.07 0 01.026 2.929c0 .77-3.674.412-4.273.4-.931-.024-.965-.042-.978-.984a9.264 9.264 0 01-.001-2.726zm5.248-2.836c.12.84-3.4.469-4.015.472-.642 0-.966.131-1.234-.409a8.638 8.638 0 010-2.747c.373-.809 2.845-.381 3.707-.382.681 0 1.292-.226 1.549.43.277.688-.111 1.872-.002 2.636z"/><path d="M63.602 24.425a5.212 5.212 0 00.98 1.2c.162.146 1.217.918.925.306.368.221-.111-.454-.152-.524a12.712 12.712 0 00-1.104-1.417 3.377 3.377 0 01-.59-3.745c1.3-4.048 5.764-6.455 6.278-10.809a7.7 7.7 0 00-1.615-5.534 10.731 10.731 0 00-2.008-2.21c-.362-.3-2-1.875-2.5-1.674s.724 1.646.908 2.012a25.439 25.439 0 011.327 2.939c.6 1.691 1.091 3.814-.174 5.326-1.44 1.722-3.1 3.024-3.938 5.213s-.331 3.8.143 5.959a12.037 12.037 0 001.52 2.958z"/><path d="M66.294 19.89c-.276.417-1.36 4.322-.386 4.178 0 0 .459-1.132.561-1.285a5.555 5.555 0 011.778-1.65c2.524-1.57 6.394-2.565 5.972-6.33-.135-1.2-.523-3.343-1.53-4.183-.48-.4-.477-.321-.473.322 0 .83.2 1.668.143 2.538-.1 1.6-.436 2.973-2.015 3.574a7.713 7.713 0 00-4.05 2.836z"/></g></svg>