<svg viewBox="0 0 149.227 123.095" xmlns="http://www.w3.org/2000/svg"><g fill="#766cd0"><path d="M23.351 36.882h-1.8c0-1.535-.01-2.994.017-4.451 0-.129.228-.294.385-.368a1.216 1.216 0 01.474-.013h34.978c.8 0 .809 0 .829-.769q.028-1.077.013-2.155c-.007-.483-.159-.923.584-1.116a6.955 6.955 0 001.527-.974c.676-.4 1.387-.744 2.063-1.145.612-.363 1.184-.793 1.8-1.156 1-.592 2.022-1.14 3.022-1.73.859-.507 1.693-1.058 2.55-1.569.735-.438 1.492-.841 2.231-1.273.442-.258.862-.555 1.3-.814 1.2-.7 2.408-1.378 3.6-2.088s2.365-1.459 3.555-2.176q2.07-1.247 4.157-2.466c1.47-.86 2.958-1.69 4.419-2.564 1.313-.786 2.585-1.638 3.9-2.416s2.69-1.493 4.02-2.266c.892-.519 1.752-1.093 2.63-1.637a2.925 2.925 0 01.419-.168v26.627l17.381-14.1c1.082.931 2.159 1.826 3.2 2.761.888.8 1.716 1.665 2.606 2.462.719.643 1.494 1.224 2.237 1.84.252.209.479.447.727.661q1.437 1.238 2.881 2.469c1.008.865 2.022 1.724 3.023 2.6 1.028.9 2.04 1.809 3.065 2.707.916.8 1.857 1.576 2.747 2.405a1.466 1.466 0 01.4.876c.068.753.05 1.514.053 2.271 0 .1-.071.271-.126.278a.509.509 0 01-.374-.092c-.669-.622-1.3-1.285-1.988-1.887-1.286-1.127-2.61-2.211-3.9-3.332-.65-.565-1.246-1.192-1.9-1.757-.992-.865-2.01-1.7-3.016-2.549-.781-.66-1.566-1.315-2.337-1.986-.27-.236-.484-.537-.756-.77-1.175-1.011-2.371-2-3.541-3.015-.621-.54-1.2-1.126-1.806-1.685a4.3 4.3 0 00-.876-.734.883.883 0 00-.775.041c-1.165.879-2.3 1.795-3.433 2.721-.728.6-1.407 1.254-2.138 1.846-.8.646-1.638 1.234-2.439 1.873-1 .8-1.971 1.622-2.959 2.43q-1.962 1.6-3.932 3.2c-.616.5-1.265.951-1.864 1.465-.139.119-.136.405-.2.631.14.015.194.038.217.02q1.477-1.161 2.947-2.329c1.383-1.1 2.758-2.207 4.146-3.3 1.223-.961 2.463-1.9 3.689-2.858.928-.724 1.839-1.469 2.772-2.186 1.054-.81 2.125-1.6 3.185-2.4.1-.079.16-.265.266-.293.237-.062.587-.171.725-.058.977.8 1.92 1.638 2.859 2.482 1.046.94 2.056 1.92 3.117 2.842 1.01.878 2.074 1.693 3.1 2.556.607.512 1.168 1.078 1.77 1.6 1.28 1.1 2.578 2.179 3.857 3.28.595.512 1.156 1.061 1.744 1.58.878.775 1.749 1.558 2.657 2.3a1.089 1.089 0 01.441.968c-.02.839 0 1.68-.01 2.52 0 .332.049.475.462.474 3.318-.008 6.637.024 9.955.038.866 0 .867 0 .867.878v25.044h-25.911c-.82 0-.848-.026-.848-.838V47.008c0-.908 0-.9-.9-.905q-4.679 0-9.359-.009c-.906 0-.906-.011-.906.9V66.97H24.254c-.822 0-.9-.064-.9-.744v-21.9c-.003-2.467-.003-4.939-.003-7.444zM73.814 48.61h-3.6c-.28 0-.534 0-.533.385 0 1.5.008 2.992 0 4.488 0 .436.228.523.605.522 2.339-.007 4.678 0 7.017 0 .355 0 .542-.115.537-.521-.018-1.44-.023-2.88 0-4.319.008-.473-.19-.57-.61-.562-1.139.021-2.279.007-3.416.007zm0-7.56h-3.6c-.26 0-.534-.039-.532.371.006 1.457-.014 2.914.014 4.37a.585.585 0 00.4.408c2.4.023 4.8 0 7.193.018.428 0 .553-.152.548-.561q-.026-2.068 0-4.136c0-.373-.13-.482-.489-.477-1.178.018-2.357.004-3.534.004zm13.855 7.473a7.359 7.359 0 01-.858.082c-.912-.027-1.823-.109-2.734-.106-1.152 0-2.3.059-3.455.129a.552.552 0 00-.371.389q-.039 2.217.005 4.434a.618.618 0 00.4.421 6.215 6.215 0 001.354.129c.993-.015 1.984-.086 2.977-.107a13.892 13.892 0 012.032.042c.7.088.767.09.77-.611 0-1.392.006-2.784 0-4.176a3.512 3.512 0 00-.122-.626zm.045-7.426h-7.48c0 1.565.013 3.084-.008 4.6-.006.458.214.519.592.517 2.079-.011 4.158-.005 6.238-.005h.658zm-51.76 4.993c0 1.588.007 3.087 0 4.585 0 .392.195.46.526.458 2.08-.008 4.159-.012 6.239 0 .457 0 .579-.185.568-.614-.025-.979-.008-1.959-.008-2.939 0-1.493 0-1.493-1.507-1.493zm0 7.2c0 1.59-.012 3.106.019 4.622a.592.592 0 00.419.4c2.139.026 4.279.017 6.418.019.317 0 .47-.121.467-.463-.011-1.38.008-2.76-.022-4.139a.585.585 0 00-.386-.419c-2.279-.027-4.555-.019-6.917-.019zm9.479-7.2c0 1.524.024 2.944-.012 4.362-.014.542.2.688.691.684 1.839-.015 3.678 0 5.517-.011a2.435 2.435 0 00.53-.1c0-1.508-.051-2.944.028-4.373.027-.485-.038-.574-.483-.569-1.739.018-3.478.01-5.217.011zm0 7.2c0 1.507.026 2.926-.013 4.343-.016.58.23.706.734.7 1.8-.015 3.6 0 5.4-.012a3.5 3.5 0 00.667-.123c0-1.577.007-3.067-.014-4.556 0-.119-.195-.338-.3-.339-2.138-.017-4.273-.012-6.476-.012zM69.47 95.058a1.025 1.025 0 011.484.058c.344.489.5.207.759-.015a4.382 4.382 0 01.579-.358 3.38 3.38 0 01-.9-4.393 3.432 3.432 0 013.958-1.62 2.8 2.8 0 011.946 1.6c.09.234.312.412.775.253.318-.109.927.382 1.284.73.2.194.142.645.214.977.025.115.072.3.142.319.786.184 1.065.871 1.489 1.426a1.146 1.146 0 00.617.4 2.827 2.827 0 011.959 1.4 2.413 2.413 0 01-.835 3.147 4.05 4.05 0 01-1.041.33c-.124.044-.308.16-.314.252a10.46 10.46 0 000 1.5c.007.088.27.226.412.222 1.273-.031 2.542 2.01 1.9 3.25a3.032 3.032 0 01-1.975 1.632 1.977 1.977 0 01-.62-.039 5.331 5.331 0 00-.306.732 3.268 3.268 0 01-2.356 2.267 2.45 2.45 0 01-2.235-.178.554.554 0 00-.523.029 2.766 2.766 0 00-1.142 2.317c.066 3.276.007 6.555 0 9.833a4.878 4.878 0 00.039 1.134c.136.565-.1.682-.581.635-.157-.015-.318 0-.561 0v-.658c0-3.66-.051-7.321.034-10.979a3.5 3.5 0 00-.89-2.338 9.842 9.842 0 00-.754-.875.8.8 0 00-.442-.256 6.475 6.475 0 00-1.231-.007 2.935 2.935 0 01-2.055-.613.883.883 0 00-.207-.1c-.033-.012-.078.006-.179.017v15.054c-.229.016-.4.038-.571.038-2.48 0-4.96-.017-7.44.016-.571.008-.67-.24-.668-.708q.022-6.058.028-12.115c0-2.32-.029-4.639-.02-6.959a3.109 3.109 0 00-.917-1.926 6.346 6.346 0 00-.838-.676c-.834-.748-1.937-.691-2.92-.993a.437.437 0 00-.219 0 7.752 7.752 0 00-.128 1.264c0 .129.249.313.416.364a6.634 6.634 0 011.3.31 3.778 3.778 0 011.969 2.252c.449 1.483.126 2.962.22 4.438.006.1-.32.313-.5.317-1.117.029-2.235.015-3.438.015v.724c0 4.34-.006 8.68.007 13.02 0 .5-.1.785-.727.6v-.631c0-4.339-.009-8.677.012-13.016 0-.542-.125-.735-.7-.71-1.078.046-2.159 0-3.239.019-.324 0-.5-.094-.489-.43.029-1.372-.042-2.757.12-4.113a2.825 2.825 0 011.717-2.294 7.9 7.9 0 012.057-.6c.43-.058.48-.25.513-.551a1.244 1.244 0 00-.013-.593c-.074-.17-.3-.421-.42-.4a8.353 8.353 0 00-3.275.933 4.27 4.27 0 00-2.046 3.952q-.008 8.85 0 17.7v.751H1.424V96.247c1.692 0 3.363-.023 5.033.008a3.707 3.707 0 002.691-1.029c1.347-1.2 2.837-2.234 4.245-3.364 1.383-1.109 2.73-2.264 4.112-3.375 1-.8 2.045-1.557 3.049-2.359.5-.4.933-.873 1.428-1.274.809-.655 1.647-1.273 2.466-1.915 1.162-.911 2.33-1.814 3.472-2.749 1.327-1.086 2.617-2.217 3.946-3.3 1.071-.873 2.186-1.691 3.266-2.554 1.3-1.042 2.578-2.12 3.9-3.143a.8.8 0 01.757.03c.808.624 1.565 1.314 2.35 1.968 1.131.944 2.263 1.888 3.41 2.812 1.262 1.015 2.545 2 3.814 3.011.323.256.623.542.941.805q1.707 1.413 3.42 2.819c1.392 1.149 2.772 2.314 4.176 3.448 1.275 1.03 2.583 2.018 3.864 3.041s2.609 1.993 3.79 3.118a14.341 14.341 0 002.77 1.832 8.7 8.7 0 011.146.981zM29.759 113.53c1.973 0 3.927-.016 5.88.011.52.007.687-.139.684-.673-.021-3.675-.011-7.351-.013-11.026 0-.174-.02-.347-.034-.585h-6.517zm-2.464-6.183h-.1v-3.418a14.7 14.7 0 01.048-2.153c.065-.43-.077-.516-.392-.517a307.542 307.542 0 00-5.261.01c-.894.012-.89.04-.889.926v8.816a13.748 13.748 0 01-.064 1.972c-.063.43.039.546.429.546q2.879-.005 5.757 0c.356 0 .481-.114.477-.492-.016-1.89-.005-3.79-.005-5.69zm11.894-31.991c.457.36.91.712 1.358 1.071s.857.716 1.3 1.052c.724.547 1.484 1.049 2.191 1.617 1.056.847 2.064 1.756 3.122 2.6 1.483 1.182 2.989 2.334 4.494 3.489.784.6 1.594 1.17 2.375 1.776.421.326.793.713 1.209 1.046 1.146.917 2.306 1.818 3.457 2.729.752.6 1.489 1.211 2.249 1.8.811.625 1.641 1.225 2.46 1.838.13.1.249.208.373.312l.223-.408c-.4-.344-.721-.635-1.059-.9-.995-.787-2.016-1.541-2.992-2.351-1.017-.845-1.977-1.758-2.992-2.605-.779-.65-1.609-1.24-2.408-1.866-.853-.668-1.712-1.33-2.541-2.028-1.014-.854-1.982-1.763-3-2.613-.9-.749-1.835-1.447-2.753-2.171-.946-.747-1.894-1.492-2.834-2.247-.7-.565-1.4-1.14-2.088-1.718-.592-.494-1.17-1.007-1.773-1.487a.441.441 0 00-.419.013c-.6.478-1.157 1-1.751 1.478-1.24 1-2.493 2-3.742 2.989q-1.34 1.067-2.683 2.13c-.338.269-.667.549-1.008.814-.787.613-1.586 1.211-2.367 1.831-.641.508-1.26 1.045-1.9 1.559q-1.689 1.366-3.388 2.719c-1.114.892-2.231 1.78-3.341 2.676-1.019.823-2.024 1.664-3.048 2.482-.8.641-1.63 1.248-2.43 1.891-.451.362-.867.767-1.3 1.153l.156.233a9.984 9.984 0 00.969-.5c.326-.212.613-.484.923-.721 1.093-.837 2.2-1.656 3.281-2.51 1.12-.885 2.2-1.816 3.325-2.7 1.343-1.059 2.713-2.082 4.061-3.134.827-.645 1.628-1.324 2.452-1.972 1-.787 2.023-1.548 3.02-2.34 1.064-.836 2.087-1.712 3.144-2.536s2.156-1.608 3.213-2.439c.833-.661 1.631-1.361 2.462-2.052zm33.43 32.419c.315.266.534.465.767.645.969.751.971.749 1.833-.028a.315.315 0 00.053-.1l-.921-1.461zm3.9-11.914l-.1-1.037c-.267.145-.464.232-.638.353a2.7 2.7 0 00-.342.332c.123.118.229.294.374.338a2.734 2.734 0 00.701.013zm33.895-19.514l16.465 14.341.2-.185a3.636 3.636 0 00-.452-.578c-1.254-1.076-2.539-2.116-3.78-3.207-1.815-1.6-3.593-3.235-5.4-4.84-1.4-1.242-2.815-2.463-4.227-3.688-1.025-.889-2.057-1.77-3.128-2.69L86.707 94.447c-.441-.5-.884-1.019-1.345-1.52-.261-.284-.28-.436.094-.681a21.281 21.281 0 001.794-1.4c1.012-.83 2.013-1.674 3.021-2.509 1.416-1.173 2.824-2.355 4.254-3.51 1-.808 2.045-1.563 3.048-2.369.976-.784 1.91-1.62 2.886-2.4 1.4-1.128 2.836-2.219 4.241-3.344s2.769-2.254 4.152-3.383a4.6 4.6 0 00.718-.612c.391-.487.756-.409 1.153-.037.628.589 1.239 1.2 1.89 1.762 1.251 1.084 2.532 2.132 3.784 3.214.636.549 1.225 1.153 1.856 1.708.984.866 1.99 1.706 2.976 2.569.708.62 1.394 1.266 2.1 1.889.862.761 1.732 1.512 2.6 2.263.907.783 1.807 1.575 2.738 2.328a.9.9 0 00.712.144 3.24 3.24 0 013.323 1.05 4.96 4.96 0 00.471.454c.808-.429 1.016-.39 1.671.17a.646.646 0 00.574-.008c.177-.094.287-.317.445-.507-.141-.169-.269-.34-.415-.5a3.5 3.5 0 01-.551-3.265 2.873 2.873 0 011.794-2 3.508 3.508 0 011.6-.31 3.229 3.229 0 012.754 1.568c.2.315.326.608.863.4s1.517.707 1.556 1.319c.011.179 0 .358 0 .537.4.317.814.625 1.2.967a.76.76 0 01.23.464c.033.405.225.5.614.523a2.734 2.734 0 012.325 2.33 2.83 2.83 0 01-2.369 2.754 11.537 11.537 0 00-.06 1.338.556.556 0 00.371.386 2.686 2.686 0 011.969 1.539 2.714 2.714 0 01-.819 2.808 2.348 2.348 0 01-1.611.606.521.521 0 00-.393.31 3.261 3.261 0 01-3.367 2.661c-.516-.022-1.027-.274-1.536-.26-.294.008-.581.334-.864.527-.035.024-.006.142-.04.165-.93.624-.632 1.593-.644 2.441-.036 2.576-.013 5.154-.013 7.909 1.764.065 3.545.02 5.323.028s3.557 0 5.44 0c0 .842.006 1.652-.008 2.461 0 .1-.121.27-.184.269-.664-.014-.519.462-.521.838-.005 1.24-.024 2.48.009 3.719.013.5-.147.644-.644.642-5.539-.016-11.079-.028-16.618 0-5.151.021-10.3.086-15.453.135-.157 0-.347.105-.462.046a1.685 1.685 0 01-.541-.468c-.068-.088-.012-.271-.012-.411 0-6.479-.009-12.959.014-19.438 0-.62-.184-.768-.781-.762q-4.829.042-9.659 0c-.57 0-.749.145-.747.734.02 6.419.013 12.838.013 19.258 0 1.062 0 1.049-1.03 1.046q-4.589-.013-9.178-.008c-1.5 0-3 .011-4.5.02-.329 0-.584-.038-.582-.474.012-1.976.008-3.952.007-5.928q0-9.778-.007-19.557c0-1.016-.046-2.033-.023-3.048a.79.79 0 01.4-.771 14.387 14.387 0 001.485-1.236c.647-.515 1.325-.991 1.977-1.5.566-.441 1.108-.913 1.673-1.355.7-.548 1.415-1.08 2.123-1.618 1.12-.852 2.245-1.7 3.358-2.558 1.191-.921 2.373-1.855 3.555-2.788 1.3-1.028 2.59-2.07 3.9-3.091.849-.663 1.721-1.3 2.579-1.949.351-.262.692-.541 1.051-.824zm27.057 38.511v-.97c0-2.618-.01-5.235 0-7.853a1.746 1.746 0 00-.489-1.5c-.482-.431-.852-.987-1.3-1.46a.717.717 0 00-.514-.2 4.933 4.933 0 01-4.1-1.377c-.271-.267-.557-.52-.875-.816a2.707 2.707 0 00-.046.345c0 4.456 0 8.911-.01 13.367 0 .447.145.592.587.588 2.038-.017 4.076 0 6.114-.013a3.467 3.467 0 00.637-.115zm-.958-12.1c.439.444.815.869 1.245 1.229a.655.655 0 00.584-.051 5.648 5.648 0 00.741-.649l-.944-1.419zm3.532-12.831a7.252 7.252 0 00-.658.34c-.1.064-.221.2-.216.294s.165.2.273.224c.28.054.569.062.93.1zM8.26 33.676l.883-.68a3.423 3.423 0 01-1.009-3.832 3.7 3.7 0 014.038-2.135 3.35 3.35 0 012.23 1.729.692.692 0 00.579.265 1.376 1.376 0 011.625 1.546c-.017.122.071.356.155.38a2.183 2.183 0 011.315 1.205c.185.341.34.658.867.637.718-.029 1.572.9 1.924 1.511a2.248 2.248 0 01-.074 2.147 2.706 2.706 0 01-1 .984 4.814 4.814 0 01-.883.279.478.478 0 00-.224.354c-.026.5-.01.993-.01 1.483a2.6 2.6 0 012.422 2.29 2.561 2.561 0 01-2.225 2.68.754.754 0 00-.846.691 3.1 3.1 0 01-3.065 2.311c-.633-.015-1.264-.141-2.016-.231-.267.284-.659.685-1.027 1.108a.637.637 0 00-.081.385c0 3 .006 6-.012 9 0 .482.2.557.615.555 3.256-.011 6.513-.006 9.839-.006v2.745c-.652-.1-.746.241-.735.768.03 1.438.01 2.876.01 4.406h-.586q-8.85 0-17.7.009c-.536 0-.772-.108-.748-.717.051-1.276-.01-2.556.036-3.833.014-.384-.084-.521-.422-.641a.651.651 0 01-.362-.463c-.039-.733-.017-1.469-.017-2.276h.7c2.56 0 5.12-.01 7.68.009.462 0 .631-.117.628-.607q-.03-4.44 0-8.88c0-.7-.682-.915-.914-1.442a3.314 3.314 0 00-.312-.425 1.522 1.522 0 00-1.515-.78 4.974 4.974 0 01-4.3-1.946 5.73 5.73 0 01-1.237-4.312 9.664 9.664 0 01.3-.95c.027-.134-.082-.422-.154-.431a3.059 3.059 0 01-1.687-1.008 3.33 3.33 0 01-.609-3.762 3.752 3.752 0 012.426-1.91 2.5 2.5 0 012.33.429c.3.253.624.471.936.706a.778.778 0 00.927.164c.63-.283 1.054.235 1.305.491zm1.454 12.488l1.606 1.322c.266-.192.571-.391.846-.624a.367.367 0 00.078-.342 13.77 13.77 0 00-.761-1.176.329.329 0 00-.31-.031c-.469.258-.928.539-1.459.851zm3.8-12.883l-.154-.13-.816.766c.282.127.622.422.833.348.594-.21-.075-.657.137-.984z"/><path d="M54.235 27.473c1.036-.621 2.1-1.256 3.16-1.9 1.329-.8 2.651-1.62 3.984-2.418 1.636-.98 3.282-1.942 4.919-2.919 1.211-.723 2.412-1.46 3.621-2.185s2.394-1.434 3.6-2.142c1.062-.626 2.138-1.228 3.2-1.862.946-.567 1.868-1.173 2.812-1.744 1.589-.962 3.178-1.925 4.784-2.86 1.53-.891 3.092-1.728 4.618-2.626 1.3-.766 2.566-1.6 3.863-2.375.923-.552 1.883-1.042 2.809-1.588 1.014-.6 2.009-1.227 3.011-1.845.533-.329 1.049-.688 1.6-.976a.641.641 0 01.6.1 9.861 9.861 0 01.992 1.455.6.6 0 01-.184.55c-.767.485-1.566.918-2.35 1.376q-1.607.938-3.207 1.887c-.9.534-1.8 1.08-2.706 1.607-1.381.8-2.778 1.576-4.15 2.395-1.056.63-2.074 1.325-3.125 1.965-.907.552-1.844 1.056-2.756 1.6-.7.418-1.379.874-2.075 1.3-.452.277-.922.524-1.379.794-.728.43-1.452.867-2.176 1.3l-4.433 2.663c-.978.584-1.966 1.152-2.943 1.738-1.424.853-2.833 1.731-4.266 2.57-1.307.766-2.652 1.468-3.953 2.245s-2.566 1.624-3.859 2.42q-1.211.746-2.466 1.421a.527.527 0 01-.482-.163c-.374-.56-.699-1.157-1.063-1.783zm54.679 76.697c0 .864.022 1.661-.019 2.455a.593.593 0 01-.412.406c-1.1.035-2.2.027-3.3.014-.381 0-.627-.151-.6-.617.037-.6.018-1.2.005-1.8-.007-.332.126-.465.46-.463 1.258.011 2.516.005 3.866.005zm5.14-52.323c.558 0 1.116.011 1.673 0 .343-.01.522.094.509.472-.019.537-.006 1.075 0 1.613 0 .469-.251.678-.7.677-1 0-1.991 0-2.986-.016-.4-.007-.669-.166-.642-.649.03-.536.023-1.076 0-1.613-.015-.358.1-.5.475-.487.555.024 1.113.003 1.671.003zm-.075-1.077c-.5 0-1-.009-1.5 0-.393.009-.594-.128-.575-.557.024-.538.016-1.079 0-1.618-.011-.42.228-.569.591-.573.975-.012 1.95-.012 2.925-.013.67 0 .8.134.807.792 0 .44-.01.879 0 1.319s-.176.663-.637.652c-.532-.013-1.076-.002-1.611-.002zm-5.065 59.877c-1.358 0-2.633.012-3.907-.017a.551.551 0 01-.393-.366c-.043-.615-.013-1.236-.021-1.854-.007-.5.411-.458.678-.461 1.034-.012 2.068.053 3.1.05.418 0 .566.129.549.55-.029.676-.006 1.352-.006 2.098zm4.784-6.437c.038.743.105 1.468.1 2.193a.587.587 0 01-.706.66 21.514 21.514 0 00-2.515 0c-.552.033-.673-.3-.672-.684 0-.71.085-1.419.137-2.17zm3.494-52.342h3.722c0 .816.019 1.608-.02 2.4-.006.12-.276.32-.429.325-.895.032-1.791 0-2.686.026-.414.013-.58-.159-.581-.542-.008-.717-.006-1.43-.006-2.209zm3.722-1.099c-1.146 0-2.222.016-3.3-.019a.6.6 0 01-.4-.414c-.048-.6-.023-1.2-.018-1.8 0-.382.163-.547.586-.531.895.035 1.793.028 2.688 0 .376-.013.446.162.445.463l-.001 2.301zm-9.094 59.841h-1.789c-.017-.568-.03-1.135-.052-1.7-.005-.138-.054-.274-.056-.411 0-.282.06-.49.424-.5.973-.015 1.946-.094 2.916-.059.185.007.474.4.51.648a7.4 7.4 0 01.006 1.662.575.575 0 01-.4.38c-.515.048-1.037.018-1.557.018zm2.131 2.716a.869.869 0 01-.909.925c-.342 0-.989-.564-.86-.832a2.455 2.455 0 01.854-.939c.232-.152.912.522.915.846zm5.52-56.139a.965.965 0 01.779-.893 1.464 1.464 0 01.986.875c.017.308-.645.912-.986.9a.9.9 0 01-.779-.882zm-66.357 54.171a5.353 5.353 0 01-.02 1.067c-.039.189-.282.335-.433.5-.109-.189-.3-.375-.311-.569a19.293 19.293 0 01.017-2.057.613.613 0 01.306-.468c.328-.09.445.147.44.455-.007.357 0 .714 0 1.071zm1.914.001a9.694 9.694 0 01-.014 1.128c-.019.157-.191.3-.294.444-.1-.165-.264-.327-.272-.5a22.204 22.204 0 010-2.048 1.769 1.769 0 01.255-.573 1.767 1.767 0 01.3.538 6.832 6.832 0 01.014 1.009z"/></g></svg>