<svg viewBox="0 0 132.582 139.498" xmlns="http://www.w3.org/2000/svg"><g fill="#b54532"><path d="M66.317 112.772h64.909c.22 0 .441.017.66 0 .533-.048.692.206.688.711-.017 2.14-.029 4.28.007 6.419.01.619-.194.771-.787.769-6.3-.019-12.6-.012-18.894-.012H75.047c-.918 0-.919 0-.919.927 0 2.64-.029 5.28.018 7.918a5.534 5.534 0 00.314 2.227 1.313 1.313 0 001.244.848 14.231 14.231 0 013.336.182 1.9 1.9 0 011.675 1.988c.04 1.419 0 2.839.015 4.259 0 .361-.146.515-.5.492-.139-.009-.28 0-.42 0H52.754c-.909 0-.91 0-.91-.92 0-1.22-.025-2.44.01-3.659a2.068 2.068 0 01.731-1.81 3.993 3.993 0 011.988-.522c.654-.062 1.319-.013 1.978-.014a1.555 1.555 0 001.771-1.643c.253-3.232.058-6.47.124-9.7.008-.408-.147-.6-.562-.569-.2.014-.4 0-.6 0H1.191c-.22 0-.441-.013-.66 0-.381.025-.535-.132-.534-.521q.015-3.389 0-6.779c0-.4.151-.6.566-.584.239.01.48 0 .72 0zM48.072 14.254c.605-.105 1.289.063 1.989.021 2.5-.152 2.766-1.975 2.1-3.613-.372-.921-1.1-1.657-1.463-2.594a5.187 5.187 0 01-.219-.678.7.7 0 01.748-.932 5.771 5.771 0 012.626 1.07 5.4 5.4 0 001.826.71c1.6.206 2.445-.8 2.515-2.369.049-1.116-.193-2.226-.115-3.346a1.911 1.911 0 01.111-.7c.264-.576.595-.693 1.137-.372a4.4 4.4 0 011.376 1.471 10.44 10.44 0 001.59 1.862 1.889 1.889 0 002.72 0c1.019-.867 1.249-2.1 1.69-3.237a4 4 0 01.688-1.186c.467-.541.979-.46 1.346.15a7.762 7.762 0 01.685 2.638 5.264 5.264 0 00.857 2.133 1.984 1.984 0 002.714.412 7.485 7.485 0 001.9-1.621 4.454 4.454 0 011.413-1.082c.762-.366 1.339-.008 1.287.842a10.985 10.985 0 01-.577 2.554 5.585 5.585 0 00-.082 2.376 1.971 1.971 0 001.814 1.41 5.822 5.822 0 002.709-.594 4.543 4.543 0 012.1-.373c.621.038.841.367.643.942a5.894 5.894 0 01-1.424 2.042 6.454 6.454 0 00-1.18 1.717c-.645 1.412-.075 2.3 1.16 2.942a5.236 5.236 0 002.258.5 7.463 7.463 0 011.7.289 1.02 1.02 0 01.826.781c.072.424-.234.7-.55.927a7.1 7.1 0 01-1.816.9 6.234 6.234 0 00-1.476.777c-1.517 1.039-1.644 2.235-.463 3.6a8.671 8.671 0 002.094 1.475 5.164 5.164 0 011.19.991.914.914 0 01.176.957c-.127.316-.445.377-.775.457a12.52 12.52 0 01-2.975-.021 3.927 3.927 0 00-1.932.51 2.1 2.1 0 00-.891 2.527 14.309 14.309 0 001.209 2.259 12.609 12.609 0 01.633 1.285c.166.389.307.814-.083 1.157-.361.318-.774.194-1.184.077-1.068-.307-1.915-1.061-2.95-1.435-1.419-.512-2.707-.285-3.19 1.08a4.326 4.326 0 00-.156 2.189 14.5 14.5 0 01.072 2.509.864.864 0 01-.474.84c-.356.163-.645-.037-.923-.243a11.176 11.176 0 01-2.013-2.424c-.977-1.277-2.639-1.908-3.844-.488a5.281 5.281 0 00-.9 1.673 8.212 8.212 0 01-.905 2.189c-.246.337-.455.758-.961.679s-.665-.54-.817-.946a12.372 12.372 0 01-.5-2.324 5.014 5.014 0 00-.417-1.364 2.155 2.155 0 00-3.371-.952 20.643 20.643 0 00-2.168 1.947 6.6 6.6 0 01-.862.639c-.721.406-1.375.038-1.343-.786a8.87 8.87 0 01.558-2.55 5.279 5.279 0 00.088-2.487 1.563 1.563 0 00-1.106-1.172 3.614 3.614 0 00-2.512.11 23.231 23.231 0 01-2.63.768.946.946 0 01-1.02-.482c-.287-.471.107-.866.33-1.244a27.039 27.039 0 011.933-2.42c1.179-1.564.609-3.191-1.272-3.77a25.861 25.861 0 00-2.824-.45 3.092 3.092 0 01-1.211-.466.594.594 0 01-.156-.992 4.7 4.7 0 012.007-1.25 7.541 7.541 0 002.248-1.312 2.179 2.179 0 00-.056-3.089 24.918 24.918 0 00-2.619-1.881 2.8 2.8 0 01-.9-1.018.594.594 0 01.33-.878 3.91 3.91 0 011.909-.243zm6.019 7.259c-.177 6.821 5.676 11.965 11.629 12.175a12.275 12.275 0 10-11.629-12.175zm63.555 87.143h-13.555c-.882 0-1.011-.125-1.123-.995-.169-1.318-.437-2.618-.68-3.924-.385-2.064-.614-4.159-1.031-6.216-.311-1.534-.461-3.1-.872-4.612-.163-.6-.05-.763.56-.777h.06c8.273.06 16.543-.207 24.816-.132a.911.911 0 011.037.78c.548 1.8 1.2 3.571 1.792 5.361 1 3.032 1.983 6.07 2.973 9.105a5.973 5.973 0 00.265.789c.253.515.026.627-.447.624-1.619-.009-3.239 0-4.858 0zm-102.66 0H1.371c-.9 0-.917-.006-.623-.91.473-1.456.962-2.906 1.447-4.357.864-2.582 1.735-5.162 2.593-7.746.344-1.034.666-2.076.992-3.116a.645.645 0 01.695-.518c4.478.008 8.959-.1 13.434.037 3.8.115 7.589.018 11.383.084 1.032.018 1.051.057.781 1.06-.133.494-.176 1.015-.267 1.522-.367 2.046-.613 4.115-1.031 6.15-.32 1.555-.532 3.127-.852 4.681a30.578 30.578 0 00-.425 2.453c-.064.523-.321.673-.838.671-4.558-.018-9.116-.011-13.674-.011zm34.323 0H35.816c-.767 0-.892-.132-.75-.873.294-1.536.707-3.057.894-4.6.279-2.309.845-4.565 1.139-6.87.153-1.2.488-2.369.628-3.575.048-.412.326-.611.8-.61q12.173.021 24.347 0c.521 0 .7.187.7.7-.014 4.258.024 8.516-.041 12.772-.012.755.035 1.5.034 2.253 0 .77-.032.8-.825.8q-6.717.005-13.433.003zm34.001 0H69.87c-.859 0-.867-.008-.867-.882v-14.76c0-.873.008-.882.867-.882h24c.755 0 .885.138 1.015.852.234 1.285.449 2.576.66 3.862.186 1.133.426 2.261.571 3.406.193 1.529.57 3.034.834 4.555.183 1.055.336 2.114.569 3.16.126.566-.181.7-.708.7-4.501-.018-9.001-.011-13.501-.011zm28.643-22.08h-11.815c-.8 0-.9-.117-1.015-.9a64.005 64.005 0 00-.644-3.683c-.241-1.161-.387-2.342-.551-3.518a11.474 11.474 0 00-.3-1.506c-.2-.7-.133-1.414-.377-2.106-.27-.766-.033-.968.8-.966q3.418.011 6.837.011c4.951 0 9.9 0 14.852-.026a.974.974 0 011.1.763c.768 2.379 1.573 4.746 2.361 7.118.45 1.355.89 2.713 1.343 4.066.208.62.135.744-.532.745q-6.032.005-12.059.002zm-91.385 0H8.694c-.838 0-.847-.018-.6-.783q1.842-5.679 3.678-11.36a.656.656 0 01.734-.544 16.892 16.892 0 012.686.109 7.556 7.556 0 001.6-.111c2.126.009 4.252.018 6.376.13.724.038 1.426-.134 2.146-.131 3.07.014 6.14.007 9.21.008.808 0 .977.219.811 1.026-.459 2.232-.807 4.483-1.2 6.726q-.371 2.1-.714 4.208c-.088.545-.342.741-.922.737-3.974-.028-7.953-.015-11.931-.015zm30.635 0H39.625c-.774 0-.8-.06-.666-.835.382-2.148.73-4.3 1.129-6.447.3-1.6.605-3.2.832-4.806a.6.6 0 01.709-.6q10.618.017 21.236 0c.51 0 .712.165.71.693q-.021 5.639 0 11.278c0 .614-.264.729-.8.728-3.854-.017-7.713-.011-11.572-.011zm30.144 0c-3.859 0-7.719-.012-11.578.013-.6 0-.784-.169-.779-.777.026-3.659.012-7.318.013-10.978 0-.94 0-.942.927-.942h20.576c.959 0 1.152.129 1.242 1.1.127 1.368.5 2.69.688 4.041.225 1.61.6 3.194.785 4.81a14.271 14.271 0 00.374 1.864c.194.763.131.87-.671.87q-5.788.001-11.577-.001zm23.485-28.884c3.217 0 6.435.013 9.652-.013a.819.819 0 01.941.657c.654 2.042 1.346 4.072 2.022 6.106.344 1.036.68 2.075 1.029 3.109.254.754.24.784-.6.784-4.876 0-9.753-.046-14.628.022-2.094.029-4.189.095-6.284.088-.818 0-.917-.1-.967-.915a13.067 13.067 0 00-.29-1.452c-.363-2.066-.667-4.144-1.112-6.2-.1-.479-.124-.978-.246-1.464-.146-.585 0-.724.648-.725q4.919 0 9.835.003zM35.116 68.456c-6.825-.169-13.651-.107-20.477-.121-.781 0-.8-.068-.545-.837.671-1.994 1.318-4 1.983-5.992.363-1.09.776-2.165 1.1-3.266.149-.507.439-.555.872-.554q6.389.015 12.778.006h6.659c.755 0 .812.1.681.853-.231 1.33-.412 2.668-.652 4-.246 1.362-.537 2.716-.808 4.073a4.913 4.913 0 00-.145 1c0 .718-.119.827-.845.836-.201.004-.401.002-.601.002zm44.658-.001H69.82c-.775 0-.815-.042-.816-.815v-8.815c0-.84.055-.893.881-.893 3.8 0 7.6.066 11.392-.026q3.323-.08 6.644-.085c.709 0 .878.153.957.853.15 1.323.448 2.619.687 3.926.291 1.6.527 3.2.758 4.807.043.3.409.6.132.891s-.721.148-1.087.149c-3.198.012-6.396.008-9.594.008zm-27.054-.006h-9.711c-.964 0-.895 0-.8-.944.137-1.346.438-2.661.656-3.99a28.632 28.632 0 01.672-3.5 5.447 5.447 0 00.154-1.366c.026-.69.2-.87.871-.829 1.75.107 3.5-.081 5.248.009 4.312.222 8.625.037 12.938.1.738.011.812.075.813.84 0 2.978-.008 5.955.012 8.932 0 .589-.232.76-.785.757-3.357-.015-6.714-.007-10.072-.007z"/><path d="M66.223 30.296a8.857 8.857 0 11.368-17.707 8.687 8.687 0 018.565 8.878 8.737 8.737 0 01-8.933 8.829z"/></g></svg>