<svg viewBox="0 0 147.717 134.879" xmlns="http://www.w3.org/2000/svg"><path d="M46.947 88.515c-4.54 0-8.955.757-13.455.816-2.175.028-4.356.014-6.53-.033-1.275-.027-3.524-.113-1.495-.891 1.819-.7 3.973-.421 5.886-.675 2.022-.269 4.046-.485 6.05-.867 3.606-.688 6.714-2.015 10.369-2.6 1.6-.255 3.856-.655 5.1-1.794 1.454-1.336.428-3.052.705-4.795.254-1.594 1.326-2.243 2.122-3.38.395-.563.375-1.083.937-1.609.7-.654 1.347-.765 1.919-1.568.434-.61.56-1.374.958-1.994.418-.651 1.1-1.032 1.368-1.794a16.351 16.351 0 00.1-2.542c.157-.938.759-1.784.606-2.733-.255-1.575-2.707-3.373-3.881-4.365a9.333 9.333 0 00-5.253-2.268c-2.015-.305-4.031-.9-6.026-1.187s-2.81.626-4.273 1.621a5.181 5.181 0 00-1.316 1.042c-.75.771-.768 1.024-1.88 1.4-1.834.614-3-.028-4.4-1.2-.213.35-1.3 1.191-1.373 1.347-.147.295-.108.826-.238 1.025-.6.919-.679 1.744-2.059 1.947-.492.072-1.237-.308-1.686-.167-.364.115-.466.654-.861.8s-.834-.133-1.169.005c-.506.209-.741.825-1.229 1.1-.956.53-1.716.089-2.538.315-1.428.393-1.349 1.247-3.05 1.155-.761-.041-2.944.014-3.5-.5-1.175-1.078.586-1.624.408-2.532-.034-.172-1.082-.256-1.308-.427-.438-.331-.5-.964-.852-1.38-.988-1.175-1.875-1.39-1.04-3.348-1.55 1.146-2.73-.816-3.698-1.46-.443-.294-1 .04-1.411-.55-.784-1.129.206-1.379.677-2.024a5.224 5.224 0 001.1-1.936c.158-.894-.542-1.289.17-2.187.5-.634 1.218-.623 1.93-.774 1.083-.23.707.123 1.575-.323.489-.252 1.327-.609 1.687-.784a1.77 1.77 0 00.569.251 1.911 1.911 0 00.609-.844c.768-.539.623-.936 1.72-1.144.68-.129 1.385.28 1.931.026a6.143 6.143 0 01.473-.69 1.341 1.341 0 011.211-.263c.532-.2 3.68-.625 3.661-.9-.012-.169-2.9-.281-3.356-.426a8.393 8.393 0 01-1.9-.775c-.861-.565-.716-1.18-1.228-1.836-.712-.913-1.931-1.336-.694-2.757.652-.748 1.506-.749 2.023-1.743.457-.879.424-2.032 2.03-1.876 1.051.1.437.88 1.42.085.485-.392.539-.549.511-.986-.014-.214-.765-.959-.853-1.336a5.334 5.334 0 01.076-1.16 12.961 12.961 0 01-.092-2.144c.382-1.474 1.6-.952 2.682-.921.059 0 1.864-.234 1.891-.251a5.3 5.3 0 00.77-1.2c.314-.527.556-.325.709-.952.231-.948-.405-1.843.293-2.781a10.1 10.1 0 012.976-1.847c1.01-.206 2.166.672 3.125-.11a6.656 6.656 0 001.021-2.437 2.317 2.317 0 00.08-.837c-.006-.634-.678-1.142-.143-1.881.787-1.087 1.394-.16 1.776-1.688.119-.476-.181-.909-.028-1.4a4.54 4.54 0 011.76-2.025 2.678 2.678 0 012.016 0c.663.265 1.019 1.315 1.462 1.5a2.618 2.618 0 002.348-.736c1.129-.97.731-2.018 2.119-2.917.216-.14.581.006.793-.121.3-.182.384-.822.691-.964.94-.434 1.38-.2 1.946.705 1.251-1.1 2.276-1.555 3.491.018.389-.487 1.278-.789 1.576-1.176s.2-.715.487-1.123a5.967 5.967 0 012.781-2.369c.827-.424 1.958-1.133 2.922-.955a7.737 7.737 0 011.656.924c.25.176 1.057 1.081 1.118 1.093.465.1 1.7-.836 2.114-1.053.915-.484.87-1.011 2.17-.85 1.489.184 3.317 1.943 4.022 3.164.442-.317-.056-.56.122-.914.14-.277.425-1.094.547-1.443.257-.732.322-1.788 1.181-2.174 1.846-.83 2.919 1.688 4.306 2.118 1.072.332 1.416-.027 2.419.657a11.631 11.631 0 00.972.8c.381.208.789-.121 1.215.219.806.642.165 1.539.695 1.948.645.5 2.092.122 2.684.015 1.372-.248 1.59-1.133 3.007.059.228.192.222.8.508.948.353.183 1.284-.1 1.712.02.455.129.755.491 1.166.678.09.041 1.582.465 1.592.476.546.565.308 1.263.718 1.776.81 1.013 2.068.461 3.091.757.506.146 1.179.309 1.35.906.185.647-.46.871-.4 1.3.155 1.126-.135.145.685.393 1 .3 2.166.241 1.242 1.915 1.148 0 2.561.475 1.31 1.645-.5.468-1.209.221-1.741.475-.711.339-.886.862-1.465 1.393 1.578.694 2.664-1.825 2.819 1.054.652-.214 1.448 0 2.035-.241.264-.11.42-.605.7-.67 1.782-.411 1.633.216 2.665 1.362.469.521.008.554.688.741a2.085 2.085 0 001.445-.371c.9-.446 1.349-1.282 2.511-.9 1.466.485.831 1.681 1.275 2.62.339.717 1.678.659 1.716 1.745.046 1.316-1.84 1-1.84 2.167 0 1.139 2.2.562 2.728.4.851-.255 1.327-1.452 2.389-.295.7.758.018 1.439-.073 2.241-.047.411.428.783.423 1.2-.016 1.209-.377.779-.152 1.978.24 1.276.382 1.159 1.559 1.882.4.247.366.719.872.743.4.019 1.251-.6 1.716-.752 1.152-.385 2.383-.518 3.293.53a4.846 4.846 0 01.53 3.5c-.162.82-.807.724-.315 1.686a4.155 4.155 0 011.881-.833c1.169.03.93.638 1.686 1.24.866.69 1.487.771 1.862 1.987.116.374-.23.826-.05 1.182.2.4.859.307 1.124.65a12.137 12.137 0 011.346 2.574c.127.567-.337 1.069-.26 1.5.087.5.272.266.48.627.59 1.025 1.619.7 2.174 1.8a2 2 0 01-.807 2.473 11.455 11.455 0 01-2.631 1.425c-1.159.317-1.726-.472-2.454.318-.789.855-.237 1.148.269 2.045.174.309.516.607.672.92s-.273.694-.039 1.039c.587.864 2.242 1.41 0 1.793-1.127.193-3.031-1.074-3.762.573-.422.951.622 1.323.561 2.178 0 .049-.6.984-.691 1.157-.347.684.1 1.054-.681 1.576-1.684 1.122-1.658-.807-2.5-1.243-1.058 1.055-2.413.848-3.707.549-1.453-.335-.049-.806-1.408-.306-.407.15-.524.835-1.146.977a5.65 5.65 0 01-2.7-.8 20.669 20.669 0 01-1.886-1.886c-.272-.014-1.1 1.232-1.586 1.383a2.082 2.082 0 01-2.373-.79c-.251-.305-.248-.744-.492-1.041-.226-.276-.571-.259-.795-.481-1-1-1.138-.8-2.559-.7-2.691.179-5.4-.362-8.081-.031-2.376.293-4.436 1.829-6.809 1.5-1.386-.194-1.125-.892-1.513.934a18.409 18.409 0 00-.293 4.266 37.183 37.183 0 00.489 4.3c.145 1.007.118 3.74 1.009 4.479.42.348 1.293-.031 1.507.513.163.414-.9 2.159-1.181 2.307-.8.419-2.76-.006-3.675-.006H84.5c-.5 0-2.688.289-3-.126-.264-.348 1.078-2.123 1.257-2.384.68-.989 1.022.316.587-1.72-.3-1.4-.632-2.8-.886-4.208a32.55 32.55 0 01-.45-4.6c-.016-.436.265-2.814.026-3.14-.176-.24-4.615 1.376-5.57 1.547-4.62.83-9.787 5.747-5.37 10.218.79.8 1.795 1.366 2.594 2.156a26.305 26.305 0 011.686 2.363c1.327 1.613 3.386 1.682 5.368 2.279 2.964.894 5.257 2.274 8.448 2.48 3.015.194 5.979.594 9.009.586a44.683 44.683 0 019.931.7c.706.155 6.658 1.12 6.631 1.632-.066 1.26-9.1-.059-10.17-.1-.582-.021-3.693-.42-3.881.371-.195.818 2.217 1.013 2.759 1.3 1.426.762.98.808-.465.842a39.142 39.142 0 01-6.167-.745c-4.1-.568-8.268-.3-12.4-.309-4.079-.005-8.153.064-12.22-.268a61.565 61.565 0 00-11.813-.17c-3.593.42-7.052 1.341-10.6 1.959-.87.152-4.43 1.139-5.093.344-.803-.961 1.723-1.594 2.236-1.92zm41.472-11.692c2.42 0 3.657.781 3.112-1.909a30.692 30.692 0 01-.741-5.743c-.02-1.294-.076-2.595-.021-3.888.027-.63.556-2.5.323-2.9-.557-.961-2.647-1.092-3.826-1.167-1.418-.09-3.544-.245-4.238 1.287-.58 1.281-.217 4.061-.052 5.4a47.245 47.245 0 001.289 6.441c.78 2.896 1.197 2.479 4.154 2.479zm-11.032-17.64c1.9.077 2.588-.734 4.106-1.7 1.464-.932 3.147-1.271 4.539-2.37.438-.346 1.76-1.312 1.835-1.971.113-.99-.823-1.368-1.295-2.091-1.123-1.721-.6-1.85-2.625-1.961-1.473-.081-2.942.234-4.421-.138-1.356-.341-.523-1.029-1.336-.046-.545.659-.132 1.886-.074 2.611a8.632 8.632 0 01-1.175 5.531c-1.028 1.61-1.897 2.131.446 2.135zm-10.848-9.7c-.032-1.622.13-2.675-1.33-3.352-.428-.2-.946.019-1.449-.3-.413-.263-.528-.716-.863-1.05-.832-.83-1.155-.594-1.026-1.885.021-.205 1.051-3.06.635-3.165-.239-.06-1.439 2.107-1.627 2.395-1.056 1.61-.791 2.237-.623 4.045.246 2.648-2.381 5.038.469 6.819.942.589 1.867.924 2.779 1.567a13.037 13.037 0 002.547 1.627c2.825.68.383-5.27.488-6.698zm31.536 4.094a3.922 3.922 0 01-2.822.784c-1.8-.441-.406-.9-.361-1.915.048-1.086-.5-.848-1.04-1.277-.2-.155-.625-.148-.91-.378-.416-.335-.378-1.766-1.1-1.8-.569-.025-.927 5.321-1.313 6.006-.345.626-1.916 1.826-1.808 2.571.135.961 2.135 1.348 2.845 1.55a8.049 8.049 0 006.521-.809c2.614-1.541.046-2.657-.012-4.73zm-22.762-5.174a6.188 6.188 0 00-1.687-3.71c-.384-.394-1.219-.38-1.641-.886-.243-.291-.3-1.26-.524-1.354a25.018 25.018 0 00-2.8 1.131c-.613.706-.349.627-.149 1.42a33.39 33.39 0 011.1 3.187 15.59 15.59 0 00.585 3.081c.453 1.229 1.559 4.1 3.191 3.31 1.289-.621 1.751-4.941 1.925-6.179zm-22.422-7.38c-1.772-.008-.952 2.091-.517 2.944a24.274 24.274 0 001.752 3.669c.728.854 1.455.676 2.336-.263 1.157-1.235.216-1.992.4-3.38.133-.983 4.029-5.24 1.883-5.693-1.019-.215-1.8 1.47-2.41 1.974-1.222 1.013-1.997.705-3.444.749zm52.941 17.931c1.31-.028 4.239-2.052 4.453-3.464.353-2.327-3.108-.318-3.879.064-.4.2-5.206 1.865-4.91 2.442.417.809 3.477.645 4.336.962zM44.335 40.323c-1.8-.125-1.134.341-.275 1.177a24.505 24.505 0 003.15 2.858c.753.508 1.936 1.459 2.511.749-.407.5-.216-4.267 0-3.935-.189-.288-2.3-.578-2.761-.737-.479-.166-.069-.6-.729-.6-.478-.002-1.271.468-1.896.488zm3.41 11.3c.71 0 2.863.224 2.929-.7.043-.6-2.012-1.643-2.409-1.89-.47-.293-6.337-2.781-5.781-.836a13.713 13.713 0 001.364.426c1.041.444.772.206 1.142.99.276.585-.306.987.5 1.643a3.427 3.427 0 002.255.367zm-5.691-7.918a.866.866 0 00.785-.1c.241-.392-2.085-3.239-2.514-3.3a1.514 1.514 0 00-1.68 1.841c.396 1.24 2.429 1.248 3.409 1.559zm37.266 2.118a24.81 24.81 0 002.8-1.617 1.807 1.807 0 01.692-.852 1.621 1.621 0 011.059-.05c.447-.21 1.494-.56 1.542-1.233.1-1.446-2.124-.068-2.786.258-1.236.61-3.527 1.766-3.307 3.494zm26.472 8.226c-.327-.054-.789-.387-1.1-.408-.539-.036-1.006.474-1.629.442s-.865-.5-1.391-.6c-.563-.1-.762.691-1.4.079-.132 2.852 4.372 1.607 5.519.489zM37.57 49.118c1.272 0 4.058-3.687 1.68-3.124-.081.019-.984 1.274-1.044 1.347-.487.596-2.033 1.546-.636 1.777zm72.124 9.6c.529.126 4.325-.438 4.217-1.006-.088-.461-1.368-.862-1.746-.852-1.126.029-1.784 1.071-2.47 1.857zM90.287 47.95c-.153-.966-3.06.953-3.011.816-.356 1 1.155 1.509 1.727 1.288a3.551 3.551 0 001.284-2.104zM41.249 36.723c-.182.078-3.482.188-1.835 1.148.815.477 1.719-.076 1.835-1.148zm86.226 18.6c.277.02 1.69-.637 1.6-.967-.162-.59-3.218.472-1.601.967zm-5.444 1.611c.043-.674-1.276-.9-1.471-.447-.114.267 1.429 2.036 1.471.45zm-99.572 64.514c.018.7.292 1.452-.491 1.828-.764.367-1.2-.093-1.4-.7-.444-1.382 1.618-4.218.739-5.389-.712-.95-5.139-.853-6.381-1-2.509-.306-4.2-1.223-4.522 1.673-.063.566-.176 6.473-2.1 4.2-.707-.832.754-4.127.788-5.138.049-1.427.12-1.4-1.406-1.73-1.372-.3-2.814-.284-4.2-.49-2.708-.4-4.3-.745-3.043-3.616.5-1.137 1.433-4.55 3.115-4.379.8.082 1.857 1.512 2.426 2.033a27.755 27.755 0 003.071 2.5c.832.567 3.976 2.75 4.981 1.847 1.026-.921 1.074-5.414 1.06-6.772-.011-1.05-.08-4.907 2.1-2.872 1.075 1.006-.246 3.5-.589 4.741-.329 1.194-2.168 4.835-1.091 5.719a9.9 9.9 0 002.675.112 6.914 6.914 0 012.912.171c.509.2.69.5 1.32.635a14.5 14.5 0 003.865-.118c3.1-.283 1.416-2.568 1.215-4.862-.07-.795.1-1.57-.016-2.371-.151-1.048-1.041-2.251-.944-3.3.241-2.629 2.589-1.254 2.5.911-.1 2.556-1.085 8.633 1.352 9.709a2.3 2.3 0 001.374.37 17.047 17.047 0 013.274.251c2.867.649 3.185.545 4.3-2.331a59.8 59.8 0 002.269-6.093c.349-1.332.086-5.587 2.67-4.564 2.2.871.165 3.1-.511 4.177-1.029 1.632-1.543 3.75-2.374 5.524-.636 1.358-2.714 4.708-.7 5.7.735.362 2.429.071 3.264.134 1.39.1 1.553.253 2.312-.717.74-.947 1.253-2.8 2.377-3.441a5.555 5.555 0 012.555-.364 3.066 3.066 0 011.339 1.941c.422 1.582-.336 3.192.4 4.755.831 1.766 2.37 3.173 3.2 4.986a11.012 11.012 0 002.811 3.885 6.831 6.831 0 006.014 1.332c3.536-.737 7.016-4.486 9.757-6.705 2.8-2.266 5.636-4.678 8.577-6.729a14.558 14.558 0 019.53-2.594c4.127.465 6.875 2.591 10.331 4.887 3.551 2.359 7.031 4.894 10.814 6.965 3.325 1.82 5.519 3.344 9.356 1.829 3.553-1.4 5.178-4.28 7.549-7.066 2.167-2.546 5.476-5.341 8.773-6.163a11.519 11.519 0 016.114.191c2.858 1.177 2.094 3.051.8 5.164-1.094 1.793-1.444 3.45-3.623 3.765a12.656 12.656 0 00-5.722 2.141 9 9 0 00-2.951 4.548c-.432 1.4.183 2.655-1.3 3.673-1.537 1.058-4.461.377-6.137.063-2.514-.471-4.7-1.755-7.057-2.531-7.624-2.508-13.416-8.362-20.849-11.217a16.529 16.529 0 00-13.082.218c-4.5 2.115-8.59 6.125-12.391 9.271-2.694 2.23-5.877 4.389-9.481 4.784a10.375 10.375 0 01-5.943-1.276 18.831 18.831 0 01-1.712-.888c-1.767-1.048-.731-.488-2.149-.2-2.353.483-2.881-2.364-3.879-4.023a22.14 22.14 0 00-3.8-4.716 17.3 17.3 0 00-9.476-4.737c-2.667-.347-2.111 2.035-2.964 4.158-.418 1.041-.34 3.944-1.2 4.461-1.21.726-1.9-.727-1.837-1.615.063-.92.751-1.58 1.14-2.362.48-.964 1.858-4.465 1.094-5.082-.553-.447-2.957-.381-3.7-.5-1.273-.2-2.528-.323-3.811-.437-.79-.07-2.1-.543-2.737.047-.797.729-.501 2.831-.544 3.789z" fill="#7ccf68"/></svg>