<svg viewBox="0 0 136.026 148" xmlns="http://www.w3.org/2000/svg"><g fill="#ee4955"><path d="M136.026 148H.051a23.659 23.659 0 01.022-3.268A748.683 748.683 0 012.4 129.175c.545-3.365 1.271-6.7 1.856-10.058.248-1.425.305-2.883.515-4.317.779-5.332 1.6-10.658 2.378-15.989a7.7 7.7 0 014.557-6.2c5.255-2.476 10.551-4.865 15.777-7.4 5.676-2.753 11.278-5.658 16.938-8.443a10.619 10.619 0 005.221-6.368 1.956 1.956 0 00-.055-1.417c-1.876-3.572-3.764-7.14-5.758-10.647-.572-1.007-1.675-1.715-2.234-2.726-2.3-4.15-2.75-8.784-3.183-13.385a52.293 52.293 0 01-.022-6.194c.035-1.4-.436-2.915 1.019-4.042.315-.244.19-1.141.158-1.731a35.887 35.887 0 011.178-11.367A23.332 23.332 0 0152.596 3.62C58.957.206 65.827-.5 72.707.3c6.46.755 12.534 3.121 17.045 8.258a22.768 22.768 0 015.771 12.407c.429 3.526-.226 7.406 1.043 10.546 1.377 3.406 1.137 6.678.812 9.843a50.327 50.327 0 01-3.227 14.05c-1.967 4.736-5.345 8.87-7.733 13.462-.49.942.525 2.815 1.118 4.138 1.128 2.516 3.544 3.609 5.841 4.751q10.85 5.4 21.733 10.724a156.33 156.33 0 008.362 3.8c3.8 1.583 5.241 4.6 5.708 8.452s1.2 7.651 1.79 11.478c.222 1.432.394 2.872.572 4.31.411 3.326.726 6.667 1.242 9.977.534 3.43 1.357 6.815 1.876 10.246.553 3.683.906 7.395 1.366 11.258zM96.784 86.46c.316 3.948.473 7.579.955 11.166.2 1.525-.293 1.743-1.52 1.722-1.864-.031-3.73-.008-5.879-.008l5.042 4.806c-2.485 2.276-4.811 4.4-7.125 6.528-4.263 3.928-8.435 7.961-12.8 11.77-5.026 4.384-5.1 4.3-5.1 10.907v9.044h59.132c-.244-1.642-.464-3.131-.688-4.619-.537-3.579-1.1-7.155-1.607-10.739-.6-4.3-1.106-8.616-1.738-12.913-.564-3.837-1.111-7.686-1.934-11.472-.39-1.794.245-3.967-2.44-5.093-4.559-1.911-8.87-4.412-13.295-6.646-1.182-.6-2.4-1.127-3.2-1.5.067 2.608.644 5.124.069 7.341a62.884 62.884 0 01-3.927 9.912c-1.9 4.2-2.744 8.451-1.445 13.016a6.738 6.738 0 011.066.082 5.5 5.5 0 011.109.413 7.5 7.5 0 013.686 7.316c-.407 2.688-2.969 5.175-5.976 5.8a7.537 7.537 0 01-7.1-3.379c-1.478-2.734-1.3-6.051.828-7.99a3.676 3.676 0 001.144-4.626 4.18 4.18 0 01-.078-1.387c-.15-5.637 2.137-10.53 4.8-15.267a11.473 11.473 0 00-1.979-14.184zm-56.847.379c-.529.661-.673.827-.8 1A19.136 19.136 0 0035.913 96a13.173 13.173 0 00-.205 4.508c.116.626 1.5 1.013 2.307 1.518.167.105.3.257.465.375 3.349 2.458 4.62 6.044 5.31 9.913.117.656.05 1.891-.211 1.974a7.946 7.946 0 01-3.4.372c-.417-.059-.742-1.182-1-1.86-.664-1.737-.945-3.718-1.964-5.2-2.064-3-4.079-2.961-6.319-.158a8.319 8.319 0 00-1.366 2.682c-.6 1.923-1.039 3.9-1.587 6.016a12.809 12.809 0 00-1.861.015c-1.736.245-2.323-.571-2.062-2.159.2-1.223.529-2.426.732-3.649.59-3.552 2.632-6.108 5.409-8.237a3.066 3.066 0 00.991-1.842c.348-2.34.48-4.712.828-7.051.213-1.431.67-2.826 1.066-4.435-6.353 3.038-12.569 5.949-18.7 9.022a3.807 3.807 0 00-1.533 2.476c-.572 2.969-.876 5.988-1.357 8.977-.731 4.541-1.6 9.061-2.27 13.61-.956 6.493-1.785 13.005-2.676 19.568h60.245c0-3.947-.217-7.81.074-11.635.2-2.677-.94-4.286-2.751-5.936-7.21-6.57-14.323-13.246-21.5-19.855-.815-.751-.763-1.16.1-1.848 1.306-1.043 2.469-2.264 3.692-3.409l-.323-.46h-6.963zm5.144-50.125l-.513-.154c-.2.531-.616 1.078-.577 1.591.244 3.218.47 6.445.94 9.634.343 2.326.686 4.766 3.133 6.116.363.2.451.916.646 1.4a46.649 46.649 0 008 13.544c4.084 4.7 9.129 4.822 14.593 4.345a10.569 10.569 0 005.979-2.669c6.057-5.045 8.5-12.514 12.13-19.068 2.038-3.68 1.807-8.633 2.494-13.029.087-.558-.46-1.215-.912-2.308-1.881 5.052-1.981 5.153-4.806 5.392v-9.984c-3.8 1.956-6.239 2.381-10.094 1.427-4.3-1.064-8.524-2.442-12.84-3.424a63.215 63.215 0 00-9.341-1.365 3.946 3.946 0 00-4.369 3.608 34.169 34.169 0 00-.168 4.943c-.022 1.619 0 3.238 0 4.863-3.189-.202-4.009-2.299-4.295-4.862zM74.594 101.2c.74-1.318 1.284-2.19 1.736-3.107 2.383-4.844 4.791-9.673 7.083-14.557.561-1.2 1.291-2.783.928-3.843-.614-1.792-2-3.331-3.155-4.913a1.292 1.292 0 00-1.213-.243c-4.46 4.35-10.035 3.697-15.485 3.463-3.282-.139-6.342-.958-8.618-3.62-.108-.126-.937.1-1.137.369-.654.893-.982 2.1-1.777 2.8-2.173 1.908-1.566 3.892-.5 5.974.259.5.655.938.9 1.446q3.834 7.9 7.638 15.821a52.782 52.782 0 001.438-6.559c.287-1.35.715-2.482-.461-3.727-2.071-2.192-2.292-4.657-1.349-7.636.877-2.772 1-2.881 3.969-2.651a35.734 35.734 0 005.541.275c4.3-.344 4.421-.463 5.425 3.705a7.752 7.752 0 01-.447 4.28c-.779 2.061-2.777 3.6-1.668 6.335.756 1.864.759 4.031 1.152 6.388zm20.056-4.952c-.38-3.555-1.044-6.706-.951-9.834.079-2.656-1.263-3.468-3.442-4.173L72.64 120.622l.32.152 18.046-16.7c-1.553-1.374-3.022-2.509-4.275-3.847a12.438 12.438 0 01-1.518-2.748 11.342 11.342 0 012.975-1.18c1.965-.19 3.959-.055 6.462-.055zm-52.237-.059c1.353 0 2.671-.015 3.988 0a15.468 15.468 0 013.381.166 3.662 3.662 0 011.962 1.435c.164.239-.483 1.22-.947 1.669-1.561 1.51-3.207 2.933-4.99 4.543l18.274 16.837a55.324 55.324 0 00-2.566-6.217q-4.548-9.867-9.09-19.736c-1.717-3.738-3.372-7.507-5.17-11.206-.258-.53-1.317-1.178-1.737-1.026a3.071 3.071 0 00-2.369 2.836c-.168 3.497-.471 6.983-.736 10.699zm59.138 30.2a3.226 3.226 0 00-3.292-3.483 3.829 3.829 0 00-3.9 3.406c-.051 1.732 1.848 3.455 3.8 3.448a3.181 3.181 0 003.393-3.366z"/><path d="M25.14 117.073c1.776-.35 2.542-.2 2.92 1.74a41.938 41.938 0 004.7 13.53 31.455 31.455 0 002.753 3.357c.962-1.863 2.05-3.232 2.393-4.768 1.126-5.052 1.982-10.164 2.98-15.457l1.878-.1a59.178 59.178 0 01-3.57 20.855c2.78-.744 5.552-1.519 8.344-2.215 1.018-.253 2.888-.653 2.99-.409a14.53 14.53 0 01.713 3.906c.033.285-.185.6-.422 1.3-1.837-.336-3.663-.713-5.506-.983a5.369 5.369 0 00-1.937.159c-3.728.866-7.572 1.178-10.507-1.575a19.354 19.354 0 01-4.187-6.68 107.465 107.465 0 01-3.339-10.433 11.363 11.363 0 01-.203-2.227zm9.049 21.527c-1.677.236-3.065.367-4.426.638-2.293.456-4.552 1.12-6.861 1.449-.892.127-2.63-.3-2.689-.681-.209-1.344-.349-3.275.42-4.024.689-.67 2.616-.142 3.986-.017 1.16.106 2.3.559 3.455.56 2.101.002 4.191-.185 6.115 2.075zm63.388-14.789c2.388-.181 2.953 1.131 3.119 2.519a2.29 2.29 0 01-2.683 2.58 2.379 2.379 0 01-2.46-2.626 2.458 2.458 0 012.024-2.473z"/></g></svg>