<svg viewBox="0 0 148 117.592" xmlns="http://www.w3.org/2000/svg"><g fill="#d671c6"><path d="M42 78.5a44.585 44.585 0 0012.035-6.153 55.409 55.409 0 005.315-4.207 47.357 47.357 0 004.35-4.411c.45.511.917 1 1.412 1.459.284.252.58.494.887.722-.434.806-.888 1.6-1.358 2.357-.194-.386-.293-.6-.3-.614l-.951-2.088-.882 2.117c-4.815 11.556-9.656 15.566-9.7 15.6l-1.22.977 1.4.7c11.941 5.971 28.994 11.015 29.165 11.064l3.054.9.128.153c.024-.033.043-.063.066-.1l.052.015-.035-.04c5.186-7.314 4.7-11.439 4.7-11.439s-15.943-6.2-24.3-15.363a73.189 73.189 0 006.603-13.829c.188.174.4.368.637.573C76.223 61.937 85.589 75.295 100 82.5c0 0 21-3 44.5-8.5 0 0-34.706-3.309-58.173-11.891L84.021 0l-2.484 60.212q-.516-.222-1.021-.449a37.506 37.506 0 01-7.777-5.938l-1.151-1.26-.537 1.619A86.236 86.236 0 0166.2 65.532a17.48 17.48 0 01-.614-.773 25.443 25.443 0 01-1.436-2.169l-.267-.438c.039-.052.079-.1.118-.152 0 0-.047.036-.148.1l-.02-.032-.231.195C61.258 63.737 47.75 70.92 3 74.5c0 0 24 4 39 4zm13.159 5.3c1.652-1.732 4.937-5.774 8.343-13.373 1.9 3.564 6.709 11.757 15.908 22.658A204.932 204.932 0 0155.159 83.8z"/><path d="M137.009 85.178q-5.491.383-10.977.913a165.564 165.564 0 00-21.845 3.486 45.267 45.267 0 00-5.411 1.669 16.267 16.267 0 00-2.683 1.294l-.666.418-.658.55a4.289 4.289 0 00-.323.292l-.309.388a4.347 4.347 0 00-.512.765 14 14 0 00-1.533 5.883 33.684 33.684 0 00.242 5.742c.191 1.846.486 3.664.524 5.312a5.39 5.39 0 01-.26 2.044 1.122 1.122 0 01-.333.442l-.014.01h-.016a.119.119 0 01-.1 0 6.663 6.663 0 01-1.942-.81 30.814 30.814 0 01-2.2-1.393c-1.463-1.007-2.914-2.1-4.364-3.2-5.831-4.391-11.7-8.962-18.25-12.605A47.244 47.244 0 0054.926 92a109.229 109.229 0 00-11-1.859c-14.607-1.882-29.263-2.7-43.928-3.13 7.284.883 14.57 1.648 21.831 2.626 7.265.9 14.524 1.865 21.721 3.041 3.572.6 7.232 1.252 10.619 2.1a44.34 44.34 0 019.687 4.3c6.231 3.567 11.963 8.051 17.794 12.513 1.474 1.1 2.957 2.208 4.519 3.268a33.01 33.01 0 002.455 1.53 9.149 9.149 0 003.148 1.176 2.454 2.454 0 00.585.019 2.9 2.9 0 00.648-.077 5.148 5.148 0 00.726-.278 3.633 3.633 0 00.488-.326 4.349 4.349 0 001.309-1.721 8.265 8.265 0 00.5-3.36c-.068-2.018-.383-3.825-.612-5.617a30.817 30.817 0 01-.34-5.221 11.107 11.107 0 011.092-4.7c.451-.958 2.1-1.836 3.654-2.5a42.765 42.765 0 015.031-1.741c3.46-1 7.029-1.742 10.6-2.466s7.179-1.324 10.79-1.9c7.217-1.214 14.486-2.125 21.76-3.069q-5.503.161-10.994.57z"/></g></svg>